<?xml version="1.0" encoding="UTF-8" standalone="no"?>
<!-- Created with Inkscape (http://www.inkscape.org/) -->

<svg
   xmlns:svg="http://www.w3.org/2000/svg"
   xmlns="http://www.w3.org/2000/svg"
   version="1.1"
   width="773.85828"
   height="926.57477"
   id="svg2">
  <g
     transform="translate(-1039.3525,447.5234)"
     id="layer1">
    <path
       d="m 194.95944,221.91235 a 55.053314,55.053314 0 1 1 -110.106626,0 55.053314,55.053314 0 1 1 110.106626,0 z"
       transform="matrix(1.1201114,0,0,1.1201114,1098.1427,-319.68523)"
       id="path4559-2-4"
       style="color:#000000;fill:#afe9dd;fill-opacity:1;stroke:none;stroke-width:1.63216412;marker:none;visibility:visible;display:inline;overflow:visible;enable-background:accumulate" />
    <path
       d="m 194.95944,221.91235 a 55.053314,55.053314 0 1 1 -110.106626,0 55.053314,55.053314 0 1 1 110.106626,0 z"
       transform="matrix(1.1201114,0,0,1.1201114,1217.541,-129.1863)"
       id="path4559-2-3-1"
       style="color:#000000;fill:#afe9dd;fill-opacity:1;stroke:none;stroke-width:1.63216412;marker:none;visibility:visible;display:inline;overflow:visible;enable-background:accumulate" />
    <path
       d="m 194.95944,221.91235 a 55.053314,55.053314 0 1 1 -110.106626,0 55.053314,55.053314 0 1 1 110.106626,0 z"
       transform="matrix(1.1201114,0,0,1.1201114,1337.24,61.012737)"
       id="path4559-2-3-3-1"
       style="color:#000000;fill:#afe9dd;fill-opacity:1;stroke:none;stroke-width:1.63216412;marker:none;visibility:visible;display:inline;overflow:visible;enable-background:accumulate" />
    <path
       d="m 194.95944,221.91235 a 55.053314,55.053314 0 1 1 -110.106626,0 55.053314,55.053314 0 1 1 110.106626,0 z"
       transform="matrix(1.1201114,0,0,1.1201114,978.44366,-509.88424)"
       id="path4559-3"
       style="color:#000000;fill:#afe9dd;fill-opacity:1;stroke:none;stroke-width:1.63216412;marker:none;visibility:visible;display:inline;overflow:visible;enable-background:accumulate" />
    <path
       d="m 1680.4246,401.98747 -68.8143,0 -19.1075,-42.05125 52.9251,-30.41332 54.137,30.41332 -19.1403,42.05125 z"
       id="77-8-1-9-6-5-2"
       style="fill:#89a394;fill-opacity:1;stroke:none" />
    <path
       d="m 1561.0268,211.37672 -68.8143,0 -19.1075,-42.05125 52.9251,-30.41332 54.137,30.41332 -19.1403,42.05125 z"
       id="77-8-1-9-6-2-0"
       style="fill:#89a394;fill-opacity:1;stroke:none" />
    <path
       d="m 1441.2414,21.526899 -68.8143,0 -19.1075,-42.05125 52.9252,-30.41333 54.1369,30.41333 -19.1403,42.05125 z"
       id="77-8-1-9-6-0"
       style="fill:#89a394;fill-opacity:1;stroke:none" />
    <path
       d="m 1321.7669,-169.4501 -68.8143,0 -19.1075,-42.05125 52.9252,-30.41332 54.1369,30.41332 -19.1403,42.05125 z"
       id="77-8-1-9-3"
       style="fill:#89a394;fill-opacity:1;stroke:none" />
    <path
       d="m 1420.4143,-109.16529 40.0551,29.301729 40.0443,-29.301719 48.1752,10.658289 33.124,-37.058149 -14.845,-46.28186 -48.7544,-11.01784 -32.9997,36.59981 -48.9035,-0.0286 -15.896,47.12836 z"
       id="184-7-2-8"
       style="fill:#91ff91;fill-opacity:1;stroke:none" />
    <path
       d="m 1540.1398,81.303449 40.0551,29.301731 40.0442,-29.301721 48.1753,10.65829 33.124,-37.05815 -14.8451,-46.28186 -48.7544,-11.01784 -32.9997,36.59981 -48.9034,-0.0286 -15.896,47.12836 z"
       id="184-7-9"
       style="fill:#ffe991;fill-opacity:1;stroke:none" />
    <path
       d="m 1657.062,226.51876 42.6764,-24.61594 42.7827,25.08112 0.04,48.7991 -42.6502,25.44349 -42.8491,-25.20803 0,-49.49974 z"
       id="166-9-2-5"
       style="fill:#ff9191;fill-opacity:1;stroke:none" />
    <path
       d="m 1298.0425,-344.39429 42.6764,-24.61594 42.7827,25.08112 0.04,48.7991 -42.6502,25.44349 -42.8491,-25.20803 0,-49.49974 z"
       id="166-9-5"
       style="fill:#91bdff;fill-opacity:1;stroke:none" />
    <g
       transform="translate(17.685876,-17.669671)"
       id="2-1">
      <path
         d="m 1314.4414,-242.21074 0,-21.47442 2.915,0 11.2792,16.8602 0,-16.8602 2.7246,0 0,21.47442 -2.915,0 -11.2792,-16.87485 0,16.87485 z"
         id="path4308"/>
    </g>
    <g
       transform="translate(17.685876,-17.669671)"
       id="3-7">
      <path
         d="m 1259.0071,-224.46977 c 0,-3.56441 0.957,-6.35491 2.871,-8.37151 1.9141,-2.01657 4.3848,-3.02486 7.4121,-3.02488 1.9824,2e-5 3.7695,0.47365 5.3613,1.42089 1.5917,0.94728 2.8051,2.26806 3.6401,3.96237 0.8349,1.69433 1.2524,3.6157 1.2524,5.76411 0,2.17772 -0.4395,4.12594 -1.3183,5.84467 -0.879,1.71874 -2.1241,3.02 -3.7354,3.90378 -1.6113,0.88378 -3.3496,1.32567 -5.2148,1.32567 -2.0214,0 -3.8281,-0.48828 -5.4198,-1.46483 -1.5918,-0.97655 -2.7979,-2.30955 -3.6182,-3.99899 -0.8203,-1.68943 -1.2304,-3.47653 -1.2304,-5.36128 z m 2.9296,0.0439 c 0,2.58788 0.6958,4.62643 2.0874,6.11567 1.3916,1.48925 3.1372,2.23387 5.2368,2.23387 2.1386,0 3.8989,-0.75194 5.2807,-2.25584 1.3818,-1.50389 2.0727,-3.63766 2.0727,-6.40131 0,-1.74802 -0.2954,-3.27389 -0.8862,-4.5776 -0.5908,-1.30368 -1.4551,-2.31441 -2.5927,-3.0322 -1.1377,-0.71775 -2.4146,-1.07663 -3.8306,-1.07665 -2.0117,2e-5 -3.7426,0.69093 -5.1928,2.07274 -1.4502,1.38184 -2.1753,3.68894 -2.1753,6.92132 z"
         id="path4311"/>
    </g>
    <g
       transform="translate(17.685876,-17.669671)"
       id="4-4">
      <path
         d="m 1156.1079,-243.36968 c 0,-3.5644 0.957,-6.3549 2.8711,-8.3715 1.914,-2.01657 4.3847,-3.02486 7.412,-3.02488 1.9824,2e-5 3.7695,0.47365 5.3613,1.42089 1.5918,0.94727 2.8051,2.26806 3.6401,3.96236 0.8349,1.69434 1.2524,3.61571 1.2524,5.76411 0,2.17773 -0.4394,4.12595 -1.3183,5.84468 -0.8789,1.71874 -2.124,3.01999 -3.7353,3.90377 -1.6114,0.88379 -3.3496,1.32568 -5.2148,1.32568 -2.0215,0 -3.8281,-0.48828 -5.4199,-1.46484 -1.5918,-0.97655 -2.7978,-2.30954 -3.6181,-3.99898 -0.8204,-1.68944 -1.2305,-3.47653 -1.2305,-5.36129 z m 2.9297,0.0439 c 0,2.58788 0.6957,4.62643 2.0873,6.11567 1.3916,1.48925 3.1372,2.23387 5.2368,2.23387 2.1387,0 3.8989,-0.75195 5.2807,-2.25584 1.3818,-1.50389 2.0727,-3.63766 2.0728,-6.40131 -1e-4,-1.74802 -0.2955,-3.27389 -0.8863,-4.5776 -0.5908,-1.30368 -1.455,-2.31442 -2.5927,-3.0322 -1.1377,-0.71775 -2.4146,-1.07663 -3.8305,-1.07665 -2.0118,2e-5 -3.7427,0.69093 -5.1929,2.07273 -1.4502,1.38184 -2.1752,3.68895 -2.1752,6.92133 z"
         id="path4314"/>
    </g>
    <g
       transform="translate(17.685876,-17.669671)"
       id="7-4">
      <path
         d="m 1226.3074,-102.67041 c 0,-3.56441 0.957,-6.35491 2.871,-8.37151 1.9141,-2.01656 4.3847,-3.02485 7.4121,-3.02488 1.9824,3e-5 3.7695,0.47365 5.3613,1.42089 1.5917,0.94728 2.8051,2.26807 3.6401,3.96237 0.8349,1.69433 1.2524,3.6157 1.2524,5.76411 0,2.17772 -0.4395,4.125945 -1.3184,5.844674 -0.8789,1.718738 -2.124,3.019995 -3.7353,3.903774 -1.6113,0.883782 -3.3496,1.325672 -5.2148,1.325672 -2.0215,0 -3.8281,-0.488276 -5.4198,-1.464831 -1.5918,-0.976551 -2.7979,-2.309546 -3.6182,-3.998988 -0.8203,-1.689432 -1.2304,-3.476521 -1.2304,-5.361281 z m 2.9296,0.0439 c 0,2.58788 0.6958,4.626435 2.0874,6.115674 1.3916,1.489247 3.1372,2.233869 5.2368,2.233867 2.1386,2e-6 3.8989,-0.751944 5.2807,-2.25584 1.3818,-1.503887 2.0727,-3.637651 2.0727,-6.401311 0,-1.74802 -0.2954,-3.27388 -0.8862,-4.5776 -0.5908,-1.30368 -1.4551,-2.31441 -2.5927,-3.0322 -1.1377,-0.71775 -2.4146,-1.07663 -3.8306,-1.07665 -2.0117,2e-5 -3.7426,0.69093 -5.1928,2.07274 -1.4502,1.38184 -2.1753,3.68894 -2.1753,6.92132 z"
         id="path4317"/>
    </g>
    <g
       transform="translate(17.685876,-17.669671)"
       id="8-8">
      <path
         d="m 1106.6083,-293.16943 c 0,-3.56441 0.957,-6.35491 2.871,-8.37151 1.9141,-2.01657 4.3848,-3.02486 7.4121,-3.02488 1.9824,2e-5 3.7695,0.47365 5.3613,1.42089 1.5917,0.94727 2.8051,2.26806 3.6401,3.96236 0.8349,1.69434 1.2524,3.61571 1.2524,5.76411 0,2.17773 -0.4395,4.12595 -1.3184,5.84468 -0.8789,1.71874 -2.124,3.02 -3.7353,3.90377 -1.6113,0.88379 -3.3496,1.32568 -5.2148,1.32568 -2.0214,0 -3.8281,-0.48828 -5.4198,-1.46483 -1.5918,-0.97656 -2.7979,-2.30955 -3.6182,-3.99899 -0.8203,-1.68943 -1.2304,-3.47653 -1.2304,-5.36128 z m 2.9296,0.0439 c 0,2.58788 0.6958,4.62643 2.0874,6.11567 1.3916,1.48925 3.1372,2.23387 5.2368,2.23387 2.1386,0 3.8989,-0.75195 5.2807,-2.25584 1.3818,-1.50389 2.0727,-3.63766 2.0727,-6.40131 0,-1.74802 -0.2954,-3.27389 -0.8862,-4.5776 -0.5908,-1.30368 -1.4551,-2.31442 -2.5927,-3.0322 -1.1377,-0.71775 -2.4146,-1.07663 -3.8306,-1.07665 -2.0117,2e-5 -3.7426,0.69093 -5.1928,2.07273 -1.4502,1.38184 -2.1753,3.68895 -2.1753,6.92133 z"
         id="path4320"/>
    </g>
    <g
       transform="translate(17.685876,-17.669671)"
       id="10-2">
      <path
         d="m 1106.6083,-193.86993 c 0,-3.56441 0.957,-6.35491 2.871,-8.37151 1.9141,-2.01657 4.3848,-3.02486 7.4121,-3.02488 1.9824,2e-5 3.7695,0.47365 5.3613,1.42089 1.5917,0.94727 2.8051,2.26806 3.6401,3.96236 0.8349,1.69434 1.2524,3.61571 1.2524,5.76411 0,2.17773 -0.4395,4.12595 -1.3184,5.84468 -0.8789,1.71874 -2.124,3.01999 -3.7353,3.90377 -1.6113,0.88379 -3.3496,1.32568 -5.2148,1.32568 -2.0214,0 -3.8281,-0.48828 -5.4198,-1.46483 -1.5918,-0.97656 -2.7979,-2.30955 -3.6182,-3.99899 -0.8203,-1.68943 -1.2304,-3.47653 -1.2304,-5.36128 z m 2.9296,0.0439 c 0,2.58788 0.6958,4.62643 2.0874,6.11567 1.3916,1.48925 3.1372,2.23387 5.2368,2.23387 2.1386,0 3.8989,-0.75195 5.2807,-2.25584 1.3818,-1.50389 2.0727,-3.63766 2.0727,-6.40131 0,-1.74802 -0.2954,-3.27389 -0.8862,-4.5776 -0.5908,-1.30368 -1.4551,-2.31442 -2.5927,-3.0322 -1.1377,-0.71775 -2.4146,-1.07663 -3.8306,-1.07665 -2.0117,2e-5 -3.7426,0.69093 -5.1928,2.07273 -1.4502,1.38184 -2.1753,3.68895 -2.1753,6.92133 z"
         id="path4323"/>
    </g>
    <g
       transform="translate(17.685876,-17.669671)"
       id="11-4">
      <path
         d="m 1109.2726,-232.91078 0,-21.47442 8.1005,0 c 1.4257,2e-5 2.5146,0.0684 3.2666,0.20507 1.0546,0.1758 1.9384,0.51027 2.6513,1.00341 0.7129,0.49318 1.2866,1.18409 1.7212,2.07274 0.4345,0.88868 0.6518,1.86523 0.6518,2.92966 0,1.82617 -0.581,3.37156 -1.7431,4.63619 -1.1621,1.26465 -3.2617,1.89696 -6.2988,1.89696 l -5.5078,0 0,8.73039 z m 2.8417,-11.26455 5.5517,0 c 1.836,1e-5 3.1397,-0.34178 3.9111,-1.02538 0.7715,-0.68358 1.1572,-1.64548 1.1573,-2.88572 -10e-5,-0.89841 -0.2271,-1.66745 -0.6812,-2.30711 -0.4541,-0.63962 -1.0522,-1.06198 -1.7944,-1.26708 -0.4785,-0.12693 -1.3623,-0.19041 -2.6513,-0.19043 l -5.4932,0 z"
         id="path4326"/>
    </g>
    <g
       transform="translate(17.685876,-17.669671)"
       id="12-5">
      <path
         d="m 1056.8087,-243.36968 c 0,-3.5644 0.957,-6.3549 2.8711,-8.3715 1.914,-2.01657 4.3847,-3.02486 7.412,-3.02488 1.9824,2e-5 3.7695,0.47365 5.3613,1.42089 1.5918,0.94727 2.8051,2.26806 3.6401,3.96236 0.8349,1.69434 1.2524,3.61571 1.2524,5.76411 0,2.17773 -0.4394,4.12595 -1.3183,5.84468 -0.8789,1.71874 -2.124,3.01999 -3.7353,3.90377 -1.6114,0.88379 -3.3496,1.32568 -5.2148,1.32568 -2.0215,0 -3.8281,-0.48828 -5.4199,-1.46484 -1.5918,-0.97655 -2.7978,-2.30954 -3.6181,-3.99898 -0.8203,-1.68944 -1.2305,-3.47653 -1.2305,-5.36129 z m 2.9297,0.0439 c 0,2.58788 0.6958,4.62643 2.0873,6.11567 1.3916,1.48925 3.1372,2.23387 5.2368,2.23387 2.1387,0 3.8989,-0.75195 5.2807,-2.25584 1.3818,-1.50389 2.0728,-3.63766 2.0728,-6.40131 0,-1.74802 -0.2955,-3.27389 -0.8863,-4.5776 -0.5908,-1.30368 -1.455,-2.31442 -2.5927,-3.0322 -1.1377,-0.71775 -2.4145,-1.07663 -3.8305,-1.07665 -2.0117,2e-5 -3.7427,0.69093 -5.1929,2.07273 -1.4501,1.38184 -2.1752,3.68895 -2.1752,6.92133 z"
         id="path4329"/>
    </g>
    <g
       transform="translate(17.685876,-17.669671)"
       id="14-1">
      <path
         d="m 1434.1404,-52.011719 0,-21.474422 2.915,0 11.2792,16.860205 0,-16.860205 2.7246,0 0,21.474422 -2.9151,0 -11.2792,-16.874853 0,16.874853 z"
         id="path4332"/>
    </g>
    <g
       transform="translate(17.685876,-17.669671)"
       id="15-7">
      <path
         d="m 1378.7058,-33.970795 c 0,-3.564408 0.957,-6.354908 2.8711,-8.371509 1.914,-2.016563 4.3847,-3.024854 7.412,-3.024876 1.9824,2.2e-5 3.7695,0.47365 5.3613,1.420886 1.5918,0.947277 2.8051,2.268065 3.6401,3.962368 0.8349,1.694336 1.2524,3.615704 1.2524,5.76411 0,2.177724 -0.4394,4.125947 -1.3183,5.844675 -0.8789,1.718738 -2.124,3.019995 -3.7353,3.903775 -1.6114,0.883781 -3.3496,1.325672 -5.2148,1.325672 -2.0215,0 -3.8281,-0.488277 -5.4199,-1.464831 -1.5918,-0.976552 -2.7978,-2.309547 -3.6181,-3.998989 -0.8204,-1.689431 -1.2305,-3.476523 -1.2305,-5.361281 z m 2.9297,0.04395 c 0,2.587876 0.6957,4.62643 2.0873,6.115669 1.3916,1.489248 3.1372,2.23387 5.2368,2.233867 2.1387,3e-6 3.8989,-0.751943 5.2807,-2.255839 1.3818,-1.503888 2.0727,-3.637656 2.0728,-6.401312 -10e-5,-1.748019 -0.2955,-3.273883 -0.8863,-4.577597 -0.5908,-1.303683 -1.455,-2.314415 -2.5927,-3.0322 -1.1377,-0.717748 -2.4146,-1.076631 -3.8305,-1.07665 -2.0118,1.9e-5 -3.7427,0.69093 -5.1929,2.072735 -1.4502,1.38184 -2.1752,3.688947 -2.1752,6.921327 z"
         id="path4335"/>
    </g>
    <g
       transform="translate(17.685876,-17.669671)"
       id="16-1">
      <path
         d="m 1275.8069,-53.170655 c 0,-3.564408 0.957,-6.354908 2.871,-8.371509 1.9141,-2.016563 4.3848,-3.024854 7.4121,-3.024876 1.9824,2.2e-5 3.7695,0.47365 5.3613,1.420886 1.5917,0.947277 2.8051,2.268065 3.6401,3.962368 0.8349,1.694336 1.2524,3.615704 1.2524,5.76411 0,2.177724 -0.4395,4.125947 -1.3183,5.844676 -0.879,1.718738 -2.1241,3.019995 -3.7354,3.903774 -1.6113,0.883782 -3.3496,1.325672 -5.2148,1.325672 -2.0214,0 -3.8281,-0.488277 -5.4198,-1.464831 -1.5918,-0.976552 -2.7979,-2.309547 -3.6182,-3.998988 -0.8203,-1.689432 -1.2304,-3.476524 -1.2304,-5.361282 z m 2.9296,0.04394 c 0,2.587876 0.6958,4.626431 2.0874,6.11567 1.3916,1.489247 3.1372,2.233869 5.2368,2.233867 2.1386,2e-6 3.8989,-0.751944 5.2807,-2.25584 1.3818,-1.503887 2.0727,-3.637656 2.0727,-6.401311 0,-1.74802 -0.2954,-3.273884 -0.8862,-4.577597 -0.5908,-1.303683 -1.4551,-2.314416 -2.5927,-3.0322 -1.1377,-0.717748 -2.4146,-1.076632 -3.8306,-1.076651 -2.0117,1.9e-5 -3.7426,0.690931 -5.1928,2.072736 -1.4502,1.38184 -2.1753,3.688946 -2.1753,6.921326 z"
         id="path4338"/>
    </g>
    <g
       transform="translate(17.685876,-17.669671)"
       id="18-5">
      <path
         d="m 1346.0062,87.528556 c 0,-3.564408 0.957,-6.354908 2.8711,-8.371509 1.914,-2.016563 4.3847,-3.024854 7.412,-3.024876 1.9824,2.2e-5 3.7695,0.47365 5.3613,1.420886 1.5918,0.947277 2.8051,2.268065 3.6401,3.962368 0.8349,1.694336 1.2524,3.615704 1.2524,5.76411 0,2.177724 -0.4394,4.125947 -1.3183,5.844676 -0.8789,1.718738 -2.124,3.019995 -3.7353,3.903774 -1.6114,0.883782 -3.3496,1.325672 -5.2148,1.325672 -2.0215,0 -3.8281,-0.488276 -5.4199,-1.464831 -1.5918,-0.976552 -2.7978,-2.309546 -3.6181,-3.998988 -0.8203,-1.689432 -1.2305,-3.476524 -1.2305,-5.361282 z m 2.9297,0.04395 c 0,2.587876 0.6958,4.626431 2.0874,6.11567 1.3915,1.489247 3.1371,2.233869 5.2367,2.233867 2.1387,2e-6 3.8989,-0.751944 5.2807,-2.25584 1.3819,-1.503887 2.0728,-3.637655 2.0728,-6.401311 0,-1.748019 -0.2954,-3.273883 -0.8862,-4.577597 -0.5909,-1.303683 -1.4551,-2.314415 -2.5928,-3.0322 -1.1377,-0.717748 -2.4145,-1.076632 -3.8305,-1.076651 -2.0117,1.9e-5 -3.7427,0.690931 -5.1929,2.072736 -1.4501,1.38184 -2.1752,3.688946 -2.1752,6.921326 z"
         id="path4341"/>
    </g>
    <g
       transform="translate(17.685876,-17.669671)"
       id="20-7">
      <path
         d="m 1226.3074,-3.3709769 c 0,-3.5644081 0.957,-6.3549083 2.871,-8.3715091 1.9141,-2.016563 4.3847,-3.024854 7.4121,-3.024876 1.9824,2.2e-5 3.7695,0.47365 5.3613,1.420886 1.5917,0.947277 2.8051,2.268065 3.6401,3.9623679 0.8349,1.6943359 1.2524,3.615704 1.2524,5.7641099 0,2.177724 -0.4395,4.12594724 -1.3184,5.8446757 -0.8789,1.7187382 -2.124,3.0199951 -3.7353,3.9037746 -1.6113,0.8837814 -3.3496,1.3256717 -5.2148,1.325672 -2.0215,-3e-7 -3.8281,-0.4882769 -5.4198,-1.464831 -1.5918,-0.9765519 -2.7979,-2.3095468 -3.6182,-3.9989886 -0.8203,-1.6894316 -1.2304,-3.4765236 -1.2304,-5.3612814 z m 2.9296,0.043945 c 0,2.58787594 0.6958,4.6264304 2.0874,6.1156694 1.3916,1.4892477 3.1372,2.2338693 5.2368,2.2338673 2.1386,2e-6 3.8989,-0.7519438 5.2807,-2.2558397 1.3818,-1.5038874 2.0727,-3.63765572 2.0727,-6.4013115 0,-1.7480192 -0.2954,-3.2738832 -0.8862,-4.5775968 -0.5908,-1.303683 -1.4551,-2.3144158 -2.5927,-3.0321998 -1.1377,-0.717749 -2.4146,-1.076632 -3.8306,-1.076651 -2.0117,1.9e-5 -3.7426,0.69093 -5.1928,2.072736 -1.4502,1.3818396 -2.1753,3.6889461 -2.1753,6.9213261 z"
         id="path4344"/>
    </g>
    <g
       transform="translate(17.685876,-17.669671)"
       id="21-6">
      <path
         d="m 1228.9714,-42.711761 0,-21.474423 8.1005,0 c 1.4258,2.2e-5 2.5146,0.06838 3.2666,0.205077 1.0547,0.1758 1.9384,0.51027 2.6513,1.003409 0.7129,0.493179 1.2866,1.184091 1.7212,2.072736 0.4346,0.888681 0.6519,1.865234 0.6519,2.929662 0,1.826169 -0.5811,3.371564 -1.7432,4.63619 -1.1621,1.264646 -3.2617,1.896965 -6.2987,1.896956 l -5.5078,0 0,8.730393 z m 2.8418,-11.264551 5.5517,0 c 1.8359,1.1e-5 3.1396,-0.341782 3.9111,-1.025381 0.7715,-0.683575 1.1572,-1.64548 1.1572,-2.885718 0,-0.898413 -0.2271,-1.667449 -0.6811,-2.307108 -0.4541,-0.639625 -1.0523,-1.061984 -1.7945,-1.267079 -0.4785,-0.126933 -1.3623,-0.190409 -2.6513,-0.190428 l -5.4931,0 z"
         id="path4347"/>
    </g>
    <g
       transform="translate(17.685876,-17.669671)"
       id="22-1">
      <path
         d="m 1176.5077,-53.170655 c 0,-3.564408 0.957,-6.354908 2.871,-8.371509 1.9141,-2.016563 4.3848,-3.024854 7.4121,-3.024876 1.9824,2.2e-5 3.7695,0.47365 5.3613,1.420886 1.5917,0.947277 2.8051,2.268065 3.6401,3.962368 0.8349,1.694336 1.2524,3.615704 1.2524,5.76411 0,2.177724 -0.4395,4.125947 -1.3183,5.844676 -0.879,1.718738 -2.1241,3.019995 -3.7354,3.903774 -1.6113,0.883782 -3.3496,1.325672 -5.2148,1.325672 -2.0214,0 -3.8281,-0.488277 -5.4198,-1.464831 -1.5918,-0.976552 -2.7979,-2.309547 -3.6182,-3.998988 -0.8203,-1.689432 -1.2304,-3.476524 -1.2304,-5.361282 z m 2.9296,0.04394 c 0,2.587876 0.6958,4.626431 2.0874,6.11567 1.3916,1.489247 3.1372,2.233869 5.2368,2.233867 2.1386,2e-6 3.8989,-0.751944 5.2807,-2.25584 1.3818,-1.503887 2.0727,-3.637656 2.0727,-6.401311 0,-1.74802 -0.2954,-3.273884 -0.8862,-4.577597 -0.5908,-1.303683 -1.4551,-2.314416 -2.5927,-3.0322 -1.1377,-0.717748 -2.4146,-1.076632 -3.8306,-1.076651 -2.0117,1.9e-5 -3.7426,0.690931 -5.1928,2.072736 -1.4502,1.38184 -2.1753,3.688946 -2.1753,6.921326 z"
         id="path4350"/>
    </g>
    <g
       transform="translate(17.685876,-17.669671)"
       id="24-2">
      <path
         d="m 1553.8387,138.48721 0,-21.47442 2.915,0 11.2792,16.86021 0,-16.86021 2.7246,0 0,21.47442 -2.915,0 -11.2792,-16.87485 0,16.87485 z"
         id="path4353"/>
    </g>
    <g
       transform="translate(17.685876,-17.669671)"
       id="25-3">
      <path
         d="m 1498.1042,156.22815 c 0,-3.56441 0.9571,-6.35491 2.8711,-8.37151 1.914,-2.01656 4.3847,-3.02485 7.412,-3.02488 1.9824,3e-5 3.7695,0.47365 5.3613,1.42089 1.5918,0.94728 2.8052,2.26806 3.6401,3.96237 0.835,1.69433 1.2524,3.6157 1.2525,5.76411 -10e-5,2.17772 -0.4395,4.12594 -1.3184,5.84467 -0.8789,1.71874 -2.124,3.02 -3.7353,3.90378 -1.6113,0.88378 -3.3496,1.32567 -5.2148,1.32567 -2.0215,0 -3.8281,-0.48828 -5.4199,-1.46483 -1.5918,-0.97655 -2.7978,-2.30955 -3.6181,-3.99899 -0.8203,-1.68943 -1.2305,-3.47652 -1.2305,-5.36128 z m 2.9297,0.0439 c 0,2.58788 0.6958,4.62643 2.0874,6.11567 1.3916,1.48925 3.1372,2.23387 5.2368,2.23387 2.1386,0 3.8988,-0.75194 5.2807,-2.25584 1.3818,-1.50389 2.0727,-3.63765 2.0727,-6.40131 0,-1.74802 -0.2954,-3.27388 -0.8862,-4.5776 -0.5909,-1.30368 -1.4551,-2.31441 -2.5928,-3.0322 -1.1377,-0.71775 -2.4145,-1.07663 -3.8305,-1.07665 -2.0117,2e-5 -3.7427,0.69093 -5.1928,2.07274 -1.4502,1.38184 -2.1753,3.68894 -2.1753,6.92132 z"
         id="path4356"/>
    </g>
    <g
       transform="translate(17.685876,-17.669671)"
       id="26-2">
      <path
         d="m 1395.5051,137.32825 c 0,-3.56441 0.957,-6.35491 2.8711,-8.37151 1.914,-2.01657 4.3847,-3.02486 7.412,-3.02488 1.9824,2e-5 3.7695,0.47365 5.3613,1.42089 1.5918,0.94727 2.8051,2.26806 3.6401,3.96237 0.8349,1.69433 1.2524,3.6157 1.2524,5.76411 0,2.17772 -0.4394,4.12594 -1.3183,5.84467 -0.8789,1.71874 -2.124,3.02 -3.7353,3.90378 -1.6114,0.88378 -3.3496,1.32567 -5.2148,1.32567 -2.0215,0 -3.8281,-0.48828 -5.4199,-1.46483 -1.5918,-0.97656 -2.7978,-2.30955 -3.6181,-3.99899 -0.8203,-1.68943 -1.2305,-3.47653 -1.2305,-5.36128 z m 2.9297,0.0439 c 0,2.58788 0.6958,4.62643 2.0874,6.11567 1.3915,1.48925 3.1371,2.23387 5.2367,2.23387 2.1387,0 3.8989,-0.75195 5.2807,-2.25584 1.3819,-1.50389 2.0728,-3.63766 2.0728,-6.40131 0,-1.74802 -0.2954,-3.27389 -0.8862,-4.5776 -0.5909,-1.30368 -1.4551,-2.31442 -2.5928,-3.0322 -1.1377,-0.71775 -2.4145,-1.07663 -3.8305,-1.07665 -2.0117,2e-5 -3.7427,0.69093 -5.1928,2.07274 -1.4502,1.38183 -2.1753,3.68894 -2.1753,6.92132 z"
         id="path4359"/>
    </g>
    <g
       transform="translate(17.685876,-17.669671)"
       id="29-6">
      <path
         d="m 1465.4045,278.02753 c 0,-3.56441 0.957,-6.35491 2.8711,-8.37151 1.914,-2.01657 4.3847,-3.02486 7.412,-3.02488 1.9824,2e-5 3.7695,0.47365 5.3613,1.42089 1.5918,0.94727 2.8052,2.26806 3.6401,3.96237 0.835,1.69433 1.2524,3.6157 1.2525,5.76411 -10e-5,2.17772 -0.4395,4.12594 -1.3184,5.84467 -0.8789,1.71874 -2.124,3.02 -3.7353,3.90378 -1.6113,0.88378 -3.3496,1.32567 -5.2148,1.32567 -2.0215,0 -3.8281,-0.48828 -5.4199,-1.46483 -1.5918,-0.97656 -2.7978,-2.30955 -3.6181,-3.99899 -0.8203,-1.68943 -1.2305,-3.47653 -1.2305,-5.36128 z m 2.9297,0.0439 c 0,2.58788 0.6958,4.62643 2.0874,6.11567 1.3916,1.48925 3.1371,2.23387 5.2367,2.23387 2.1387,0 3.8989,-0.75195 5.2808,-2.25584 1.3818,-1.50389 2.0727,-3.63766 2.0727,-6.40131 0,-1.74802 -0.2954,-3.27389 -0.8862,-4.5776 -0.5909,-1.30368 -1.4551,-2.31442 -2.5928,-3.0322 -1.1377,-0.71775 -2.4145,-1.07663 -3.8305,-1.07665 -2.0117,2e-5 -3.7427,0.69093 -5.1928,2.07273 -1.4502,1.38184 -2.1753,3.68895 -2.1753,6.92133 z"
         id="path4362"/>
    </g>
    <g
       transform="translate(17.685876,-17.669671)"
       id="30-8">
      <path
         d="m 1345.7056,186.828 c 0,-3.56441 0.957,-6.35491 2.871,-8.37151 1.9141,-2.01656 4.3847,-3.02485 7.4121,-3.02487 1.9824,2e-5 3.7695,0.47365 5.3612,1.42088 1.5918,0.94728 2.8052,2.26807 3.6402,3.96237 0.8349,1.69434 1.2524,3.61571 1.2524,5.76411 0,2.17773 -0.4395,4.12595 -1.3184,5.84468 -0.8789,1.71874 -2.124,3.01999 -3.7353,3.90377 -1.6113,0.88378 -3.3496,1.32567 -5.2148,1.32567 -2.0215,0 -3.8281,-0.48827 -5.4199,-1.46483 -1.5917,-0.97655 -2.7978,-2.30954 -3.6181,-3.99899 -0.8203,-1.68943 -1.2304,-3.47652 -1.2304,-5.36128 z m 2.9296,0.0439 c 0,2.58787 0.6958,4.62643 2.0874,6.11567 1.3916,1.48924 3.1372,2.23387 5.2368,2.23386 2.1386,1e-5 3.8988,-0.75194 5.2807,-2.25584 1.3818,-1.50388 2.0727,-3.63765 2.0727,-6.40131 0,-1.74802 -0.2954,-3.27388 -0.8862,-4.57759 -0.5908,-1.30369 -1.4551,-2.31442 -2.5928,-3.0322 -1.1377,-0.71775 -2.4145,-1.07664 -3.8305,-1.07665 -2.0117,1e-5 -3.7426,0.69093 -5.1928,2.07273 -1.4502,1.38184 -2.1753,3.68895 -2.1753,6.92133 z"
         id="path4365"/>
    </g>
    <g
       transform="translate(17.685876,-17.669671)"
       id="31-5">
      <path
         d="m 1348.3699,147.78714 0,-21.47442 8.1005,0 c 1.4257,2e-5 2.5146,0.0684 3.2665,0.20507 1.0547,0.1758 1.9385,0.51027 2.6514,1.00341 0.7129,0.49318 1.2866,1.18409 1.7212,2.07274 0.4345,0.88868 0.6518,1.86523 0.6518,2.92966 0,1.82617 -0.5811,3.37157 -1.7431,4.63619 -1.1622,1.26465 -3.2617,1.89697 -6.2988,1.89696 l -5.5078,0 0,8.73039 z m 2.8417,-11.26455 5.5517,0 c 1.8359,1e-5 3.1396,-0.34178 3.9111,-1.02538 0.7715,-0.68358 1.1572,-1.64548 1.1572,-2.88572 0,-0.89841 -0.227,-1.66745 -0.6811,-2.30711 -0.4541,-0.63962 -1.0522,-1.06198 -1.7944,-1.26708 -0.4785,-0.12693 -1.3623,-0.19041 -2.6514,-0.19042 l -5.4931,0 z"
         id="path4368"/>
    </g>
    <g
       transform="translate(17.685876,-17.669671)"
       id="32-7">
      <path
         d="m 1295.906,137.32825 c 0,-3.56441 0.957,-6.35491 2.8711,-8.37151 1.914,-2.01657 4.3847,-3.02486 7.412,-3.02488 1.9824,2e-5 3.7695,0.47365 5.3613,1.42089 1.5918,0.94727 2.8051,2.26806 3.6401,3.96237 0.8349,1.69433 1.2524,3.6157 1.2524,5.76411 0,2.17772 -0.4394,4.12594 -1.3183,5.84467 -0.8789,1.71874 -2.124,3.02 -3.7353,3.90378 -1.6114,0.88378 -3.3496,1.32567 -5.2148,1.32567 -2.0215,0 -3.8281,-0.48828 -5.4199,-1.46483 -1.5918,-0.97656 -2.7978,-2.30955 -3.6181,-3.99899 -0.8204,-1.68943 -1.2305,-3.47653 -1.2305,-5.36128 z m 2.9297,0.0439 c 0,2.58788 0.6957,4.62643 2.0873,6.11567 1.3916,1.48925 3.1372,2.23387 5.2368,2.23387 2.1386,0 3.8989,-0.75195 5.2807,-2.25584 1.3818,-1.50389 2.0727,-3.63766 2.0728,-6.40131 -10e-5,-1.74802 -0.2955,-3.27389 -0.8863,-4.5776 -0.5908,-1.30368 -1.455,-2.31442 -2.5927,-3.0322 -1.1377,-0.71775 -2.4146,-1.07663 -3.8305,-1.07665 -2.0118,2e-5 -3.7427,0.69093 -5.1929,2.07274 -1.4502,1.38183 -2.1752,3.68894 -2.1752,6.92132 z"
         id="path4371"/>
    </g>
    <g
       transform="translate(17.685876,-17.669671)"
       id="34-1">
      <path
         d="m 1673.5378,328.68616 0,-21.47443 2.915,0 11.2792,16.86021 0,-16.86021 2.7246,0 0,21.47443 -2.915,0 -11.2792,-16.87486 0,16.87486 z"
         id="path4374"/>
    </g>
    <g
       transform="translate(17.685876,-17.669671)"
       id="35-8">
      <path
         d="m 1617.8032,346.72732 c 0,-3.5644 0.957,-6.3549 2.8711,-8.3715 1.914,-2.01657 4.3847,-3.02486 7.412,-3.02488 1.9824,2e-5 3.7695,0.47365 5.3613,1.42089 1.5918,0.94727 2.8051,2.26806 3.6401,3.96236 0.8349,1.69434 1.2524,3.61571 1.2524,5.76411 0,2.17773 -0.4394,4.12595 -1.3183,5.84468 -0.8789,1.71874 -2.124,3.01999 -3.7353,3.90377 -1.6114,0.88379 -3.3496,1.32568 -5.2148,1.32568 -2.0215,0 -3.8281,-0.48828 -5.4199,-1.46483 -1.5918,-0.97656 -2.7978,-2.30955 -3.6181,-3.99899 -0.8203,-1.68944 -1.2305,-3.47653 -1.2305,-5.36129 z m 2.9297,0.0439 c 0,2.58788 0.6958,4.62643 2.0874,6.11567 1.3915,1.48925 3.1371,2.23387 5.2367,2.23387 2.1387,0 3.8989,-0.75195 5.2807,-2.25584 1.3818,-1.50389 2.0728,-3.63766 2.0728,-6.40131 0,-1.74802 -0.2954,-3.27389 -0.8862,-4.5776 -0.5909,-1.30368 -1.4551,-2.31442 -2.5928,-3.0322 -1.1377,-0.71775 -2.4145,-1.07663 -3.8305,-1.07665 -2.0117,2e-5 -3.7427,0.69093 -5.1929,2.07273 -1.4501,1.38184 -2.1752,3.68895 -2.1752,6.92133 z"
         id="path4377"/>
    </g>
    <g
       transform="translate(17.685876,-17.669671)"
       id="36-9">
      <path
         d="m 1515.2042,327.52725 c 0,-3.56441 0.957,-6.35491 2.8711,-8.37151 1.914,-2.01656 4.3847,-3.02485 7.412,-3.02487 1.9824,2e-5 3.7695,0.47365 5.3613,1.42088 1.5918,0.94728 2.8051,2.26807 3.6401,3.96237 0.8349,1.69434 1.2524,3.6157 1.2524,5.76411 0,2.17772 -0.4394,4.12595 -1.3183,5.84468 -0.8789,1.71873 -2.124,3.01999 -3.7353,3.90377 -1.6114,0.88378 -3.3496,1.32567 -5.2148,1.32567 -2.0215,0 -3.8281,-0.48827 -5.4199,-1.46483 -1.5918,-0.97655 -2.7978,-2.30955 -3.6181,-3.99899 -0.8203,-1.68943 -1.2305,-3.47652 -1.2305,-5.36128 z m 2.9297,0.0439 c 0,2.58787 0.6958,4.62643 2.0874,6.11567 1.3915,1.48924 3.1371,2.23387 5.2367,2.23386 2.1387,10e-6 3.8989,-0.75194 5.2807,-2.25584 1.3818,-1.50388 2.0728,-3.63765 2.0728,-6.40131 0,-1.74802 -0.2954,-3.27388 -0.8862,-4.57759 -0.5909,-1.30369 -1.4551,-2.31442 -2.5928,-3.0322 -1.1377,-0.71775 -2.4145,-1.07664 -3.8305,-1.07666 -2.0117,2e-5 -3.7427,0.69094 -5.1929,2.07274 -1.4501,1.38184 -2.1752,3.68895 -2.1752,6.92133 z"
         id="path4380"/>
    </g>
    <g
       transform="translate(17.685876,-17.669671)"
       id="39-9">
      <path
         d="m 1585.1035,468.22665 c 0,-3.5644 0.957,-6.3549 2.8711,-8.37151 1.914,-2.01656 4.3847,-3.02485 7.412,-3.02487 1.9824,2e-5 3.7695,0.47365 5.3613,1.42088 1.5918,0.94728 2.8051,2.26807 3.6401,3.96237 0.8349,1.69434 1.2524,3.61571 1.2524,5.76411 0,2.17773 -0.4394,4.12595 -1.3183,5.84468 -0.8789,1.71874 -2.124,3.01999 -3.7353,3.90377 -1.6114,0.88378 -3.3496,1.32567 -5.2148,1.32567 -2.0215,0 -3.8281,-0.48827 -5.4199,-1.46483 -1.5918,-0.97655 -2.7978,-2.30954 -3.6181,-3.99898 -0.8203,-1.68944 -1.2305,-3.47653 -1.2305,-5.36129 z m 2.9297,0.0439 c 0,2.58787 0.6958,4.62643 2.0873,6.11567 1.3916,1.48925 3.1372,2.23387 5.2368,2.23387 2.1387,0 3.8989,-0.75195 5.2807,-2.25584 1.3818,-1.50389 2.0728,-3.63766 2.0728,-6.40132 0,-1.74802 -0.2955,-3.27388 -0.8863,-4.57759 -0.5908,-1.30369 -1.455,-2.31442 -2.5927,-3.0322 -1.1377,-0.71775 -2.4145,-1.07663 -3.8305,-1.07665 -2.0117,2e-5 -3.7427,0.69093 -5.1929,2.07273 -1.4501,1.38184 -2.1752,3.68895 -2.1752,6.92133 z"
         id="path4383"/>
    </g>
    <g
       transform="translate(17.685876,-17.669671)"
       id="40-5">
      <path
         d="m 1609.4555,478.68555 0,-21.47443 2.8418,0 0,8.81829 11.162,0 0,-8.81829 2.8418,0 0,21.47443 -2.8418,0 0,-10.12199 -11.162,0 0,10.12199 z"
         id="path4386"/>
    </g>
    <g
       transform="translate(17.685876,-17.669671)"
       id="41-4">
      <path
         d="m 1465.4045,377.32718 c 0,-3.56441 0.957,-6.35491 2.8711,-8.37151 1.914,-2.01656 4.3847,-3.02485 7.412,-3.02488 1.9824,3e-5 3.7695,0.47365 5.3613,1.42089 1.5918,0.94728 2.8052,2.26806 3.6401,3.96237 0.835,1.69433 1.2524,3.6157 1.2525,5.76411 -10e-5,2.17772 -0.4395,4.12594 -1.3184,5.84467 -0.8789,1.71874 -2.124,3.02 -3.7353,3.90378 -1.6113,0.88378 -3.3496,1.32567 -5.2148,1.32567 -2.0215,0 -3.8281,-0.48828 -5.4199,-1.46483 -1.5918,-0.97655 -2.7978,-2.30955 -3.6181,-3.99899 -0.8203,-1.68943 -1.2305,-3.47652 -1.2305,-5.36128 z m 2.9297,0.0439 c 0,2.58788 0.6958,4.62643 2.0874,6.11567 1.3916,1.48925 3.1371,2.23387 5.2367,2.23387 2.1387,0 3.8989,-0.75194 5.2808,-2.25584 1.3818,-1.50389 2.0727,-3.63766 2.0727,-6.40131 0,-1.74802 -0.2954,-3.27388 -0.8862,-4.5776 -0.5909,-1.30368 -1.4551,-2.31441 -2.5928,-3.0322 -1.1377,-0.71775 -2.4145,-1.07663 -3.8305,-1.07665 -2.0117,2e-5 -3.7427,0.69093 -5.1928,2.07274 -1.4502,1.38184 -2.1753,3.68894 -2.1753,6.92132 z"
         id="path4389"/>
    </g>
    <g
       transform="translate(17.685876,-17.669671)"
       id="42-3">
      <path
         d="m 1468.0688,337.98615 0,-21.47443 8.1005,0 c 1.4258,2e-5 2.5147,0.0684 3.2666,0.20508 1.0547,0.1758 1.9385,0.51027 2.6514,1.00341 0.7128,0.49318 1.2866,1.18409 1.7211,2.07273 0.4346,0.88869 0.6519,1.86524 0.6519,2.92967 0,1.82617 -0.5811,3.37156 -1.7432,4.63619 -1.1621,1.26464 -3.2617,1.89696 -6.2987,1.89695 l -5.5078,0 0,8.7304 z m 2.8418,-11.26456 5.5517,0 c 1.8359,2e-5 3.1396,-0.34178 3.9111,-1.02538 0.7715,-0.68357 1.1572,-1.64548 1.1572,-2.88571 0,-0.89842 -0.227,-1.66745 -0.6811,-2.30711 -0.4541,-0.63963 -1.0523,-1.06199 -1.7944,-1.26708 -0.4786,-0.12693 -1.3623,-0.19041 -2.6514,-0.19043 l -5.4931,0 z"
         id="path4392"/>
    </g>
    <g
       transform="translate(17.685876,-17.669671)"
       id="43-1">
      <path
         d="m 1415.905,327.52725 c 0,-3.56441 0.957,-6.35491 2.8711,-8.37151 1.914,-2.01656 4.3847,-3.02485 7.412,-3.02487 1.9824,2e-5 3.7695,0.47365 5.3613,1.42088 1.5918,0.94728 2.8051,2.26807 3.6401,3.96237 0.8349,1.69434 1.2524,3.6157 1.2524,5.76411 0,2.17772 -0.4394,4.12595 -1.3183,5.84468 -0.8789,1.71873 -2.124,3.01999 -3.7353,3.90377 -1.6113,0.88378 -3.3496,1.32567 -5.2148,1.32567 -2.0215,0 -3.8281,-0.48827 -5.4199,-1.46483 -1.5918,-0.97655 -2.7978,-2.30955 -3.6181,-3.99899 -0.8203,-1.68943 -1.2305,-3.47652 -1.2305,-5.36128 z m 2.9297,0.0439 c 0,2.58787 0.6958,4.62643 2.0874,6.11567 1.3915,1.48924 3.1371,2.23387 5.2367,2.23386 2.1387,10e-6 3.8989,-0.75194 5.2807,-2.25584 1.3819,-1.50388 2.0728,-3.63765 2.0728,-6.40131 0,-1.74802 -0.2954,-3.27388 -0.8862,-4.57759 -0.5909,-1.30369 -1.4551,-2.31442 -2.5928,-3.0322 -1.1377,-0.71775 -2.4145,-1.07664 -3.8305,-1.07666 -2.0117,2e-5 -3.7427,0.69094 -5.1928,2.07274 -1.4502,1.38184 -2.1753,3.68895 -2.1753,6.92133 z"
         id="path4395"/>
    </g>
    <g
       transform="translate(17.685876,-17.669671)"
       id="45-3">
      <path
         d="m 1409.5406,-127.91135 0,-21.47442 2.915,0 11.2792,16.86021 0,-16.86021 2.7246,0 0,21.47442 -2.915,0 -11.2792,-16.87485 0,16.87485 z"
         id="path4398"/>
    </g>
    <g
       transform="translate(17.685876,-17.669671)"
       id="46-3">
      <path
         d="m 1528.9389,62.287624 0,-21.474422 2.9151,0 11.2792,16.860205 0,-16.860205 2.7245,0 0,21.474422 -2.915,0 -11.2792,-16.874853 0,16.874853 z"
         id="path4401"/>
    </g>
    <g
       transform="translate(17.685876,-17.669671)"
       id="47-4">
      <path
         d="m 1716.4374,254.58658 0,-21.47442 2.915,0 11.2792,16.8602 0,-16.8602 2.7246,0 0,21.47442 -2.9151,0 -11.2792,-16.87485 0,16.87485 z"
         id="path4404"/>
    </g>
    <g
       transform="translate(17.685876,-17.669671)"
       id="48-1">
      <path
         d="m 1738.1544,254.58658 0,-21.47442 2.8418,0 0,8.81828 11.162,0 0,-8.81828 2.8418,0 0,21.47442 -2.8418,0 0,-10.12198 -11.162,0 0,10.12198 z"
         id="path4407"/>
    </g>
    <g
       transform="translate(17.685876,-17.669671)"
       id="49-1">
      <path
         d="m 1357.341,-316.61041 0,-21.47442 2.9151,0 11.2792,16.8602 0,-16.8602 2.7245,0 0,21.47442 -2.915,0 -11.2792,-16.87486 0,16.87486 z"
         id="path4410"/>
    </g>
    <g
       transform="translate(17.685876,-17.669671)"
       id="50-3">
      <path
         d="m 1314.4414,-390.71002 0,-21.47442 2.915,0 11.2792,16.8602 0,-16.8602 2.7246,0 0,21.47442 -2.915,0 -11.2792,-16.87485 0,16.87485 z"
         id="path4413"/>
    </g>
    <g
       transform="translate(17.685876,-17.669671)"
       id="51-8">
      <path
         d="m 1336.1584,-390.71002 0,-21.47442 2.8418,0 0,8.81828 11.162,0 0,-8.81828 2.8418,0 0,21.47442 -2.8418,0 0,-10.12198 -11.162,0 0,10.12198 z"
         id="path4416"/>
    </g>
    <g
       transform="translate(17.685876,-17.669671)"
       id="52-7">
      <path
         d="m 1367.2869,-380.20206 0,2.00199 -11.2135,0 c -0.015,-0.50146 0.066,-0.98364 0.243,-1.44652 0.2855,-0.76376 0.7426,-1.51595 1.3713,-2.25658 0.6288,-0.74061 1.5372,-1.59695 2.7253,-2.56902 1.8438,-1.51209 3.0898,-2.7098 3.7378,-3.59315 0.648,-0.88334 0.9721,-1.71846 0.9721,-2.50538 0,-0.82547 -0.2951,-1.52172 -0.8853,-2.08877 -0.5902,-0.56703 -1.3597,-0.85054 -2.3087,-0.85056 -1.0029,2e-5 -1.8052,0.30089 -2.407,0.90263 -0.6017,0.60177 -0.9065,1.43496 -0.9142,2.49959 l -2.1408,-0.21987 c 0.1466,-1.59695 0.6982,-2.81395 1.6548,-3.65102 0.9566,-0.83704 2.2411,-1.25556 3.8535,-1.25558 1.6278,2e-5 2.9162,0.45133 3.8651,1.35394 0.9489,0.90265 1.4234,2.02129 1.4234,3.35593 0,0.67891 -0.1389,1.34624 -0.4166,2.00199 -0.2777,0.65576 -0.7387,1.34623 -1.3829,2.07141 -0.6441,0.7252 -1.7146,1.7204 -3.2112,2.98562 -1.2498,1.04922 -2.0522,1.7609 -2.407,2.13507 -0.3549,0.37417 -0.6481,0.75026 -0.8795,1.12828 z"
         id="path4419"/>
    </g>
    <g
       transform="translate(17.685876,-17.669671)"
       id="53-4">
      <path
         d="m 1522.6396,-70.611633 0,-21.474423 2.915,0 11.2792,16.860205 0,-16.860205 2.7246,0 0,21.474423 -2.915,0 -11.2792,-16.874853 0,16.874853 z"
         id="path4422"/>
    </g>
    <g
       transform="translate(17.685876,-17.669671)"
       id="54-2">
      <path
         d="m 1540.3395,-154.61121 0,-21.47442 2.915,0 11.2792,16.86021 0,-16.86021 2.7246,0 0,21.47442 -2.9151,0 -11.2792,-16.87485 0,16.87485 z"
         id="path4425"/>
    </g>
    <g
       transform="translate(17.685876,-17.669671)"
       id="55-7">
      <path
         d="m 1562.0565,-154.61121 0,-21.47442 2.8418,0 0,8.81828 11.162,0 0,-8.81828 2.8418,0 0,21.47442 -2.8418,0 0,-10.12198 -11.162,0 0,10.12198 z"
         id="path4428"/>
    </g>
    <g
       transform="translate(17.685876,-17.669671)"
       id="56-7">
      <path
         d="m 1642.0381,119.58731 0,-21.474422 2.915,0 11.2792,16.860202 0,-16.860202 2.7246,0 0,21.474422 -2.915,0 -11.2792,-16.87485 0,16.87485 z"
         id="path4431"/>
    </g>
    <g
       transform="translate(17.685876,-17.669671)"
       id="57-9">
      <path
         d="m 1660.0378,35.887783 0,-21.474422 2.915,0 11.2792,16.860204 0,-16.860204 2.7246,0 0,21.474422 -2.915,0 -11.2792,-16.874853 0,16.874853 z"
         id="path4434"/>
    </g>
    <g
       transform="translate(17.685876,-17.669671)"
       id="58-3">
      <path
         d="m 1604.239,-97.311523 0,-21.474427 2.915,0 11.2792,16.86021 0,-16.86021 2.7246,0 0,21.474427 -2.915,0 -11.2792,-16.874857 0,16.874857 z"
         id="path4437"/>
    </g>
    <g
       transform="translate(17.685876,-17.669671)"
       id="59-1">
      <path
         d="m 1625.9559,-97.311523 0,-21.474427 2.8418,0 0,8.81829 11.162,0 0,-8.81829 2.8418,0 0,21.474427 -2.8418,0 0,-10.121987 -11.162,0 0,10.121987 z"
         id="path4440"/>
    </g>
    <g
       transform="translate(17.685876,-17.669671)"
       id="60-9">
      <path
         d="m 1657.0842,-86.803529 0,2.001985 -11.2134,0 c -0.015,-0.50146 0.066,-0.983633 0.243,-1.446521 0.2855,-0.763761 0.7426,-1.515951 1.3713,-2.256572 0.6288,-0.740614 1.5372,-1.596954 2.7253,-2.569021 1.8438,-1.512088 3.0897,-2.709806 3.7378,-3.593157 0.648,-0.883331 0.972,-1.718455 0.972,-2.505374 0,-0.825468 -0.2951,-1.521726 -0.8852,-2.088776 -0.5902,-0.567021 -1.3598,-0.850535 -2.3087,-0.850555 -1.0029,2e-5 -1.8053,0.300892 -2.407,0.90263 -0.6018,0.601766 -0.9065,1.434961 -0.9142,2.499588 l -2.1409,-0.219872 c 0.1466,-1.596945 0.6982,-2.813949 1.6549,-3.651016 0.9566,-0.83704 2.2411,-1.25556 3.8535,-1.25558 1.6278,2e-5 2.9162,0.45133 3.8651,1.35394 0.9489,0.902645 1.4234,2.021287 1.4234,3.35593 0,0.678912 -0.1389,1.346239 -0.4166,2.001984 -0.2778,0.655766 -0.7387,1.346238 -1.3829,2.071418 -0.6442,0.725196 -1.7146,1.720402 -3.2113,2.985619 -1.2498,1.049213 -2.0521,1.760901 -2.407,2.135064 -0.3549,0.37417 -0.648,0.750265 -0.8795,1.128286 z"
         id="path4443"/>
    </g>
    <g
       transform="translate(17.685876,-17.669671)"
       id="61-8">
      <path
         d="m 1596.1384,-21.711945 0,-21.474422 2.915,0 11.2792,16.860205 0,-16.860205 2.7246,0 0,21.474422 -2.915,0 -11.2792,-16.874853 0,16.874853 z"
         id="path4446"/>
    </g>
    <g
       transform="translate(17.685876,-17.669671)"
       id="62-6">
      <path
         d="m 1561.4559,-21.711945 0,-21.474422 2.8418,0 0,8.818283 11.162,0 0,-8.818283 2.8418,0 0,21.474422 -2.8418,0 0,-10.121982 -11.162,0 0,10.121982 z"
         id="path4449"/>
    </g>
    <g
       transform="translate(17.685876,-17.669671)"
       id="63-5">
      <path
         d="m 1592.5842,-11.203954 0,2.0019849 -11.2134,0 c -0.015,-0.50146 0.066,-0.9836329 0.243,-1.4465209 0.2855,-0.763761 0.7426,-1.515951 1.3713,-2.256572 0.6288,-0.740614 1.5372,-1.596954 2.7253,-2.569021 1.8438,-1.512088 3.0897,-2.709806 3.7378,-3.593157 0.648,-0.883331 0.972,-1.718455 0.972,-2.505374 0,-0.825468 -0.2951,-1.521726 -0.8852,-2.088776 -0.5902,-0.567021 -1.3598,-0.850539 -2.3087,-0.850554 -1.0029,1.5e-5 -1.8053,0.300891 -2.407,0.902629 -0.6018,0.601766 -0.9065,1.434961 -0.9142,2.499588 l -2.1409,-0.219872 c 0.1466,-1.596945 0.6982,-2.813949 1.6549,-3.651018 0.9566,-0.837036 2.2411,-1.255563 3.8535,-1.25558 1.6278,1.7e-5 2.9162,0.451331 3.8651,1.353944 0.9489,0.902643 1.4234,2.021285 1.4234,3.355928 0,0.678912 -0.1389,1.346239 -0.4166,2.001984 -0.2778,0.655766 -0.7387,1.346238 -1.3829,2.071418 -0.6442,0.725196 -1.7146,1.720402 -3.2113,2.985619 -1.2498,1.049213 -2.0521,1.760901 -2.407,2.135064 -0.3549,0.37417 -0.648,0.750265 -0.8795,1.128286 z"
         id="path4452"/>
    </g>
    <g
       transform="translate(17.685876,-17.669671)"
       id="64-0">
      <path
         d="m 1398.5056,-252.66963 c 0,-3.56441 0.957,-6.35491 2.8711,-8.37151 1.914,-2.01656 4.3847,-3.02486 7.412,-3.02488 1.9824,2e-5 3.7695,0.47365 5.3613,1.42089 1.5918,0.94728 2.8051,2.26806 3.6401,3.96237 0.8349,1.69433 1.2524,3.6157 1.2524,5.76411 0,2.17772 -0.4394,4.12594 -1.3183,5.84467 -0.8789,1.71874 -2.124,3.02 -3.7353,3.90378 -1.6114,0.88378 -3.3496,1.32567 -5.2148,1.32567 -2.0215,0 -3.8281,-0.48828 -5.4199,-1.46483 -1.5918,-0.97655 -2.7978,-2.30955 -3.6181,-3.99899 -0.8203,-1.68943 -1.2305,-3.47652 -1.2305,-5.36128 z m 2.9297,0.0439 c 0,2.58788 0.6958,4.62643 2.0873,6.11567 1.3916,1.48925 3.1372,2.23387 5.2368,2.23387 2.1387,0 3.8989,-0.75194 5.2807,-2.25584 1.3818,-1.50389 2.0728,-3.63766 2.0728,-6.40131 0,-1.74802 -0.2955,-3.27389 -0.8863,-4.5776 -0.5908,-1.30368 -1.455,-2.31441 -2.5927,-3.0322 -1.1377,-0.71775 -2.4145,-1.07663 -3.8305,-1.07665 -2.0117,2e-5 -3.7427,0.69093 -5.1929,2.07274 -1.4501,1.38184 -2.1752,3.68894 -2.1752,6.92132 z"
         id="path4455"/>
    </g>
    <g
       transform="translate(17.685876,-17.669671)"
       id="65-2">
      <path
         d="m 1475.0051,-222.3698 c 0,-3.56441 0.957,-6.35491 2.8711,-8.37151 1.914,-2.01656 4.3847,-3.02485 7.412,-3.02487 1.9824,2e-5 3.7695,0.47365 5.3613,1.42088 1.5918,0.94728 2.8051,2.26807 3.6401,3.96237 0.8349,1.69434 1.2524,3.61571 1.2524,5.76411 0,2.17773 -0.4394,4.12595 -1.3183,5.84468 -0.8789,1.71874 -2.124,3.01999 -3.7353,3.90377 -1.6114,0.88378 -3.3496,1.32567 -5.2148,1.32567 -2.0215,0 -3.8281,-0.48827 -5.4199,-1.46483 -1.5918,-0.97655 -2.7978,-2.30954 -3.6181,-3.99899 -0.8203,-1.68943 -1.2305,-3.47652 -1.2305,-5.36128 z m 2.9297,0.0439 c 0,2.58787 0.6958,4.62643 2.0874,6.11567 1.3915,1.48924 3.1371,2.23387 5.2367,2.23386 2.1387,1e-5 3.8989,-0.75194 5.2807,-2.25584 1.3819,-1.50388 2.0728,-3.63765 2.0728,-6.40131 0,-1.74802 -0.2954,-3.27388 -0.8862,-4.57759 -0.5909,-1.30369 -1.4551,-2.31442 -2.5928,-3.0322 -1.1377,-0.71775 -2.4145,-1.07664 -3.8305,-1.07665 -2.0117,1e-5 -3.7427,0.69093 -5.1928,2.07273 -1.4502,1.38184 -2.1753,3.68895 -2.1753,6.92133 z"
         id="path4458"/>
    </g>
    <g
       transform="translate(17.685876,-17.669671)"
       id="66-8">
      <path
         d="m 1671.8027,169.72809 c 0,-3.56441 0.957,-6.35491 2.8711,-8.37151 1.914,-2.01656 4.3847,-3.02486 7.412,-3.02488 1.9824,2e-5 3.7695,0.47365 5.3613,1.42089 1.5918,0.94728 2.8051,2.26806 3.6401,3.96237 0.835,1.69433 1.2524,3.6157 1.2525,5.76411 -10e-5,2.17772 -0.4395,4.12594 -1.3184,5.84467 -0.8789,1.71874 -2.124,3.02 -3.7353,3.90378 -1.6113,0.88378 -3.3496,1.32567 -5.2148,1.32567 -2.0215,0 -3.8281,-0.48828 -5.4199,-1.46483 -1.5918,-0.97655 -2.7978,-2.30955 -3.6181,-3.99899 -0.8203,-1.68943 -1.2305,-3.47652 -1.2305,-5.36128 z m 2.9297,0.0439 c 0,2.58788 0.6958,4.62643 2.0874,6.11567 1.3915,1.48925 3.1371,2.23387 5.2367,2.23387 2.1387,0 3.8989,-0.75194 5.2808,-2.25584 1.3818,-1.50389 2.0727,-3.63766 2.0727,-6.40131 0,-1.74802 -0.2954,-3.27388 -0.8862,-4.5776 -0.5909,-1.30368 -1.4551,-2.31441 -2.5928,-3.0322 -1.1377,-0.71775 -2.4145,-1.07663 -3.8305,-1.07665 -2.0117,2e-5 -3.7427,0.69093 -5.1928,2.07274 -1.4502,1.38184 -2.1753,3.68894 -2.1753,6.92132 z"
         id="path4461"/>
    </g>
    <g
       transform="translate(17.685876,-17.669671)"
       id="67-6">
      <path
         d="m 1757.3021,318.22726 c 0,-3.5644 0.957,-6.3549 2.8711,-8.37151 1.914,-2.01656 4.3847,-3.02485 7.412,-3.02487 1.9824,2e-5 3.7695,0.47365 5.3613,1.42088 1.5918,0.94728 2.8051,2.26807 3.6401,3.96237 0.8349,1.69434 1.2524,3.61571 1.2524,5.76411 0,2.17773 -0.4394,4.12595 -1.3183,5.84468 -0.8789,1.71874 -2.124,3.01999 -3.7353,3.90377 -1.6114,0.88378 -3.3496,1.32567 -5.2148,1.32567 -2.0215,0 -3.8281,-0.48827 -5.4199,-1.46483 -1.5918,-0.97655 -2.7978,-2.30954 -3.6181,-3.99898 -0.8203,-1.68944 -1.2305,-3.47653 -1.2305,-5.36129 z m 2.9297,0.0439 c 0,2.58787 0.6958,4.62643 2.0874,6.11567 1.3915,1.48925 3.1371,2.23387 5.2367,2.23387 2.1387,0 3.8989,-0.75195 5.2807,-2.25584 1.3818,-1.50389 2.0728,-3.63766 2.0728,-6.40132 0,-1.74801 -0.2954,-3.27388 -0.8862,-4.57759 -0.5909,-1.30369 -1.4551,-2.31442 -2.5928,-3.0322 -1.1377,-0.71775 -2.4145,-1.07663 -3.8305,-1.07665 -2.0117,2e-5 -3.7427,0.69093 -5.1929,2.07273 -1.4501,1.38184 -2.1752,3.68895 -2.1752,6.92133 z"
         id="path4464"/>
    </g>
    <g
       transform="translate(17.685876,-17.669671)"
       id="68-0">
      <path
         d="m 1603.0899,222.15751 2.8418,0.71776 c -0.5957,2.33397 -1.6675,4.11374 -3.2153,5.33931 -1.5479,1.22558 -3.4399,1.83836 -5.6762,1.83836 -2.3145,0 -4.1968,-0.47118 -5.6469,-1.41356 -1.4502,-0.94237 -2.5537,-2.3071 -3.3106,-4.0942 -0.7568,-1.78709 -1.1352,-3.70601 -1.1352,-5.75679 0,-2.23629 0.4272,-4.18696 1.2817,-5.852 0.8545,-1.665 2.0703,-2.92964 3.6475,-3.79391 1.5771,-0.86423 3.3129,-1.29635 5.2074,-1.29637 2.1484,2e-5 3.9551,0.54689 5.4199,1.64061 1.4648,1.09376 2.4853,2.63183 3.0615,4.61422 l -2.7978,0.65917 c -0.4981,-1.56247 -1.2207,-2.70015 -2.168,-3.41306 -0.9472,-0.71286 -2.1386,-1.0693 -3.5742,-1.06932 -1.6504,2e-5 -3.0297,0.39552 -4.1381,1.18651 -1.1084,0.79103 -1.8872,1.85303 -2.3364,3.18601 -0.4492,1.33301 -0.6738,2.70751 -0.6738,4.1235 0,1.82616 0.2661,3.42038 0.7983,4.78267 0.5322,1.3623 1.3598,2.38035 2.4829,3.05417 1.123,0.67383 2.3388,1.01074 3.6474,1.01074 1.5918,0 2.9394,-0.45898 4.0429,-1.37695 1.1035,-0.91795 1.8506,-2.28024 2.2412,-4.08687 z"
         id="path4467"/>
    </g>
    <g
       transform="translate(17.685876,-17.669671)"
       id="69-2">
      <path
         d="m 1553.056,229.68674 0,-21.47443 2.8418,0 0,8.81829 11.162,0 0,-8.81829 2.8418,0 0,21.47443 -2.8418,0 0,-10.12199 -11.162,0 0,10.12199 z"
         id="path4470"/>
    </g>
    <g
       transform="translate(17.685876,-17.669671)"
       id="70-4">
      <path
         d="m 1573.2486,237.71826 2.083,-0.27773 c 0.2392,1.18036 0.6461,2.03091 1.2209,2.55166 0.5747,0.52075 1.2748,0.78112 2.1003,0.78112 0.9798,0 1.8072,-0.33945 2.4823,-1.01835 0.675,-0.6789 1.0125,-1.51981 1.0125,-2.52273 0,-0.95663 -0.3124,-1.74546 -0.9373,-2.36651 -0.6249,-0.62103 -1.4196,-0.93155 -2.3839,-0.93156 -0.3935,1e-5 -0.8833,0.0772 -1.4697,0.23144 l 0.2315,-1.8284 c 0.1388,0.0154 0.2507,0.0232 0.3356,0.0232 0.8872,1e-5 1.6857,-0.23144 2.3954,-0.69433 0.7098,-0.46288 1.0646,-1.1765 1.0647,-2.14086 -10e-5,-0.76374 -0.2585,-1.39636 -0.7754,-1.89783 -0.5169,-0.50145 -1.1842,-0.75218 -2.002,-0.75219 -0.81,1e-5 -1.4851,0.2546 -2.0251,0.76376 -0.54,0.50919 -0.8872,1.27295 -1.0415,2.29129 l -2.083,-0.37031 c 0.2546,-1.39636 0.8332,-2.47836 1.7358,-3.24599 0.9027,-0.7676 2.0252,-1.15141 3.3675,-1.15143 0.9258,2e-5 1.7783,0.19867 2.5575,0.59596 0.7792,0.39733 1.3751,0.93929 1.7879,1.62589 0.4127,0.68663 0.6191,1.41568 0.6191,2.18714 0,0.73292 -0.1967,1.40025 -0.5902,2.00199 -0.3934,0.60176 -0.9759,1.08008 -1.7474,1.43495 1.0029,0.23145 1.7821,0.71169 2.3376,1.44073 0.5555,0.72905 0.8332,1.64133 0.8332,2.73682 0,1.48124 -0.54,2.73682 -1.6201,3.76674 -1.0801,1.02992 -2.4456,1.54488 -4.0965,1.54488 -1.489,0 -2.7253,-0.4436 -3.7089,-1.3308 -0.9837,-0.88719 -1.5449,-2.03669 -1.6838,-3.4485 z"
         id="path4473"/>
    </g>
    <path
       d="m 1340.9421,-254.99474 0,43.49977"
       id="71-8"
       style="fill:none;stroke:#000000;stroke-width:2.09998178px;stroke-linecap:round;stroke-linejoin:round;stroke-opacity:1;stroke-dasharray:none" />
    <path
       d="m 1340.9421,-211.49497 -38.9997,-21.89989"
       id="74-0"
       style="fill:none;stroke:#000000;stroke-width:2.09998178px;stroke-linecap:round;stroke-linejoin:round;stroke-opacity:1;stroke-dasharray:none" />
    <path
       d="m 1271.9427,-233.09486 -38.0997,21.59989"
       id="77-0"
       style="fill:none;stroke:#000000;stroke-width:2.09998178px;stroke-linecap:round;stroke-linejoin:round;stroke-opacity:1;stroke-dasharray:none" />
    <path
       d="m 1233.243,-260.99471 0.6,49.49974"
       id="80-3"
       style="fill:none;stroke:#000000;stroke-width:2.09998178px;stroke-linecap:round;stroke-linejoin:round;stroke-opacity:1;stroke-dasharray:none" />
    <path
       d="m 1199.0433,-260.99471 34.1997,0"
       id="81-8"
       style="fill:none;stroke:#000000;stroke-width:2.09998178px;stroke-linecap:round;stroke-linejoin:round;stroke-opacity:1;stroke-dasharray:none" />
    <path
       d="m 1254.2429,-135.59538 0,-34.19981"
       id="83-3"
       style="fill:none;stroke:#000000;stroke-width:2.09998178px;stroke-linecap:round;stroke-linejoin:round;stroke-opacity:1;stroke-dasharray:none" />
    <path
       d="m 1134.5439,-295.49453 0,19.1999"
       id="84-4"
       style="fill:none;stroke:#000000;stroke-width:2.09998178px;stroke-linecap:round;stroke-linejoin:round;stroke-opacity:1;stroke-dasharray:none" />
    <path
       d="m 1169.0436,-260.99471 -20.9998,0"
       id="85-4"
       style="fill:none;stroke:#000000;stroke-width:2.09998178px;stroke-linecap:round;stroke-linejoin:round;stroke-opacity:1;stroke-dasharray:none" />
    <path
       d="m 1138.1439,-226.79489 0,-18.8999"
       id="86-6"
       style="fill:none;stroke:#000000;stroke-width:2.09998178px;stroke-linecap:round;stroke-linejoin:round;stroke-opacity:1;stroke-dasharray:none" />
    <path
       d="m 1130.6439,-226.79489 0,-18.8999"
       id="87-0"
       style="fill:none;stroke:#000000;stroke-width:2.09998178px;stroke-linecap:round;stroke-linejoin:round;stroke-opacity:1;stroke-dasharray:none" />
    <path
       d="m 1099.7442,-260.99471 21.5998,0"
       id="88-6"
       style="fill:none;stroke:#000000;stroke-width:2.09998178px;stroke-linecap:round;stroke-linejoin:round;stroke-opacity:1;stroke-dasharray:none" />
    <path
       d="m 1460.641,-64.795752 0,43.79977"
       id="89-6"
       style="fill:none;stroke:#000000;stroke-width:2.09998178px;stroke-linecap:round;stroke-linejoin:round;stroke-opacity:1;stroke-dasharray:none" />
    <path
       d="m 1460.641,-20.995982 -38.9996,-22.19988"
       id="92-4"
       style="fill:none;stroke:#000000;stroke-width:2.09998178px;stroke-linecap:round;stroke-linejoin:round;stroke-opacity:1;stroke-dasharray:none" />
    <path
       d="m 1391.6416,-42.895862 -38.0996,21.89988"
       id="95-3"
       style="fill:none;stroke:#000000;stroke-width:2.09998178px;stroke-linecap:round;stroke-linejoin:round;stroke-opacity:1;stroke-dasharray:none" />
    <path
       d="m 1352.942,-70.495722 0.6,49.49974"
       id="98-8"
       style="fill:none;stroke:#000000;stroke-width:2.09998178px;stroke-linecap:round;stroke-linejoin:round;stroke-opacity:1;stroke-dasharray:none" />
    <path
       d="m 1318.7423,-70.495722 34.1997,0"
       id="99-2"
       style="fill:none;stroke:#000000;stroke-width:2.09998178px;stroke-linecap:round;stroke-linejoin:round;stroke-opacity:1;stroke-dasharray:none" />
    <path
       d="m 1373.9418,54.603618 0,-33.89982"
       id="101-1"
       style="fill:none;stroke:#000000;stroke-width:2.09998178px;stroke-linecap:round;stroke-linejoin:round;stroke-opacity:1;stroke-dasharray:none" />
    <path
       d="m 1254.2429,-104.99554 0,18.899898"
       id="102-3"
       style="fill:none;stroke:#000000;stroke-width:2.09998178px;stroke-linecap:round;stroke-linejoin:round;stroke-opacity:1;stroke-dasharray:none" />
    <path
       d="m 1288.7425,-70.495722 -20.9998,0"
       id="103-5"
       style="fill:none;stroke:#000000;stroke-width:2.09998178px;stroke-linecap:round;stroke-linejoin:round;stroke-opacity:1;stroke-dasharray:none" />
    <path
       d="m 1257.8428,-36.295902 0,-19.1999"
       id="104-9"
       style="fill:none;stroke:#000000;stroke-width:2.09998178px;stroke-linecap:round;stroke-linejoin:round;stroke-opacity:1;stroke-dasharray:none" />
    <path
       d="m 1250.3429,-36.295902 0,-19.1999"
       id="105-8"
       style="fill:none;stroke:#000000;stroke-width:2.09998178px;stroke-linecap:round;stroke-linejoin:round;stroke-opacity:1;stroke-dasharray:none" />
    <path
       d="m 1219.4431,-70.495722 21.5999,0"
       id="106-4"
       style="fill:none;stroke:#000000;stroke-width:2.09998178px;stroke-linecap:round;stroke-linejoin:round;stroke-opacity:1;stroke-dasharray:none" />
    <path
       d="m 1580.0394,125.70324 0,43.49977"
       id="107-0"
       style="fill:none;stroke:#000000;stroke-width:2.09998178px;stroke-linecap:round;stroke-linejoin:round;stroke-opacity:1;stroke-dasharray:none" />
    <path
       d="m 1580.0394,169.20301 -38.9996,-21.89988"
       id="110-3"
       style="fill:none;stroke:#000000;stroke-width:2.09998178px;stroke-linecap:round;stroke-linejoin:round;stroke-opacity:1;stroke-dasharray:none" />
    <path
       d="m 1511.04,147.60313 -38.0996,21.59988"
       id="113-5"
       style="fill:none;stroke:#000000;stroke-width:2.09998178px;stroke-linecap:round;stroke-linejoin:round;stroke-opacity:1;stroke-dasharray:none" />
    <path
       d="m 1472.6404,119.70328 0.3,49.49973"
       id="116-0"
       style="fill:none;stroke:#000000;stroke-width:2.09998178px;stroke-linecap:round;stroke-linejoin:round;stroke-opacity:1;stroke-dasharray:none" />
    <path
       d="m 1438.4407,119.70328 34.1997,0"
       id="117-9"
       style="fill:none;stroke:#000000;stroke-width:2.09998178px;stroke-linecap:round;stroke-linejoin:round;stroke-opacity:1;stroke-dasharray:none" />
    <path
       d="m 1493.3402,245.10261 0,-34.19982"
       id="119-3"
       style="fill:none;stroke:#000000;stroke-width:2.09998178px;stroke-linecap:round;stroke-linejoin:round;stroke-opacity:1;stroke-dasharray:none" />
    <path
       d="m 1373.9412,85.203459 0,19.199901"
       id="120-7"
       style="fill:none;stroke:#000000;stroke-width:2.09998178px;stroke-linecap:round;stroke-linejoin:round;stroke-opacity:1;stroke-dasharray:none" />
    <path
       d="m 1408.4409,119.70328 -21.2998,0"
       id="121-2"
       style="fill:none;stroke:#000000;stroke-width:2.09998178px;stroke-linecap:round;stroke-linejoin:round;stroke-opacity:1;stroke-dasharray:none" />
    <path
       d="m 1377.5412,153.9031 0,-18.8999"
       id="122-6"
       style="fill:none;stroke:#000000;stroke-width:2.09998178px;stroke-linecap:round;stroke-linejoin:round;stroke-opacity:1;stroke-dasharray:none" />
    <path
       d="m 1370.0413,153.9031 0,-18.8999"
       id="123-0"
       style="fill:none;stroke:#000000;stroke-width:2.09998178px;stroke-linecap:round;stroke-linejoin:round;stroke-opacity:1;stroke-dasharray:none" />
    <path
       d="m 1338.8415,119.70328 21.5998,0"
       id="124-1"
       style="fill:none;stroke:#000000;stroke-width:2.09998178px;stroke-linecap:round;stroke-linejoin:round;stroke-opacity:1;stroke-dasharray:none" />
    <path
       d="m 1699.7384,315.90224 0,43.79977"
       id="125-6"
       style="fill:none;stroke:#000000;stroke-width:2.09998178px;stroke-linecap:round;stroke-linejoin:round;stroke-opacity:1;stroke-dasharray:none" />
    <path
       d="m 1699.7384,359.70201 -38.9997,-22.19988"
       id="128-5"
       style="fill:none;stroke:#000000;stroke-width:2.09998178px;stroke-linecap:round;stroke-linejoin:round;stroke-opacity:1;stroke-dasharray:none" />
    <path
       d="m 1630.739,337.80212 -38.0997,21.89989"
       id="131-2"
       style="fill:none;stroke:#000000;stroke-width:2.09998178px;stroke-linecap:round;stroke-linejoin:round;stroke-opacity:1;stroke-dasharray:none" />
    <path
       d="m 1592.3393,310.20227 0.3,49.49974"
       id="134-1"
       style="fill:none;stroke:#000000;stroke-width:2.09998178px;stroke-linecap:round;stroke-linejoin:round;stroke-opacity:1;stroke-dasharray:none" />
    <path
       d="m 1558.1396,310.20227 34.1997,0"
       id="135-4"
       style="fill:none;stroke:#000000;stroke-width:2.09998178px;stroke-linecap:round;stroke-linejoin:round;stroke-opacity:1;stroke-dasharray:none" />
    <path
       d="m 1613.0391,435.30161 0,-33.89982"
       id="137-0"
       style="fill:none;stroke:#000000;stroke-width:2.09998178px;stroke-linecap:round;stroke-linejoin:round;stroke-opacity:1;stroke-dasharray:none" />
    <path
       d="m 1493.6402,275.70245 0,18.8999"
       id="138-7"
       style="fill:none;stroke:#000000;stroke-width:2.09998178px;stroke-linecap:round;stroke-linejoin:round;stroke-opacity:1;stroke-dasharray:none" />
    <path
       d="m 1528.1399,310.20227 -21.2998,0"
       id="139-1"
       style="fill:none;stroke:#000000;stroke-width:2.09998178px;stroke-linecap:round;stroke-linejoin:round;stroke-opacity:1;stroke-dasharray:none" />
    <path
       d="m 1497.2402,344.40209 0,-19.1999"
       id="140-7"
       style="fill:none;stroke:#000000;stroke-width:2.09998178px;stroke-linecap:round;stroke-linejoin:round;stroke-opacity:1;stroke-dasharray:none" />
    <path
       d="m 1489.7402,344.40209 0,-19.1999"
       id="141-7"
       style="fill:none;stroke:#000000;stroke-width:2.09998178px;stroke-linecap:round;stroke-linejoin:round;stroke-opacity:1;stroke-dasharray:none" />
    <path
       d="m 1458.8405,310.20227 21.2998,0"
       id="142-7"
       style="fill:none;stroke:#000000;stroke-width:2.09998178px;stroke-linecap:round;stroke-linejoin:round;stroke-opacity:1;stroke-dasharray:none" />
    <path
       d="m 1420.4414,-108.89552 25.7998,18.599908"
       id="143-7"
       style="fill:none;stroke:#000000;stroke-width:2.09998178px;stroke-linecap:round;stroke-linejoin:round;stroke-opacity:1;stroke-dasharray:none" />
    <path
       d="m 1500.5407,-108.89552 -26.0998,18.899898"
       id="144-3"
       style="fill:none;stroke:#000000;stroke-width:2.09998178px;stroke-linecap:round;stroke-linejoin:round;stroke-opacity:1;stroke-dasharray:none" />
    <path
       d="m 1430.9413,-140.69535 -10.4999,31.79983"
       id="145-3"
       style="fill:none;stroke:#000000;stroke-width:2.09998178px;stroke-linecap:round;stroke-linejoin:round;stroke-opacity:1;stroke-dasharray:none" />
    <path
       d="m 1438.7412,-140.69535 -8.6999,26.39986"
       id="146-5"
       style="fill:none;stroke:#000000;stroke-width:2.09998178px;stroke-linecap:round;stroke-linejoin:round;stroke-opacity:1;stroke-dasharray:none" />
    <path
       d="m 1485.2408,-155.99527 -35.3996,0"
       id="147-9"
       style="fill:none;stroke:#000000;stroke-width:2.09998178px;stroke-linecap:round;stroke-linejoin:round;stroke-opacity:1;stroke-dasharray:none" />
    <path
       d="m 1540.1398,81.303478 25.7998,18.899902"
       id="148-9"
       style="fill:none;stroke:#000000;stroke-width:2.09998178px;stroke-linecap:round;stroke-linejoin:round;stroke-opacity:1;stroke-dasharray:none" />
    <path
       d="m 1620.2391,81.303478 -26.0998,18.899902"
       id="149-8"
       style="fill:none;stroke:#000000;stroke-width:2.09998178px;stroke-linecap:round;stroke-linejoin:round;stroke-opacity:1;stroke-dasharray:none" />
    <path
       d="m 1550.3397,49.503648 -10.1999,31.79983"
       id="150-1"
       style="fill:none;stroke:#000000;stroke-width:2.09998178px;stroke-linecap:round;stroke-linejoin:round;stroke-opacity:1;stroke-dasharray:none" />
    <path
       d="m 1558.1396,49.503648 -8.3999,26.39986"
       id="151-8"
       style="fill:none;stroke:#000000;stroke-width:2.09998178px;stroke-linecap:round;stroke-linejoin:round;stroke-opacity:1;stroke-dasharray:none" />
    <path
       d="m 1604.9392,34.203728 -35.6997,0"
       id="152-2"
       style="fill:none;stroke:#000000;stroke-width:2.09998178px;stroke-linecap:round;stroke-linejoin:round;stroke-opacity:1;stroke-dasharray:none" />
    <path
       d="m 1656.8388,276.00245 28.7997,16.79991"
       id="153-6"
       style="fill:none;stroke:#000000;stroke-width:2.09998178px;stroke-linecap:round;stroke-linejoin:round;stroke-opacity:1;stroke-dasharray:none" />
    <path
       d="m 1742.638,276.00245 -28.7997,16.79991"
       id="154-6"
       style="fill:none;stroke:#000000;stroke-width:2.09998178px;stroke-linecap:round;stroke-linejoin:round;stroke-opacity:1;stroke-dasharray:none" />
    <path
       d="m 1656.8388,226.50271 0,49.49974"
       id="155-0"
       style="fill:none;stroke:#000000;stroke-width:2.09998178px;stroke-linecap:round;stroke-linejoin:round;stroke-opacity:1;stroke-dasharray:none" />
    <path
       d="m 1664.3387,232.80268 0,36.8998"
       id="156-3"
       style="fill:none;stroke:#000000;stroke-width:2.09998178px;stroke-linecap:round;stroke-linejoin:round;stroke-opacity:1;stroke-dasharray:none" />
    <path
       d="m 1742.638,241.80263 0,34.19982"
       id="157-8"
       style="fill:none;stroke:#000000;stroke-width:2.09998178px;stroke-linecap:round;stroke-linejoin:round;stroke-opacity:1;stroke-dasharray:none" />
    <path
       d="m 1699.7384,201.90284 -42.8996,24.59987"
       id="158-0"
       style="fill:none;stroke:#000000;stroke-width:2.09998178px;stroke-linecap:round;stroke-linejoin:round;stroke-opacity:1;stroke-dasharray:none" />
    <path
       d="m 1699.7384,201.90284 28.7998,16.49991"
       id="159-1"
       style="fill:none;stroke:#000000;stroke-width:2.09998178px;stroke-linecap:round;stroke-linejoin:round;stroke-opacity:1;stroke-dasharray:none" />
    <path
       d="m 1298.0425,-294.89453 28.4997,16.49991"
       id="160-2"
       style="fill:none;stroke:#000000;stroke-width:2.09998178px;stroke-linecap:round;stroke-linejoin:round;stroke-opacity:1;stroke-dasharray:none" />
    <path
       d="m 1383.5417,-294.89453 -28.7997,16.79991"
       id="161-5"
       style="fill:none;stroke:#000000;stroke-width:2.09998178px;stroke-linecap:round;stroke-linejoin:round;stroke-opacity:1;stroke-dasharray:none" />
    <path
       d="m 1298.0425,-344.39427 0,49.49974"
       id="162-0"
       style="fill:none;stroke:#000000;stroke-width:2.09998178px;stroke-linecap:round;stroke-linejoin:round;stroke-opacity:1;stroke-dasharray:none" />
    <path
       d="m 1305.5424,-338.09431 0,36.89981"
       id="163-9"
       style="fill:none;stroke:#000000;stroke-width:2.09998178px;stroke-linecap:round;stroke-linejoin:round;stroke-opacity:1;stroke-dasharray:none" />
    <path
       d="m 1383.5417,-329.39435 0,34.49982"
       id="164-4"
       style="fill:none;stroke:#000000;stroke-width:2.09998178px;stroke-linecap:round;stroke-linejoin:round;stroke-opacity:1;stroke-dasharray:none" />
    <path
       d="m 1340.9421,-369.29414 -42.8996,24.89987"
       id="165-7"
       style="fill:none;stroke:#000000;stroke-width:2.09998178px;stroke-linecap:round;stroke-linejoin:round;stroke-opacity:1;stroke-dasharray:none" />
    <path
       d="m 1340.9421,-368.99414 28.4997,16.49991"
       id="166-8"
       style="fill:none;stroke:#000000;stroke-width:2.09998178px;stroke-linecap:round;stroke-linejoin:round;stroke-opacity:1;stroke-dasharray:none" />
    <path
       d="m 1342.4421,-359.39419 26.6998,15.29992"
       id="167-3"
       style="fill:none;stroke:#000000;stroke-width:2.09998178px;stroke-linecap:round;stroke-linejoin:round;stroke-opacity:1;stroke-dasharray:none" />
    <path
       d="m 1340.9421,-369.29414 0,-34.19982"
       id="168-5"
       style="fill:none;stroke:#000000;stroke-width:2.09998178px;stroke-linecap:round;stroke-linejoin:round;stroke-opacity:1;stroke-dasharray:none" />
    <path
       d="m 1534.7404,-101.69555 -34.1997,-7.19997"
       id="169-1"
       style="fill:none;stroke:#000000;stroke-width:2.09998178px;stroke-linecap:round;stroke-linejoin:round;stroke-opacity:1;stroke-dasharray:none" />
    <path
       d="m 1485.2408,-155.99527 15.2999,47.09975"
       id="170-2"
       style="fill:none;stroke:#000000;stroke-width:2.09998178px;stroke-linecap:round;stroke-linejoin:round;stroke-opacity:1;stroke-dasharray:none" />
    <path
       d="m 1480.7409,-146.09532 10.1999,31.79983"
       id="171-0"
       style="fill:none;stroke:#000000;stroke-width:2.09998178px;stroke-linecap:round;stroke-linejoin:round;stroke-opacity:1;stroke-dasharray:none" />
    <path
       d="m 1582.14,-135.29538 -19.1998,21.29989"
       id="172-1"
       style="fill:none;stroke:#000000;stroke-width:2.09998178px;stroke-linecap:round;stroke-linejoin:round;stroke-opacity:1;stroke-dasharray:none" />
    <path
       d="m 1572.2401,-135.89537 -19.4999,21.89988"
       id="173-6"
       style="fill:none;stroke:#000000;stroke-width:2.09998178px;stroke-linecap:round;stroke-linejoin:round;stroke-opacity:1;stroke-dasharray:none" />
    <path
       d="m 1518.2406,-192.89507 -32.9998,36.8998"
       id="174-4"
       style="fill:none;stroke:#000000;stroke-width:2.09998178px;stroke-linecap:round;stroke-linejoin:round;stroke-opacity:1;stroke-dasharray:none" />
    <path
       d="m 1571.6401,-167.39521 10.4999,32.09983"
       id="175-0"
       style="fill:none;stroke:#000000;stroke-width:2.09998178px;stroke-linecap:round;stroke-linejoin:round;stroke-opacity:1;stroke-dasharray:none" />
    <path
       d="m 1552.4403,-185.39511 -34.1997,-7.49996"
       id="176-6"
       style="fill:none;stroke:#000000;stroke-width:2.09998178px;stroke-linecap:round;stroke-linejoin:round;stroke-opacity:1;stroke-dasharray:none" />
    <path
       d="m 1654.1388,88.803439 -33.8997,-7.499961"
       id="177-1"
       style="fill:none;stroke:#000000;stroke-width:2.09998178px;stroke-linecap:round;stroke-linejoin:round;stroke-opacity:1;stroke-dasharray:none" />
    <path
       d="m 1604.6392,34.203728 15.2999,47.09975"
       id="178-8"
       style="fill:none;stroke:#000000;stroke-width:2.09998178px;stroke-linecap:round;stroke-linejoin:round;stroke-opacity:1;stroke-dasharray:none" />
    <path
       d="m 1600.1393,44.403668 10.1999,31.49984"
       id="179-9"
       style="fill:none;stroke:#000000;stroke-width:2.09998178px;stroke-linecap:round;stroke-linejoin:round;stroke-opacity:1;stroke-dasharray:none" />
    <path
       d="m 1701.5384,54.903618 -19.1999,21.59988"
       id="180-8"
       style="fill:none;stroke:#000000;stroke-width:2.09998178px;stroke-linecap:round;stroke-linejoin:round;stroke-opacity:1;stroke-dasharray:none" />
    <path
       d="m 1691.9385,54.603618 -19.4999,21.59989"
       id="181-4"
       style="fill:none;stroke:#000000;stroke-width:2.09998178px;stroke-linecap:round;stroke-linejoin:round;stroke-opacity:1;stroke-dasharray:none" />
    <path
       d="m 1637.9389,-2.396082 -32.9997,36.59981"
       id="182-1"
       style="fill:none;stroke:#000000;stroke-width:2.09998178px;stroke-linecap:round;stroke-linejoin:round;stroke-opacity:1;stroke-dasharray:none" />
    <path
       d="m 1691.3385,23.103788 10.1999,31.79983"
       id="183-4"
       style="fill:none;stroke:#000000;stroke-width:2.09998178px;stroke-linecap:round;stroke-linejoin:round;stroke-opacity:1;stroke-dasharray:none" />
    <path
       d="m 1672.1386,4.803878 -34.1997,-7.19996"
       id="184-3"
       style="fill:none;stroke:#000000;stroke-width:2.09998178px;stroke-linecap:round;stroke-linejoin:round;stroke-opacity:1;stroke-dasharray:none" />
    <path
       d="m 1672.1386,12.603838 -29.6997,-6.29996"
       id="185-9"
       style="fill:none;stroke:#000000;stroke-width:2.09998178px;stroke-linecap:round;stroke-linejoin:round;stroke-opacity:1;stroke-dasharray:none" />
    <path
       d="m 1582.14,-135.29538 34.1997,7.19997"
       id="186-8"
       style="fill:none;stroke:#000000;stroke-width:2.09998178px;stroke-linecap:round;stroke-linejoin:round;stroke-opacity:1;stroke-dasharray:none" />
    <path
       d="m 1637.9389,-2.396082 -10.4999,-32.09983"
       id="187-8"
       style="fill:none;stroke:#000000;stroke-width:2.09998178px;stroke-linecap:round;stroke-linejoin:round;stroke-opacity:1;stroke-dasharray:none" />
    <path
       d="m 1381.7417,-291.89455 29.6998,17.09991"
       id="188-0"
       style="fill:none;stroke:#000000;stroke-width:2.09998178px;stroke-linecap:round;stroke-linejoin:round;stroke-opacity:1;stroke-dasharray:none" />
    <path
       d="m 1385.6417,-298.19452 25.7998,14.69993"
       id="189-8"
       style="fill:none;stroke:#000000;stroke-width:2.09998178px;stroke-linecap:round;stroke-linejoin:round;stroke-opacity:1;stroke-dasharray:none" />
    <path
       d="m 1521.8405,-193.79507 -9.8999,-30.89983"
       id="190-7"
       style="fill:none;stroke:#000000;stroke-width:2.09998178px;stroke-linecap:round;stroke-linejoin:round;stroke-opacity:1;stroke-dasharray:none" />
    <path
       d="m 1514.6406,-191.69508 -10.7999,-32.99982"
       id="191-7"
       style="fill:none;stroke:#000000;stroke-width:2.09998178px;stroke-linecap:round;stroke-linejoin:round;stroke-opacity:1;stroke-dasharray:none" />
    <path
       d="m 1703.3384,201.90284 0,-34.49982"
       id="192-8"
       style="fill:none;stroke:#000000;stroke-width:2.09998178px;stroke-linecap:round;stroke-linejoin:round;stroke-opacity:1;stroke-dasharray:none" />
    <path
       d="m 1695.8384,201.90284 0,-34.49982"
       id="193-3"
       style="fill:none;stroke:#000000;stroke-width:2.09998178px;stroke-linecap:round;stroke-linejoin:round;stroke-opacity:1;stroke-dasharray:none" />
    <path
       d="m 1740.838,279.30243 29.3998,16.79991"
       id="194-8"
       style="fill:none;stroke:#000000;stroke-width:2.09998178px;stroke-linecap:round;stroke-linejoin:round;stroke-opacity:1;stroke-dasharray:none" />
    <path
       d="m 1744.738,272.70247 25.4998,14.69992"
       id="195-3"
       style="fill:none;stroke:#000000;stroke-width:2.09998178px;stroke-linecap:round;stroke-linejoin:round;stroke-opacity:1;stroke-dasharray:none" />
    <path
       d="M 1656.8388,226.50271 1628.039,210.0028"
       id="196-7"
       style="fill:none;stroke:#000000;stroke-width:2.09998178px;stroke-linecap:round;stroke-linejoin:round;stroke-opacity:1;stroke-dasharray:none" />
    <path
       d="m 1340.3156,-211.48289 1.5179,0 -19.7991,45 -69.5938,-0.3125 -19.5312,-44.6875 1.5179,0 21.6071,38.6875 62.0937,0 22.1875,-38.6875 z"
       id="73-7-4"
       style="fill:#000000;stroke:#000000;stroke-width:0.29999739px;stroke-linecap:round;stroke-linejoin:round;stroke-opacity:1;stroke-dasharray:none" />
    <path
       d="m 1459.4886,-21.029431 1.5179,0 -19.7991,45 -69.5938,-0.3125 -19.5312,-44.6875 1.5178,0 21.6072,38.6875 62.0937,0 22.1875,-38.6875 z"
       id="73-7-8"
       style="fill:#000000;stroke:#000000;stroke-width:0.29999739px;stroke-linecap:round;stroke-linejoin:round;stroke-opacity:1;stroke-dasharray:none" />
    <path
       d="m 1579.4466,169.05522 1.5179,0 -19.7992,45 -69.5937,-0.3125 -19.5313,-44.6875 1.5179,0 21.6071,38.6875 62.0938,0 22.1875,-38.6875 z"
       id="73-7-6"
       style="fill:#000000;stroke:#000000;stroke-width:0.29999739px;stroke-linecap:round;stroke-linejoin:round;stroke-opacity:1;stroke-dasharray:none" />
    <path
       d="m 1699.1092,359.76092 1.5178,0 -19.7991,45 -69.5937,-0.3125 -19.5313,-44.6875 1.5179,0 21.6071,38.6875 62.0938,0 22.1875,-38.6875 z"
       id="73-7-9"
       style="fill:#000000;stroke:#000000;stroke-width:0.29999739px;stroke-linecap:round;stroke-linejoin:round;stroke-opacity:1;stroke-dasharray:none" />
    <g
       transform="translate(-36.104746,-38.231024)"
       id="19-1" />
    <g
       transform="translate(911.95858,-327.185)"
       id="g3976-7-3">
      <path
         d="m 202.83553,67.377485 11.51915,0 0,2.087728 -11.51915,0 0,-2.087728 z"
         transform="translate(-53.790622,-20.56135)"
         id="path3199-4-2"/>
      <path
         d="m 150.51272,510.56345 c 0,5.71839 -4.63567,10.35406 -10.35406,10.35406 -5.71839,0 -10.35406,-4.63567 -10.35406,-10.35406 0,-5.7184 4.63567,-10.35407 10.35406,-10.35407 5.71839,0 10.35406,4.63567 10.35406,10.35407 z"
         transform="matrix(0.85365854,0,0,0.85365854,35.156845,-387.98685)"
         id="path3201-0-2"
         style="color:#000000;fill:none;stroke:#000000;stroke-width:2.07536554;stroke-miterlimit:4;stroke-opacity:1;marker:none;visibility:visible;display:inline;overflow:visible;enable-background:accumulate" />
    </g>
    <g
       transform="translate(961.75818,-376.98474)"
       id="g3976-4-1">
      <path
         d="m 202.83553,67.377485 11.51915,0 0,2.087728 -11.51915,0 0,-2.087728 z"
         transform="translate(-53.790622,-20.56135)"
         id="path3199-8-6"/>
      <path
         d="m 150.51272,510.56345 c 0,5.71839 -4.63567,10.35406 -10.35406,10.35406 -5.71839,0 -10.35406,-4.63567 -10.35406,-10.35406 0,-5.7184 4.63567,-10.35407 10.35406,-10.35407 5.71839,0 10.35406,4.63567 10.35406,10.35407 z"
         transform="matrix(0.85365854,0,0,0.85365854,35.156845,-387.98685)"
         id="path3201-8-8"
         style="color:#000000;fill:none;stroke:#000000;stroke-width:2.07536554;stroke-miterlimit:4;stroke-opacity:1;marker:none;visibility:visible;display:inline;overflow:visible;enable-background:accumulate" />
    </g>
    <g
       transform="translate(1031.6575,-136.98599)"
       id="g3976-45-5">
      <path
         d="m 202.83553,67.377485 11.51915,0 0,2.087728 -11.51915,0 0,-2.087728 z"
         transform="translate(-53.790622,-20.56135)"
         id="path3199-5-7"/>
      <path
         d="m 150.51272,510.56345 c 0,5.71839 -4.63567,10.35406 -10.35406,10.35406 -5.71839,0 -10.35406,-4.63567 -10.35406,-10.35406 0,-5.7184 4.63567,-10.35407 10.35406,-10.35407 5.71839,0 10.35406,4.63567 10.35406,10.35407 z"
         transform="matrix(0.85365854,0,0,0.85365854,35.156845,-387.98685)"
         id="path3201-1-6"
         style="color:#000000;fill:none;stroke:#000000;stroke-width:2.07536554;stroke-miterlimit:4;stroke-opacity:1;marker:none;visibility:visible;display:inline;overflow:visible;enable-background:accumulate" />
    </g>
    <g
       transform="translate(1151.0559,53.512935)"
       id="g3976-1-1">
      <path
         d="m 202.83553,67.377485 11.51915,0 0,2.087728 -11.51915,0 0,-2.087728 z"
         transform="translate(-53.790622,-20.56135)"
         id="path3199-1-8"/>
      <path
         d="m 150.51272,510.56345 c 0,5.71839 -4.63567,10.35406 -10.35406,10.35406 -5.71839,0 -10.35406,-4.63567 -10.35406,-10.35406 0,-5.7184 4.63567,-10.35407 10.35406,-10.35407 5.71839,0 10.35406,4.63567 10.35406,10.35407 z"
         transform="matrix(0.85365854,0,0,0.85365854,35.156845,-387.98685)"
         id="path3201-5-9"
         style="color:#000000;fill:none;stroke:#000000;stroke-width:2.07536554;stroke-miterlimit:4;stroke-opacity:1;marker:none;visibility:visible;display:inline;overflow:visible;enable-background:accumulate" />
    </g>
    <g
       transform="translate(1271.0549,243.71197)"
       id="g3976-6-2">
      <path
         d="m 202.83553,67.377485 11.51915,0 0,2.087728 -11.51915,0 0,-2.087728 z"
         transform="translate(-53.790622,-20.56135)"
         id="path3199-14-7"/>
      <path
         d="m 150.51272,510.56345 c 0,5.71839 -4.63567,10.35406 -10.35406,10.35406 -5.71839,0 -10.35406,-4.63567 -10.35406,-10.35406 0,-5.7184 4.63567,-10.35407 10.35406,-10.35407 5.71839,0 10.35406,4.63567 10.35406,10.35407 z"
         transform="matrix(0.85365854,0,0,0.85365854,35.156845,-387.98685)"
         id="path3201-2-9"
         style="color:#000000;fill:none;stroke:#000000;stroke-width:2.07536554;stroke-miterlimit:4;stroke-opacity:1;marker:none;visibility:visible;display:inline;overflow:visible;enable-background:accumulate" />
    </g>
    <path
       d="m 1689.0536,240.11155 21.5157,0 0,5.65625 -7.2187,0 0,17.25 -7.0782,0 0,-17.25 -7.2187,0 z"
       id="path6337"
       style="fill:#000000;fill-opacity:1;stroke:none" />
    <path
       d="m 1345.7296,-317.26244 6.2031,1.875 c -0.4167,1.73959 -1.073,3.19271 -1.9688,4.35937 -0.8958,1.16667 -2.0078,2.04688 -3.3359,2.64063 -1.3281,0.59375 -3.0182,0.89062 -5.0703,0.89062 -2.4896,0 -4.5235,-0.36197 -6.1016,-1.08593 -1.5781,-0.72396 -2.9401,-1.9974 -4.0859,-3.82032 -1.1459,-1.82291 -1.7188,-4.15623 -1.7188,-7 0,-3.79165 1.0078,-6.70571 3.0235,-8.74218 2.0156,-2.03644 4.8672,-3.05467 8.5547,-3.05468 2.8854,10e-6 5.1536,0.58335 6.8047,1.75 1.651,1.16668 2.8775,2.95835 3.6796,5.375 l -6.25,1.39062 c -0.2187,-0.6979 -0.4479,-1.20832 -0.6875,-1.53125 -0.3958,-0.54165 -0.8802,-0.95832 -1.4531,-1.25 -0.5729,-0.29164 -1.2135,-0.43749 -1.9219,-0.4375 -1.6041,10e-6 -2.8333,0.64586 -3.6875,1.9375 -0.6458,0.95835 -0.9687,2.46356 -0.9687,4.51563 0,2.54168 0.3854,4.28386 1.1562,5.22655 0.7709,0.94272 1.8542,1.41408 3.25,1.41407 1.3542,10e-6 2.3776,-0.38021 3.0704,-1.14062 0.6927,-0.76042 1.1953,-1.86459 1.5078,-3.3125 z"
       id="path6331-3-4"
       style="fill:#000000;fill-opacity:1;stroke:none" />
    <path
       d="m 1534.2399,-142.52967 0,-4.76563 10.9375,0 0,9.76563 c -2.0937,1.42708 -3.9453,2.39843 -5.5546,2.91406 -1.6095,0.51562 -3.5183,0.77344 -5.7266,0.77344 -2.7188,0 -4.9349,-0.46354 -6.6485,-1.39064 -1.7135,-0.92708 -3.0416,-2.30728 -3.9843,-4.14061 -0.9427,-1.83334 -1.4141,-3.93749 -1.4141,-6.3125 0,-2.49999 0.5156,-4.67447 1.5469,-6.52344 1.0312,-1.84894 2.5416,-3.25258 4.5312,-4.21094 1.5521,-0.73956 3.6407,-1.10935 6.2657,-1.10937 2.5312,2e-5 4.4244,0.22919 5.6797,0.6875 1.2551,0.45835 2.2968,1.16929 3.125,2.13281 0.8281,0.96356 1.4504,2.18491 1.8671,3.66406 l -6.8281,1.21875 c -0.2813,-0.86456 -0.7578,-1.52601 -1.4297,-1.98437 -0.6719,-0.45831 -1.5286,-0.68748 -2.5703,-0.6875 -1.5521,2e-5 -2.7891,0.53908 -3.7109,1.61718 -0.9219,1.07815 -1.3828,2.78387 -1.3828,5.11719 0,2.47918 0.4661,4.25001 1.3984,5.3125 0.9323,1.06251 2.2318,1.59376 3.8984,1.59375 0.7917,1e-5 1.5469,-0.11458 2.2657,-0.34375 0.7187,-0.22916 1.5416,-0.61978 2.4687,-1.17187 l 0,-2.15625 z"
       id="path6333-2-3"
       style="fill:#000000;fill-opacity:1;stroke:none" />
    <path
       d="m 1657.1763,52.454689 -8.0625,0 -1.1094,3.78125 -7.2343,0 8.6093,-22.90624 7.7188,0 8.6094,22.90624 -7.4063,0 z m -1.4844,-4.95311 -2.5312,-8.23438 -2.5156,8.23438 z"
       id="path6335-1-1"
       style="fill:#000000;fill-opacity:1;stroke:none" />
  </g>
</svg>
