<?xml version="1.0" encoding="UTF-8" standalone="no"?>
<!-- Created with Inkscape (http://www.inkscape.org/) -->

<svg
   xmlns:dc="http://purl.org/dc/elements/1.1/"
   xmlns:cc="http://creativecommons.org/ns#"
   xmlns:rdf="http://www.w3.org/1999/02/22-rdf-syntax-ns#"
   xmlns:svg="http://www.w3.org/2000/svg"
   xmlns="http://www.w3.org/2000/svg"
   xmlns:sodipodi="http://sodipodi.sourceforge.net/DTD/sodipodi-0.dtd"
   xmlns:inkscape="http://www.inkscape.org/namespaces/inkscape"
   width="210mm"
   height="297mm"
   viewBox="0 0 744.09448819 1052.3622047"
   id="svg2"
   version="1.1"
   inkscape:version="0.91 r13725"
   sodipodi:docname="paper_dna_helix.svg">
  <defs
     id="defs4" />
  <sodipodi:namedview
     id="base"
     pagecolor="#ffffff"
     bordercolor="#666666"
     borderopacity="1.0"
     inkscape:pageopacity="0.0"
     inkscape:pageshadow="2"
     inkscape:zoom="1"
     inkscape:cx="471.08589"
     inkscape:cy="966.86758"
     inkscape:document-units="px"
     inkscape:current-layer="layer1"
     showgrid="false"
     inkscape:window-width="1600"
     inkscape:window-height="1151"
     inkscape:window-x="0"
     inkscape:window-y="0"
     inkscape:window-maximized="1"
     showguides="false" />
  <metadata
     id="metadata7">
    <rdf:RDF>
      <cc:Work
         rdf:about="">
        <dc:format>image/svg+xml</dc:format>
        <dc:type
           rdf:resource="http://purl.org/dc/dcmitype/StillImage" />
        <dc:title></dc:title>
      </cc:Work>
    </rdf:RDF>
  </metadata>
  <g
     inkscape:label="Layer 1"
     inkscape:groupmode="layer"
     id="layer1">
    <rect
       style="fill:none;stroke:#000000;stroke-width:1.00779986;stroke-miterlimit:4;stroke-dasharray:none;stroke-opacity:1"
       id="rect4136"
       width="87.135063"
       height="1012.8494"
       x="20.003901"
       y="20.937532" />
    <rect
       style="fill:none;stroke:#000000;stroke-width:1.24541223;stroke-miterlimit:4;stroke-dasharray:none;stroke-opacity:1"
       id="rect4382"
       width="51.595646"
       height="19.570765"
       x="-50.559837"
       y="104.87795"
       transform="matrix(0.70302279,-0.71116732,0.71116732,0.70302279,0,0)" />
    <rect
       style="fill:none;stroke:#000000;stroke-width:1.24541223;stroke-miterlimit:4;stroke-dasharray:none;stroke-opacity:1"
       id="rect4382-2"
       width="51.595646"
       height="19.570765"
       x="-97.277916"
       y="151.061"
       transform="matrix(0.70302279,-0.71116732,0.71116732,0.70302279,0,0)" />
    <rect
       style="fill:none;stroke:#000000;stroke-width:1.24541223;stroke-miterlimit:4;stroke-dasharray:none;stroke-opacity:1"
       id="rect4382-2-9"
       width="51.595646"
       height="19.570765"
       x="-143.99599"
       y="197.24403"
       transform="matrix(0.70302279,-0.71116732,0.71116732,0.70302279,0,0)" />
    <rect
       style="fill:none;stroke:#000000;stroke-width:1.24541223;stroke-miterlimit:4;stroke-dasharray:none;stroke-opacity:1"
       id="rect4382-2-3"
       width="51.595646"
       height="19.570765"
       x="-190.71402"
       y="243.42705"
       transform="matrix(0.70302279,-0.71116732,0.71116732,0.70302279,0,0)" />
    <rect
       style="fill:none;stroke:#000000;stroke-width:1.24541223;stroke-miterlimit:4;stroke-dasharray:none;stroke-opacity:1"
       id="rect4382-2-9-6"
       width="51.595646"
       height="19.570765"
       x="-237.4321"
       y="289.61005"
       transform="matrix(0.70302279,-0.71116732,0.71116732,0.70302279,0,0)" />
    <rect
       style="fill:none;stroke:#000000;stroke-width:1.24541223;stroke-miterlimit:4;stroke-dasharray:none;stroke-opacity:1"
       id="rect4382-2-2"
       width="51.595646"
       height="19.570765"
       x="-284.15015"
       y="335.79309"
       transform="matrix(0.70302279,-0.71116732,0.71116732,0.70302279,0,0)" />
    <rect
       style="fill:none;stroke:#000000;stroke-width:1.24541223;stroke-miterlimit:4;stroke-dasharray:none;stroke-opacity:1"
       id="rect4382-2-9-9"
       width="51.595646"
       height="19.570765"
       x="-330.86819"
       y="381.9761"
       transform="matrix(0.70302279,-0.71116732,0.71116732,0.70302279,0,0)" />
    <rect
       style="fill:none;stroke:#000000;stroke-width:1.24541223;stroke-miterlimit:4;stroke-dasharray:none;stroke-opacity:1"
       id="rect4382-2-3-3"
       width="51.595646"
       height="19.570765"
       x="-377.5863"
       y="428.15915"
       transform="matrix(0.70302279,-0.71116732,0.71116732,0.70302279,0,0)" />
    <rect
       style="fill:none;stroke:#000000;stroke-width:1.24541223;stroke-miterlimit:4;stroke-dasharray:none;stroke-opacity:1"
       id="rect4382-2-9-6-1"
       width="51.595646"
       height="19.570765"
       x="-424.30432"
       y="474.34216"
       transform="matrix(0.70302279,-0.71116732,0.71116732,0.70302279,0,0)" />
    <rect
       style="fill:none;stroke:#000000;stroke-width:1.24541223;stroke-miterlimit:4;stroke-dasharray:none;stroke-opacity:1"
       id="rect4382-2-4"
       width="51.595646"
       height="19.570765"
       x="-471.0224"
       y="520.52521"
       transform="matrix(0.70302279,-0.71116732,0.71116732,0.70302279,0,0)" />
    <rect
       style="fill:none;stroke:#000000;stroke-width:1.24541223;stroke-miterlimit:4;stroke-dasharray:none;stroke-opacity:1"
       id="rect4382-2-9-7"
       width="51.595646"
       height="19.570765"
       x="-517.74042"
       y="566.70825"
       transform="matrix(0.70302279,-0.71116732,0.71116732,0.70302279,0,0)" />
    <rect
       style="fill:none;stroke:#000000;stroke-width:1.24541223;stroke-miterlimit:4;stroke-dasharray:none;stroke-opacity:1"
       id="rect4382-2-3-8"
       width="51.595646"
       height="19.570765"
       x="-564.4585"
       y="612.89124"
       transform="matrix(0.70302279,-0.71116732,0.71116732,0.70302279,0,0)" />
    <rect
       style="fill:none;stroke:#000000;stroke-width:1.24541223;stroke-miterlimit:4;stroke-dasharray:none;stroke-opacity:1"
       id="rect4382-2-9-6-4"
       width="51.595646"
       height="19.570765"
       x="-611.17651"
       y="659.07428"
       transform="matrix(0.70302279,-0.71116732,0.71116732,0.70302279,0,0)" />
    <rect
       style="fill:none;stroke:#000000;stroke-width:1.24541223;stroke-miterlimit:4;stroke-dasharray:none;stroke-opacity:1"
       id="rect4382-2-2-5"
       width="51.595646"
       height="19.570765"
       x="-657.89459"
       y="705.25732"
       transform="matrix(0.70302279,-0.71116732,0.71116732,0.70302279,0,0)" />
    <rect
       style="fill:none;stroke:#000000;stroke-width:1.00779986;stroke-miterlimit:4;stroke-dasharray:none;stroke-opacity:1"
       id="rect4136-1"
       width="87.135063"
       height="1012.8494"
       x="127.86105"
       y="20.223209" />
    <rect
       style="fill:none;stroke:#000000;stroke-width:1.24541223;stroke-miterlimit:4;stroke-dasharray:none;stroke-opacity:1"
       id="rect4382-0"
       width="51.595646"
       height="19.570765"
       x="25.774206"
       y="181.08023"
       transform="matrix(0.70302279,-0.71116732,0.71116732,0.70302279,0,0)" />
    <rect
       style="fill:none;stroke:#000000;stroke-width:1.24541223;stroke-miterlimit:4;stroke-dasharray:none;stroke-opacity:1"
       id="rect4382-2-6"
       width="51.595646"
       height="19.570765"
       x="-20.943872"
       y="227.26329"
       transform="matrix(0.70302279,-0.71116732,0.71116732,0.70302279,0,0)" />
    <rect
       style="fill:none;stroke:#000000;stroke-width:1.24541223;stroke-miterlimit:4;stroke-dasharray:none;stroke-opacity:1"
       id="rect4382-2-9-3"
       width="51.595646"
       height="19.570765"
       x="-67.661949"
       y="273.44632"
       transform="matrix(0.70302279,-0.71116732,0.71116732,0.70302279,0,0)" />
    <rect
       style="fill:none;stroke:#000000;stroke-width:1.24541223;stroke-miterlimit:4;stroke-dasharray:none;stroke-opacity:1"
       id="rect4382-2-3-2"
       width="51.595646"
       height="19.570765"
       x="-114.38"
       y="319.62933"
       transform="matrix(0.70302279,-0.71116732,0.71116732,0.70302279,0,0)" />
    <rect
       style="fill:none;stroke:#000000;stroke-width:1.24541223;stroke-miterlimit:4;stroke-dasharray:none;stroke-opacity:1"
       id="rect4382-2-9-6-0"
       width="51.595646"
       height="19.570765"
       x="-161.09807"
       y="365.81235"
       transform="matrix(0.70302279,-0.71116732,0.71116732,0.70302279,0,0)" />
    <rect
       style="fill:none;stroke:#000000;stroke-width:1.24541223;stroke-miterlimit:4;stroke-dasharray:none;stroke-opacity:1"
       id="rect4382-2-2-6"
       width="51.595646"
       height="19.570765"
       x="-207.81612"
       y="411.99539"
       transform="matrix(0.70302279,-0.71116732,0.71116732,0.70302279,0,0)" />
    <rect
       style="fill:none;stroke:#000000;stroke-width:1.24541223;stroke-miterlimit:4;stroke-dasharray:none;stroke-opacity:1"
       id="rect4382-2-9-9-1"
       width="51.595646"
       height="19.570765"
       x="-254.53416"
       y="458.17841"
       transform="matrix(0.70302279,-0.71116732,0.71116732,0.70302279,0,0)" />
    <rect
       style="fill:none;stroke:#000000;stroke-width:1.24541223;stroke-miterlimit:4;stroke-dasharray:none;stroke-opacity:1"
       id="rect4382-2-3-3-5"
       width="51.595646"
       height="19.570765"
       x="-301.25229"
       y="504.36145"
       transform="matrix(0.70302279,-0.71116732,0.71116732,0.70302279,0,0)" />
    <rect
       style="fill:none;stroke:#000000;stroke-width:1.24541223;stroke-miterlimit:4;stroke-dasharray:none;stroke-opacity:1"
       id="rect4382-2-9-6-1-5"
       width="51.595646"
       height="19.570765"
       x="-347.97028"
       y="550.54443"
       transform="matrix(0.70302279,-0.71116732,0.71116732,0.70302279,0,0)" />
    <rect
       style="fill:none;stroke:#000000;stroke-width:1.24541223;stroke-miterlimit:4;stroke-dasharray:none;stroke-opacity:1"
       id="rect4382-2-4-4"
       width="51.595646"
       height="19.570765"
       x="-394.68839"
       y="596.72748"
       transform="matrix(0.70302279,-0.71116732,0.71116732,0.70302279,0,0)" />
    <rect
       style="fill:none;stroke:#000000;stroke-width:1.24541223;stroke-miterlimit:4;stroke-dasharray:none;stroke-opacity:1"
       id="rect4382-2-9-7-7"
       width="51.595646"
       height="19.570765"
       x="-441.40637"
       y="642.91052"
       transform="matrix(0.70302279,-0.71116732,0.71116732,0.70302279,0,0)" />
    <rect
       style="fill:none;stroke:#000000;stroke-width:1.24541223;stroke-miterlimit:4;stroke-dasharray:none;stroke-opacity:1"
       id="rect4382-2-3-8-6"
       width="51.595646"
       height="19.570765"
       x="-488.12445"
       y="689.09351"
       transform="matrix(0.70302279,-0.71116732,0.71116732,0.70302279,0,0)" />
    <rect
       style="fill:none;stroke:#000000;stroke-width:1.24541223;stroke-miterlimit:4;stroke-dasharray:none;stroke-opacity:1"
       id="rect4382-2-9-6-4-5"
       width="51.595646"
       height="19.570765"
       x="-534.84247"
       y="735.27655"
       transform="matrix(0.70302279,-0.71116732,0.71116732,0.70302279,0,0)" />
    <rect
       style="fill:none;stroke:#000000;stroke-width:1.24541223;stroke-miterlimit:4;stroke-dasharray:none;stroke-opacity:1"
       id="rect4382-2-2-5-6"
       width="51.595646"
       height="19.570765"
       x="-581.56055"
       y="781.45959"
       transform="matrix(0.70302279,-0.71116732,0.71116732,0.70302279,0,0)" />
    <rect
       style="fill:none;stroke:#000000;stroke-width:1.24541223;stroke-miterlimit:4;stroke-dasharray:none;stroke-opacity:1"
       id="rect4382-0-4"
       width="51.595646"
       height="19.570765"
       x="131.44695"
       y="251.99117"
       transform="matrix(0.76224531,-0.64728826,0.64728826,0.76224531,0,0)" />
    <rect
       style="fill:none;stroke:#000000;stroke-width:1.24541223;stroke-miterlimit:4;stroke-dasharray:none;stroke-opacity:1"
       id="rect4382-2-6-9"
       width="51.595646"
       height="19.570765"
       x="89.086533"
       y="301.87469"
       transform="matrix(0.76224531,-0.64728826,0.64728826,0.76224531,0,0)" />
    <rect
       style="fill:none;stroke:#000000;stroke-width:1.24541223;stroke-miterlimit:4;stroke-dasharray:none;stroke-opacity:1"
       id="rect4382-2-9-3-5"
       width="51.595646"
       height="19.570765"
       x="46.726131"
       y="351.75821"
       transform="matrix(0.76224531,-0.64728826,0.64728826,0.76224531,0,0)" />
    <rect
       style="fill:none;stroke:#000000;stroke-width:1.24541223;stroke-miterlimit:4;stroke-dasharray:none;stroke-opacity:1"
       id="rect4382-2-3-2-0"
       width="51.595646"
       height="19.570765"
       x="4.3657541"
       y="401.64169"
       transform="matrix(0.76224531,-0.64728826,0.64728826,0.76224531,0,0)" />
    <rect
       style="fill:none;stroke:#000000;stroke-width:1.24541223;stroke-miterlimit:4;stroke-dasharray:none;stroke-opacity:1"
       id="rect4382-2-9-6-0-4"
       width="51.595646"
       height="19.570765"
       x="-37.994633"
       y="451.52521"
       transform="matrix(0.76224531,-0.64728826,0.64728826,0.76224531,0,0)" />
    <rect
       style="fill:none;stroke:#000000;stroke-width:1.24541223;stroke-miterlimit:4;stroke-dasharray:none;stroke-opacity:1"
       id="rect4382-2-2-6-8"
       width="51.595646"
       height="19.570765"
       x="-80.355026"
       y="501.40872"
       transform="matrix(0.76224531,-0.64728826,0.64728826,0.76224531,0,0)" />
    <rect
       style="fill:none;stroke:#000000;stroke-width:1.24541223;stroke-miterlimit:4;stroke-dasharray:none;stroke-opacity:1"
       id="rect4382-2-9-9-1-7"
       width="51.595646"
       height="19.570765"
       x="-122.71539"
       y="551.29218"
       transform="matrix(0.76224531,-0.64728826,0.64728826,0.76224531,0,0)" />
    <rect
       style="fill:none;stroke:#000000;stroke-width:1.24541223;stroke-miterlimit:4;stroke-dasharray:none;stroke-opacity:1"
       id="rect4382-2-3-3-5-1"
       width="51.595646"
       height="19.570765"
       x="-165.07581"
       y="601.17572"
       transform="matrix(0.76224531,-0.64728826,0.64728826,0.76224531,0,0)" />
    <rect
       style="fill:none;stroke:#000000;stroke-width:1.24541223;stroke-miterlimit:4;stroke-dasharray:none;stroke-opacity:1"
       id="rect4382-2-9-6-1-5-7"
       width="51.595646"
       height="19.570765"
       x="-207.43614"
       y="651.0592"
       transform="matrix(0.76224531,-0.64728826,0.64728826,0.76224531,0,0)" />
    <rect
       style="fill:none;stroke:#000000;stroke-width:1.24541223;stroke-miterlimit:4;stroke-dasharray:none;stroke-opacity:1"
       id="rect4382-2-4-4-2"
       width="51.595646"
       height="19.570765"
       x="-249.79657"
       y="700.94275"
       transform="matrix(0.76224531,-0.64728826,0.64728826,0.76224531,0,0)" />
    <rect
       style="fill:none;stroke:#000000;stroke-width:1.24541223;stroke-miterlimit:4;stroke-dasharray:none;stroke-opacity:1"
       id="rect4382-2-9-7-7-7"
       width="51.595646"
       height="19.570765"
       x="-292.15692"
       y="750.82617"
       transform="matrix(0.76224531,-0.64728826,0.64728826,0.76224531,0,0)" />
    <rect
       style="fill:none;stroke:#000000;stroke-width:1.24541223;stroke-miterlimit:4;stroke-dasharray:none;stroke-opacity:1"
       id="rect4382-2-3-8-6-2"
       width="51.595646"
       height="19.570765"
       x="-334.51727"
       y="800.70966"
       transform="matrix(0.76224531,-0.64728826,0.64728826,0.76224531,0,0)" />
    <rect
       style="fill:none;stroke:#000000;stroke-width:1.24541223;stroke-miterlimit:4;stroke-dasharray:none;stroke-opacity:1"
       id="rect4382-2-9-6-4-5-2"
       width="51.595646"
       height="19.570765"
       x="-376.87766"
       y="850.59314"
       transform="matrix(0.76224531,-0.64728826,0.64728826,0.76224531,0,0)" />
    <rect
       style="fill:none;stroke:#000000;stroke-width:1.24541223;stroke-miterlimit:4;stroke-dasharray:none;stroke-opacity:1"
       id="rect4382-2-2-5-6-6"
       width="51.595646"
       height="19.570765"
       x="-419.23807"
       y="900.47668"
       transform="matrix(0.76224531,-0.64728826,0.64728826,0.76224531,0,0)" />
    <rect
       style="fill:none;stroke:#000000;stroke-width:1.24541223;stroke-miterlimit:4;stroke-dasharray:none;stroke-opacity:1"
       id="rect4382-0-0"
       width="51.595646"
       height="19.570765"
       x="304.74335"
       y="536.93719"
       transform="matrix(0.64684379,-0.76262252,0.76262252,0.64684379,0,0)" />
    <rect
       style="fill:none;stroke:#000000;stroke-width:1.24541223;stroke-miterlimit:4;stroke-dasharray:none;stroke-opacity:1"
       id="rect4382-2-6-6"
       width="51.595646"
       height="19.570765"
       x="254.79045"
       y="579.3064"
       transform="matrix(0.64684379,-0.76262252,0.76262252,0.64684379,0,0)" />
    <rect
       style="fill:none;stroke:#000000;stroke-width:1.24541223;stroke-miterlimit:4;stroke-dasharray:none;stroke-opacity:1"
       id="rect4382-2-9-3-1"
       width="51.595646"
       height="19.570765"
       x="204.83755"
       y="621.67566"
       transform="matrix(0.64684379,-0.76262252,0.76262252,0.64684379,0,0)" />
    <rect
       style="fill:none;stroke:#000000;stroke-width:1.24541223;stroke-miterlimit:4;stroke-dasharray:none;stroke-opacity:1"
       id="rect4382-2-3-2-5"
       width="51.595646"
       height="19.570765"
       x="154.88466"
       y="664.04486"
       transform="matrix(0.64684379,-0.76262252,0.76262252,0.64684379,0,0)" />
    <rect
       style="fill:none;stroke:#000000;stroke-width:1.24541223;stroke-miterlimit:4;stroke-dasharray:none;stroke-opacity:1"
       id="rect4382-2-9-6-0-9"
       width="51.595646"
       height="19.570765"
       x="104.9318"
       y="706.41406"
       transform="matrix(0.64684379,-0.76262252,0.76262252,0.64684379,0,0)" />
    <rect
       style="fill:none;stroke:#000000;stroke-width:1.24541223;stroke-miterlimit:4;stroke-dasharray:none;stroke-opacity:1"
       id="rect4382-2-2-6-4"
       width="51.595646"
       height="19.570765"
       x="54.97892"
       y="748.78326"
       transform="matrix(0.64684379,-0.76262252,0.76262252,0.64684379,0,0)" />
    <rect
       style="fill:none;stroke:#000000;stroke-width:1.24541223;stroke-miterlimit:4;stroke-dasharray:none;stroke-opacity:1"
       id="rect4382-2-9-9-1-9"
       width="51.595646"
       height="19.570765"
       x="5.0260296"
       y="791.15247"
       transform="matrix(0.64684379,-0.76262252,0.76262252,0.64684379,0,0)" />
    <rect
       style="fill:none;stroke:#000000;stroke-width:1.24541223;stroke-miterlimit:4;stroke-dasharray:none;stroke-opacity:1"
       id="rect4382-2-3-3-5-0"
       width="51.595646"
       height="19.570765"
       x="-44.926907"
       y="833.52173"
       transform="matrix(0.64684379,-0.76262252,0.76262252,0.64684379,0,0)" />
    <rect
       style="fill:none;stroke:#000000;stroke-width:1.24541223;stroke-miterlimit:4;stroke-dasharray:none;stroke-opacity:1"
       id="rect4382-2-9-6-1-5-9"
       width="51.595646"
       height="19.570765"
       x="-94.879723"
       y="875.89087"
       transform="matrix(0.64684379,-0.76262252,0.76262252,0.64684379,0,0)" />
    <rect
       style="fill:none;stroke:#000000;stroke-width:1.24541223;stroke-miterlimit:4;stroke-dasharray:none;stroke-opacity:1"
       id="rect4382-2-4-4-1"
       width="51.595646"
       height="19.570765"
       x="-144.83264"
       y="918.26007"
       transform="matrix(0.64684379,-0.76262252,0.76262252,0.64684379,0,0)" />
    <rect
       style="fill:none;stroke:#000000;stroke-width:1.24541223;stroke-miterlimit:4;stroke-dasharray:none;stroke-opacity:1"
       id="rect4382-2-9-7-7-77"
       width="51.595646"
       height="19.570765"
       x="-194.78543"
       y="960.62921"
       transform="matrix(0.64684379,-0.76262252,0.76262252,0.64684379,0,0)" />
    <rect
       style="fill:none;stroke:#000000;stroke-width:1.24541223;stroke-miterlimit:4;stroke-dasharray:none;stroke-opacity:1"
       id="rect4382-2-3-8-6-1"
       width="51.595646"
       height="19.570765"
       x="-244.73828"
       y="1002.9984"
       transform="matrix(0.64684379,-0.76262252,0.76262252,0.64684379,0,0)" />
    <rect
       style="fill:none;stroke:#000000;stroke-width:1.24541223;stroke-miterlimit:4;stroke-dasharray:none;stroke-opacity:1"
       id="rect4382-2-9-6-4-5-1"
       width="51.595646"
       height="19.570765"
       x="-294.69119"
       y="1045.3677"
       transform="matrix(0.64684379,-0.76262252,0.76262252,0.64684379,0,0)" />
    <rect
       style="fill:none;stroke:#000000;stroke-width:1.24541223;stroke-miterlimit:4;stroke-dasharray:none;stroke-opacity:1"
       id="rect4382-2-2-5-6-5"
       width="51.595646"
       height="19.570765"
       x="-344.64404"
       y="1087.7368"
       transform="matrix(0.64684379,-0.76262252,0.76262252,0.64684379,0,0)" />
    <rect
       style="fill:none;stroke:#000000;stroke-width:1.00779986;stroke-miterlimit:4;stroke-dasharray:none;stroke-opacity:1"
       id="rect4136-1-9"
       width="87.135063"
       height="1012.8494"
       x="243.57532"
       y="21.651768" />
    <rect
       style="fill:none;stroke:#000000;stroke-width:1.00779986;stroke-miterlimit:4;stroke-dasharray:none;stroke-opacity:1"
       id="rect4136-1-7"
       width="87.135063"
       height="1012.8494"
       x="587.86102"
       y="20.223219" />
    <rect
       style="fill:none;stroke:#000000;stroke-width:1.24541223;stroke-miterlimit:4;stroke-dasharray:none;stroke-opacity:1"
       id="rect4382-0-4-7"
       width="51.595646"
       height="19.570765"
       x="213.11609"
       y="321.34348"
       transform="matrix(0.76224531,-0.64728826,0.64728826,0.76224531,0,0)" />
    <rect
       style="fill:none;stroke:#000000;stroke-width:1.24541223;stroke-miterlimit:4;stroke-dasharray:none;stroke-opacity:1"
       id="rect4382-2-6-9-6"
       width="51.595646"
       height="19.570765"
       x="170.75568"
       y="371.22702"
       transform="matrix(0.76224531,-0.64728826,0.64728826,0.76224531,0,0)" />
    <rect
       style="fill:none;stroke:#000000;stroke-width:1.24541223;stroke-miterlimit:4;stroke-dasharray:none;stroke-opacity:1"
       id="rect4382-2-9-3-5-7"
       width="51.595646"
       height="19.570765"
       x="128.39526"
       y="421.11057"
       transform="matrix(0.76224531,-0.64728826,0.64728826,0.76224531,0,0)" />
    <rect
       style="fill:none;stroke:#000000;stroke-width:1.24541223;stroke-miterlimit:4;stroke-dasharray:none;stroke-opacity:1"
       id="rect4382-2-3-2-0-3"
       width="51.595646"
       height="19.570765"
       x="86.034897"
       y="470.99405"
       transform="matrix(0.76224531,-0.64728826,0.64728826,0.76224531,0,0)" />
    <rect
       style="fill:none;stroke:#000000;stroke-width:1.24541223;stroke-miterlimit:4;stroke-dasharray:none;stroke-opacity:1"
       id="rect4382-2-9-6-0-4-6"
       width="51.595646"
       height="19.570765"
       x="43.674522"
       y="520.8775"
       transform="matrix(0.76224531,-0.64728826,0.64728826,0.76224531,0,0)" />
    <rect
       style="fill:none;stroke:#000000;stroke-width:1.24541223;stroke-miterlimit:4;stroke-dasharray:none;stroke-opacity:1"
       id="rect4382-2-2-6-8-5"
       width="51.595646"
       height="19.570765"
       x="1.3141246"
       y="570.76105"
       transform="matrix(0.76224531,-0.64728826,0.64728826,0.76224531,0,0)" />
    <rect
       style="fill:none;stroke:#000000;stroke-width:1.24541223;stroke-miterlimit:4;stroke-dasharray:none;stroke-opacity:1"
       id="rect4382-2-9-9-1-7-6"
       width="51.595646"
       height="19.570765"
       x="-41.046242"
       y="620.64447"
       transform="matrix(0.76224531,-0.64728826,0.64728826,0.76224531,0,0)" />
    <rect
       style="fill:none;stroke:#000000;stroke-width:1.24541223;stroke-miterlimit:4;stroke-dasharray:none;stroke-opacity:1"
       id="rect4382-2-3-3-5-1-3"
       width="51.595646"
       height="19.570765"
       x="-83.40667"
       y="670.52802"
       transform="matrix(0.76224531,-0.64728826,0.64728826,0.76224531,0,0)" />
    <rect
       style="fill:none;stroke:#000000;stroke-width:1.24541223;stroke-miterlimit:4;stroke-dasharray:none;stroke-opacity:1"
       id="rect4382-2-9-6-1-5-7-9"
       width="51.595646"
       height="19.570765"
       x="-125.76702"
       y="720.41156"
       transform="matrix(0.76224531,-0.64728826,0.64728826,0.76224531,0,0)" />
    <rect
       style="fill:none;stroke:#000000;stroke-width:1.24541223;stroke-miterlimit:4;stroke-dasharray:none;stroke-opacity:1"
       id="rect4382-2-4-4-2-4"
       width="51.595646"
       height="19.570765"
       x="-168.12744"
       y="770.29498"
       transform="matrix(0.76224531,-0.64728826,0.64728826,0.76224531,0,0)" />
    <rect
       style="fill:none;stroke:#000000;stroke-width:1.24541223;stroke-miterlimit:4;stroke-dasharray:none;stroke-opacity:1"
       id="rect4382-2-9-7-7-7-8"
       width="51.595646"
       height="19.570765"
       x="-210.48779"
       y="820.17841"
       transform="matrix(0.76224531,-0.64728826,0.64728826,0.76224531,0,0)" />
    <rect
       style="fill:none;stroke:#000000;stroke-width:1.24541223;stroke-miterlimit:4;stroke-dasharray:none;stroke-opacity:1"
       id="rect4382-2-3-8-6-2-1"
       width="51.595646"
       height="19.570765"
       x="-252.84814"
       y="870.06195"
       transform="matrix(0.76224531,-0.64728826,0.64728826,0.76224531,0,0)" />
    <rect
       style="fill:none;stroke:#000000;stroke-width:1.24541223;stroke-miterlimit:4;stroke-dasharray:none;stroke-opacity:1"
       id="rect4382-2-9-6-4-5-2-2"
       width="51.595646"
       height="19.570765"
       x="-295.20853"
       y="919.94537"
       transform="matrix(0.76224531,-0.64728826,0.64728826,0.76224531,0,0)" />
    <rect
       style="fill:none;stroke:#000000;stroke-width:1.24541223;stroke-miterlimit:4;stroke-dasharray:none;stroke-opacity:1"
       id="rect4382-2-2-5-6-6-9"
       width="51.595646"
       height="19.570765"
       x="-337.56894"
       y="969.82892"
       transform="matrix(0.76224531,-0.64728826,0.64728826,0.76224531,0,0)" />
    <rect
       style="fill:none;stroke:#000000;stroke-width:1.00779986;stroke-miterlimit:4;stroke-dasharray:none;stroke-opacity:1"
       id="rect4136-1-9-3"
       width="87.135063"
       height="1012.8494"
       x="350.7182"
       y="21.651781" />
    <rect
       style="fill:none;stroke:#000000;stroke-width:1.24541223;stroke-miterlimit:4;stroke-dasharray:none;stroke-opacity:1"
       id="rect4382-0-0-9"
       width="51.595646"
       height="19.570765"
       x="237.1214"
       y="459.4201"
       transform="matrix(0.64684379,-0.76262252,0.76262252,0.64684379,0,0)" />
    <rect
       style="fill:none;stroke:#000000;stroke-width:1.24541223;stroke-miterlimit:4;stroke-dasharray:none;stroke-opacity:1"
       id="rect4382-2-6-6-0"
       width="51.595646"
       height="19.570765"
       x="187.16852"
       y="501.78931"
       transform="matrix(0.64684379,-0.76262252,0.76262252,0.64684379,0,0)" />
    <rect
       style="fill:none;stroke:#000000;stroke-width:1.24541223;stroke-miterlimit:4;stroke-dasharray:none;stroke-opacity:1"
       id="rect4382-2-9-3-1-8"
       width="51.595646"
       height="19.570765"
       x="137.21562"
       y="544.15857"
       transform="matrix(0.64684379,-0.76262252,0.76262252,0.64684379,0,0)" />
    <rect
       style="fill:none;stroke:#000000;stroke-width:1.24541223;stroke-miterlimit:4;stroke-dasharray:none;stroke-opacity:1"
       id="rect4382-2-3-2-5-8"
       width="51.595646"
       height="19.570765"
       x="87.262711"
       y="586.52777"
       transform="matrix(0.64684379,-0.76262252,0.76262252,0.64684379,0,0)" />
    <rect
       style="fill:none;stroke:#000000;stroke-width:1.24541223;stroke-miterlimit:4;stroke-dasharray:none;stroke-opacity:1"
       id="rect4382-2-9-6-0-9-5"
       width="51.595646"
       height="19.570765"
       x="37.309864"
       y="628.89691"
       transform="matrix(0.64684379,-0.76262252,0.76262252,0.64684379,0,0)" />
    <rect
       style="fill:none;stroke:#000000;stroke-width:1.24541223;stroke-miterlimit:4;stroke-dasharray:none;stroke-opacity:1"
       id="rect4382-2-2-6-4-0"
       width="51.595646"
       height="19.570765"
       x="-12.643018"
       y="671.26617"
       transform="matrix(0.64684379,-0.76262252,0.76262252,0.64684379,0,0)" />
    <rect
       style="fill:none;stroke:#000000;stroke-width:1.24541223;stroke-miterlimit:4;stroke-dasharray:none;stroke-opacity:1"
       id="rect4382-2-9-9-1-9-9"
       width="51.595646"
       height="19.570765"
       x="-62.595928"
       y="713.63531"
       transform="matrix(0.64684379,-0.76262252,0.76262252,0.64684379,0,0)" />
    <rect
       style="fill:none;stroke:#000000;stroke-width:1.24541223;stroke-miterlimit:4;stroke-dasharray:none;stroke-opacity:1"
       id="rect4382-2-3-3-5-0-6"
       width="51.595646"
       height="19.570765"
       x="-112.54884"
       y="756.00458"
       transform="matrix(0.64684379,-0.76262252,0.76262252,0.64684379,0,0)" />
    <rect
       style="fill:none;stroke:#000000;stroke-width:1.24541223;stroke-miterlimit:4;stroke-dasharray:none;stroke-opacity:1"
       id="rect4382-2-9-6-1-5-9-3"
       width="51.595646"
       height="19.570765"
       x="-162.50166"
       y="798.37372"
       transform="matrix(0.64684379,-0.76262252,0.76262252,0.64684379,0,0)" />
    <rect
       style="fill:none;stroke:#000000;stroke-width:1.24541223;stroke-miterlimit:4;stroke-dasharray:none;stroke-opacity:1"
       id="rect4382-2-4-4-1-8"
       width="51.595646"
       height="19.570765"
       x="-212.45461"
       y="840.74298"
       transform="matrix(0.64684379,-0.76262252,0.76262252,0.64684379,0,0)" />
    <rect
       style="fill:none;stroke:#000000;stroke-width:1.24541223;stroke-miterlimit:4;stroke-dasharray:none;stroke-opacity:1"
       id="rect4382-2-9-7-7-77-5"
       width="51.595646"
       height="19.570765"
       x="-262.40735"
       y="883.11212"
       transform="matrix(0.64684379,-0.76262252,0.76262252,0.64684379,0,0)" />
    <rect
       style="fill:none;stroke:#000000;stroke-width:1.24541223;stroke-miterlimit:4;stroke-dasharray:none;stroke-opacity:1"
       id="rect4382-2-3-8-6-1-6"
       width="51.595646"
       height="19.570765"
       x="-312.36017"
       y="925.48138"
       transform="matrix(0.64684379,-0.76262252,0.76262252,0.64684379,0,0)" />
    <rect
       style="fill:none;stroke:#000000;stroke-width:1.24541223;stroke-miterlimit:4;stroke-dasharray:none;stroke-opacity:1"
       id="rect4382-2-9-6-4-5-1-1"
       width="51.595646"
       height="19.570765"
       x="-362.31311"
       y="967.85065"
       transform="matrix(0.64684379,-0.76262252,0.76262252,0.64684379,0,0)" />
    <rect
       style="fill:none;stroke:#000000;stroke-width:1.24541223;stroke-miterlimit:4;stroke-dasharray:none;stroke-opacity:1"
       id="rect4382-2-2-5-6-5-1"
       width="51.595646"
       height="19.570765"
       x="-412.26593"
       y="1010.2198"
       transform="matrix(0.64684379,-0.76262252,0.76262252,0.64684379,0,0)" />
    <rect
       style="fill:none;stroke:#000000;stroke-width:1.00779986;stroke-miterlimit:4;stroke-dasharray:none;stroke-opacity:1"
       id="rect4136-1-7-5"
       width="87.135063"
       height="1012.8494"
       x="485.00388"
       y="21.651768" />
    <text
       xml:space="preserve"
       style="font-style:normal;font-weight:normal;font-size:40px;line-height:125%;font-family:sans-serif;letter-spacing:0px;word-spacing:0px;fill:#000000;fill-opacity:1;stroke:none;stroke-width:1px;stroke-linecap:butt;stroke-linejoin:miter;stroke-opacity:1"
       x="53"
       y="62.362206"
       id="text4855"
       sodipodi:linespacing="125%"><tspan
         sodipodi:role="line"
         id="tspan4857"
         x="53"
         y="62.362206">1</tspan></text>
    <text
       xml:space="preserve"
       style="font-style:normal;font-weight:normal;font-size:40px;line-height:125%;font-family:sans-serif;letter-spacing:0px;word-spacing:0px;fill:#000000;fill-opacity:1;stroke:none;stroke-width:1px;stroke-linecap:butt;stroke-linejoin:miter;stroke-opacity:1"
       x="160"
       y="63.362206"
       id="text4859"
       sodipodi:linespacing="125%"><tspan
         sodipodi:role="line"
         id="tspan4861"
         x="160"
         y="63.362206">2</tspan></text>
    <text
       xml:space="preserve"
       style="font-style:normal;font-weight:normal;font-size:40px;line-height:125%;font-family:sans-serif;letter-spacing:0px;word-spacing:0px;fill:#000000;fill-opacity:1;stroke:none;stroke-width:1px;stroke-linecap:butt;stroke-linejoin:miter;stroke-opacity:1"
       x="268"
       y="59.362206"
       id="text4863"
       sodipodi:linespacing="125%"><tspan
         sodipodi:role="line"
         id="tspan4865"
         x="268"
         y="59.362206">3</tspan></text>
    <text
       xml:space="preserve"
       style="font-style:normal;font-weight:normal;font-size:40px;line-height:125%;font-family:sans-serif;letter-spacing:0px;word-spacing:0px;fill:#000000;fill-opacity:1;stroke:none;stroke-width:1px;stroke-linecap:butt;stroke-linejoin:miter;stroke-opacity:1"
       x="380"
       y="58.362206"
       id="text4867"
       sodipodi:linespacing="125%"><tspan
         sodipodi:role="line"
         id="tspan4869"
         x="380"
         y="58.362206">4</tspan></text>
    <text
       xml:space="preserve"
       style="font-style:normal;font-weight:normal;font-size:40px;line-height:125%;font-family:sans-serif;letter-spacing:0px;word-spacing:0px;fill:#000000;fill-opacity:1;stroke:none;stroke-width:1px;stroke-linecap:butt;stroke-linejoin:miter;stroke-opacity:1"
       x="517"
       y="60.362206"
       id="text4871"
       sodipodi:linespacing="125%"><tspan
         sodipodi:role="line"
         id="tspan4873"
         x="517"
         y="60.362206">5</tspan></text>
    <text
       xml:space="preserve"
       style="font-style:normal;font-weight:normal;font-size:40px;line-height:125%;font-family:sans-serif;letter-spacing:0px;word-spacing:0px;fill:#000000;fill-opacity:1;stroke:none;stroke-width:1px;stroke-linecap:butt;stroke-linejoin:miter;stroke-opacity:1"
       x="613"
       y="61.362206"
       id="text4875"
       sodipodi:linespacing="125%"><tspan
         sodipodi:role="line"
         id="tspan4877"
         x="613"
         y="61.362206">6</tspan></text>
  </g>
</svg>
