<?xml version="1.0" encoding="UTF-8" standalone="no"?>
<!-- Created with Inkscape (http://www.inkscape.org/) -->

<svg
   xmlns:dc="http://purl.org/dc/elements/1.1/"
   xmlns:cc="http://creativecommons.org/ns#"
   xmlns:rdf="http://www.w3.org/1999/02/22-rdf-syntax-ns#"
   xmlns:svg="http://www.w3.org/2000/svg"
   xmlns="http://www.w3.org/2000/svg"
   xmlns:sodipodi="http://sodipodi.sourceforge.net/DTD/sodipodi-0.dtd"
   xmlns:inkscape="http://www.inkscape.org/namespaces/inkscape"
   width="210mm"
   height="297mm"
   viewBox="0 0 744.09448819 1052.3622047"
   id="svg2"
   version="1.1"
   inkscape:version="0.91 r13725"
   sodipodi:docname="paper_dna_helix_backbones.svg">
  <defs
     id="defs4" />
  <sodipodi:namedview
     id="base"
     pagecolor="#ffffff"
     bordercolor="#666666"
     borderopacity="1.0"
     inkscape:pageopacity="0.0"
     inkscape:pageshadow="2"
     inkscape:zoom="1"
     inkscape:cx="328.83344"
     inkscape:cy="337.83651"
     inkscape:document-units="px"
     inkscape:current-layer="layer1"
     showgrid="false"
     inkscape:window-width="1600"
     inkscape:window-height="1151"
     inkscape:window-x="0"
     inkscape:window-y="0"
     inkscape:window-maximized="1"
     showguides="false" />
  <metadata
     id="metadata7">
    <rdf:RDF>
      <cc:Work
         rdf:about="">
        <dc:format>image/svg+xml</dc:format>
        <dc:type
           rdf:resource="http://purl.org/dc/dcmitype/StillImage" />
        <dc:title />
      </cc:Work>
    </rdf:RDF>
  </metadata>
  <g
     inkscape:label="Layer 1"
     inkscape:groupmode="layer"
     id="layer1">
    <rect
       style="fill:none;stroke:#000000;stroke-width:1.24541223;stroke-miterlimit:4;stroke-dasharray:none;stroke-opacity:1"
       id="rect4382-0-0"
       width="51.595646"
       height="19.570765"
       x="350.69327"
       y="589.88586"
       transform="matrix(0.64684379,-0.76262252,0.76262252,0.64684379,0,0)" />
    <rect
       style="fill:none;stroke:#000000;stroke-width:1.24541223;stroke-miterlimit:4;stroke-dasharray:none;stroke-opacity:1"
       id="rect4382-2-6-6"
       width="51.595646"
       height="19.570765"
       x="300.74036"
       y="632.25507"
       transform="matrix(0.64684379,-0.76262252,0.76262252,0.64684379,0,0)" />
    <rect
       style="fill:none;stroke:#000000;stroke-width:1.24541223;stroke-miterlimit:4;stroke-dasharray:none;stroke-opacity:1"
       id="rect4382-2-9-3-1"
       width="51.595646"
       height="19.570765"
       x="250.78749"
       y="674.62433"
       transform="matrix(0.64684379,-0.76262252,0.76262252,0.64684379,0,0)" />
    <rect
       style="fill:none;stroke:#000000;stroke-width:1.24541223;stroke-miterlimit:4;stroke-dasharray:none;stroke-opacity:1"
       id="rect4382-2-3-2-5"
       width="51.595646"
       height="19.570765"
       x="200.83461"
       y="716.99353"
       transform="matrix(0.64684379,-0.76262252,0.76262252,0.64684379,0,0)" />
    <rect
       style="fill:none;stroke:#000000;stroke-width:1.24541223;stroke-miterlimit:4;stroke-dasharray:none;stroke-opacity:1"
       id="rect4382-2-9-6-0-9"
       width="51.595646"
       height="19.570765"
       x="150.88171"
       y="759.36279"
       transform="matrix(0.64684379,-0.76262252,0.76262252,0.64684379,0,0)" />
    <rect
       style="fill:none;stroke:#000000;stroke-width:1.24541223;stroke-miterlimit:4;stroke-dasharray:none;stroke-opacity:1"
       id="rect4382-2-2-6-4"
       width="51.595646"
       height="19.570765"
       x="100.92884"
       y="801.73199"
       transform="matrix(0.64684379,-0.76262252,0.76262252,0.64684379,0,0)" />
    <rect
       style="fill:none;stroke:#000000;stroke-width:1.24541223;stroke-miterlimit:4;stroke-dasharray:none;stroke-opacity:1"
       id="rect4382-2-9-9-1-9"
       width="51.595646"
       height="19.570765"
       x="50.97596"
       y="844.1012"
       transform="matrix(0.64684379,-0.76262252,0.76262252,0.64684379,0,0)" />
    <rect
       style="fill:none;stroke:#000000;stroke-width:1.24541223;stroke-miterlimit:4;stroke-dasharray:none;stroke-opacity:1"
       id="rect4382-2-3-3-5-0"
       width="51.595646"
       height="19.570765"
       x="1.0230172"
       y="886.47046"
       transform="matrix(0.64684379,-0.76262252,0.76262252,0.64684379,0,0)" />
    <rect
       style="fill:none;stroke:#000000;stroke-width:1.24541223;stroke-miterlimit:4;stroke-dasharray:none;stroke-opacity:1"
       id="rect4382-2-9-6-1-5-9"
       width="51.595646"
       height="19.570765"
       x="-48.929802"
       y="928.83954"
       transform="matrix(0.64684379,-0.76262252,0.76262252,0.64684379,0,0)" />
    <rect
       style="fill:none;stroke:#000000;stroke-width:1.24541223;stroke-miterlimit:4;stroke-dasharray:none;stroke-opacity:1"
       id="rect4382-2-4-4-1"
       width="51.595646"
       height="19.570765"
       x="-98.882675"
       y="971.20874"
       transform="matrix(0.64684379,-0.76262252,0.76262252,0.64684379,0,0)" />
    <rect
       style="fill:none;stroke:#000000;stroke-width:1.24541223;stroke-miterlimit:4;stroke-dasharray:none;stroke-opacity:1"
       id="rect4382-2-9-7-7-77"
       width="51.595646"
       height="19.570765"
       x="-148.83556"
       y="1013.5779"
       transform="matrix(0.64684379,-0.76262252,0.76262252,0.64684379,0,0)" />
    <rect
       style="fill:none;stroke:#000000;stroke-width:1.24541223;stroke-miterlimit:4;stroke-dasharray:none;stroke-opacity:1"
       id="rect4382-2-3-8-6-1"
       width="51.595646"
       height="19.570765"
       x="-198.78838"
       y="1055.9473"
       transform="matrix(0.64684379,-0.76262252,0.76262252,0.64684379,0,0)" />
    <rect
       style="fill:none;stroke:#000000;stroke-width:1.24541223;stroke-miterlimit:4;stroke-dasharray:none;stroke-opacity:1"
       id="rect4382-2-9-6-4-5-1"
       width="51.595646"
       height="19.570765"
       x="-248.74123"
       y="1098.3164"
       transform="matrix(0.64684379,-0.76262252,0.76262252,0.64684379,0,0)" />
    <rect
       style="fill:none;stroke:#000000;stroke-width:1.24541223;stroke-miterlimit:4;stroke-dasharray:none;stroke-opacity:1"
       id="rect4382-2-2-5-6-5"
       width="51.595646"
       height="19.570765"
       x="-298.69412"
       y="1140.6855"
       transform="matrix(0.64684379,-0.76262252,0.76262252,0.64684379,0,0)" />
    <rect
       style="fill:none;stroke:#000000;stroke-width:1.24541223;stroke-miterlimit:4;stroke-dasharray:none;stroke-opacity:1"
       id="rect4382-0-4-7"
       width="51.595646"
       height="19.570765"
       x="381.02057"
       y="462.58075"
       transform="matrix(0.76224531,-0.64728826,0.64728826,0.76224531,0,0)" />
    <rect
       style="fill:none;stroke:#000000;stroke-width:1.24541223;stroke-miterlimit:4;stroke-dasharray:none;stroke-opacity:1"
       id="rect4382-2-6-9-6"
       width="51.595646"
       height="19.570765"
       x="338.66016"
       y="512.46429"
       transform="matrix(0.76224531,-0.64728826,0.64728826,0.76224531,0,0)" />
    <rect
       style="fill:none;stroke:#000000;stroke-width:1.24541223;stroke-miterlimit:4;stroke-dasharray:none;stroke-opacity:1"
       id="rect4382-2-9-3-5-7"
       width="51.595646"
       height="19.570765"
       x="296.29974"
       y="562.34778"
       transform="matrix(0.76224531,-0.64728826,0.64728826,0.76224531,0,0)" />
    <rect
       style="fill:none;stroke:#000000;stroke-width:1.24541223;stroke-miterlimit:4;stroke-dasharray:none;stroke-opacity:1"
       id="rect4382-2-3-2-0-3"
       width="51.595646"
       height="19.570765"
       x="253.93935"
       y="612.23126"
       transform="matrix(0.76224531,-0.64728826,0.64728826,0.76224531,0,0)" />
    <rect
       style="fill:none;stroke:#000000;stroke-width:1.24541223;stroke-miterlimit:4;stroke-dasharray:none;stroke-opacity:1"
       id="rect4382-2-9-6-0-4-6"
       width="51.595646"
       height="19.570765"
       x="211.57899"
       y="662.11469"
       transform="matrix(0.76224531,-0.64728826,0.64728826,0.76224531,0,0)" />
    <rect
       style="fill:none;stroke:#000000;stroke-width:1.24541223;stroke-miterlimit:4;stroke-dasharray:none;stroke-opacity:1"
       id="rect4382-2-2-6-8-5"
       width="51.595646"
       height="19.570765"
       x="169.21858"
       y="711.99823"
       transform="matrix(0.76224531,-0.64728826,0.64728826,0.76224531,0,0)" />
    <rect
       style="fill:none;stroke:#000000;stroke-width:1.24541223;stroke-miterlimit:4;stroke-dasharray:none;stroke-opacity:1"
       id="rect4382-2-9-9-1-7-6"
       width="51.595646"
       height="19.570765"
       x="126.85822"
       y="761.88165"
       transform="matrix(0.76224531,-0.64728826,0.64728826,0.76224531,0,0)" />
    <rect
       style="fill:none;stroke:#000000;stroke-width:1.24541223;stroke-miterlimit:4;stroke-dasharray:none;stroke-opacity:1"
       id="rect4382-2-3-3-5-1-3"
       width="51.595646"
       height="19.570765"
       x="84.497749"
       y="811.7652"
       transform="matrix(0.76224531,-0.64728826,0.64728826,0.76224531,0,0)" />
    <rect
       style="fill:none;stroke:#000000;stroke-width:1.24541223;stroke-miterlimit:4;stroke-dasharray:none;stroke-opacity:1"
       id="rect4382-2-9-6-1-5-7-9"
       width="51.595646"
       height="19.570765"
       x="42.13739"
       y="861.64874"
       transform="matrix(0.76224531,-0.64728826,0.64728826,0.76224531,0,0)" />
    <rect
       style="fill:none;stroke:#000000;stroke-width:1.24541223;stroke-miterlimit:4;stroke-dasharray:none;stroke-opacity:1"
       id="rect4382-2-4-4-2-4"
       width="51.595646"
       height="19.570765"
       x="-0.22302"
       y="911.53217"
       transform="matrix(0.76224531,-0.64728826,0.64728826,0.76224531,0,0)" />
    <rect
       style="fill:none;stroke:#000000;stroke-width:1.24541223;stroke-miterlimit:4;stroke-dasharray:none;stroke-opacity:1"
       id="rect4382-2-9-7-7-7-8"
       width="51.595646"
       height="19.570765"
       x="-42.583366"
       y="961.41559"
       transform="matrix(0.76224531,-0.64728826,0.64728826,0.76224531,0,0)" />
    <rect
       style="fill:none;stroke:#000000;stroke-width:1.24541223;stroke-miterlimit:4;stroke-dasharray:none;stroke-opacity:1"
       id="rect4382-2-3-8-6-2-1"
       width="51.595646"
       height="19.570765"
       x="-84.943703"
       y="1011.2991"
       transform="matrix(0.76224531,-0.64728826,0.64728826,0.76224531,0,0)" />
    <rect
       style="fill:none;stroke:#000000;stroke-width:1.24541223;stroke-miterlimit:4;stroke-dasharray:none;stroke-opacity:1"
       id="rect4382-2-9-6-4-5-2-2"
       width="51.595646"
       height="19.570765"
       x="-127.30405"
       y="1061.1826"
       transform="matrix(0.76224531,-0.64728826,0.64728826,0.76224531,0,0)" />
    <rect
       style="fill:none;stroke:#000000;stroke-width:1.24541223;stroke-miterlimit:4;stroke-dasharray:none;stroke-opacity:1"
       id="rect4382-2-2-5-6-6-9"
       width="51.595646"
       height="19.570765"
       x="-169.66446"
       y="1111.0663"
       transform="matrix(0.76224531,-0.64728826,0.64728826,0.76224531,0,0)" />
    <text
       xml:space="preserve"
       style="font-style:normal;font-weight:normal;font-size:40px;line-height:125%;font-family:sans-serif;letter-spacing:0px;word-spacing:0px;fill:#000000;fill-opacity:1;stroke:none;stroke-width:1px;stroke-linecap:butt;stroke-linejoin:miter;stroke-opacity:1"
       x="599.40558"
       y="57.337082"
       id="text4867"
       sodipodi:linespacing="125%"><tspan
         sodipodi:role="line"
         id="tspan4869"
         x="599.40558"
         y="57.337082">4</tspan></text>
    <text
       xml:space="preserve"
       style="font-style:normal;font-weight:normal;font-size:40px;line-height:125%;font-family:sans-serif;letter-spacing:0px;word-spacing:0px;fill:#000000;fill-opacity:1;stroke:none;stroke-width:1px;stroke-linecap:butt;stroke-linejoin:miter;stroke-opacity:1"
       x="683.10229"
       y="60.569309"
       id="text4875"
       sodipodi:linespacing="125%"><tspan
         sodipodi:role="line"
         id="tspan4877"
         x="683.10229"
         y="60.569309">6</tspan></text>
    <rect
       style="fill:none;stroke:#000000;stroke-width:1.02726126;stroke-miterlimit:4;stroke-dasharray:none;stroke-opacity:1"
       id="rect4136-3"
       width="87.115593"
       height="1052.58"
       x="570.41339"
       y="-0.33323085" />
    <rect
       style="fill:none;stroke:#000000;stroke-width:1.02726126;stroke-miterlimit:4;stroke-dasharray:none;stroke-opacity:1"
       id="rect4136-6"
       width="87.115593"
       height="1052.58"
       x="657.99084"
       y="-0.33323085" />
    <rect
       style="fill:none;stroke:#000000;stroke-width:1.02726126;stroke-miterlimit:4;stroke-dasharray:none;stroke-opacity:1"
       id="rect4136-78-1"
       width="87.115593"
       height="1052.58"
       x="0.55080462"
       y="-0.33323085" />
    <text
       xml:space="preserve"
       style="font-style:normal;font-weight:normal;font-size:40px;line-height:125%;font-family:sans-serif;letter-spacing:0px;word-spacing:0px;fill:#000000;fill-opacity:1;stroke:none;stroke-width:1px;stroke-linecap:butt;stroke-linejoin:miter;stroke-opacity:1"
       x="33.537178"
       y="63.038456"
       id="text4855-6-3"
       sodipodi:linespacing="125%"><tspan
         sodipodi:role="line"
         id="tspan4857-5-9"
         x="33.537178"
         y="63.038456">1</tspan></text>
    <rect
       style="fill:none;stroke:#000000;stroke-width:1.00690877;stroke-miterlimit:4;stroke-dasharray:none;stroke-opacity:1"
       id="rect4382-3"
       width="33.29533"
       height="19.824013"
       x="-56.134178"
       y="90.850235"
       transform="matrix(0.70078388,-0.71337364,0.70944098,0.70476485,0,0)" />
    <rect
       style="fill:none;stroke:#000000;stroke-width:1.00690877;stroke-miterlimit:4;stroke-dasharray:none;stroke-opacity:1"
       id="rect4382-3-5"
       width="33.29533"
       height="19.824013"
       x="-102.78467"
       y="136.93146"
       transform="matrix(0.70078388,-0.71337364,0.70944098,0.70476485,0,0)" />
    <rect
       style="fill:none;stroke:#000000;stroke-width:1.00690877;stroke-miterlimit:4;stroke-dasharray:none;stroke-opacity:1"
       id="rect4382-3-56"
       width="33.29533"
       height="19.824013"
       x="-149.43513"
       y="183.01266"
       transform="matrix(0.70078388,-0.71337364,0.70944098,0.70476485,0,0)" />
    <rect
       style="fill:none;stroke:#000000;stroke-width:1.00690877;stroke-miterlimit:4;stroke-dasharray:none;stroke-opacity:1"
       id="rect4382-3-9"
       width="33.29533"
       height="19.824013"
       x="-196.08566"
       y="229.09392"
       transform="matrix(0.70078388,-0.71337364,0.70944098,0.70476485,0,0)" />
    <rect
       style="fill:none;stroke:#000000;stroke-width:1.00690877;stroke-miterlimit:4;stroke-dasharray:none;stroke-opacity:1"
       id="rect4382-3-2"
       width="33.29533"
       height="19.824013"
       x="-242.73616"
       y="275.17517"
       transform="matrix(0.70078388,-0.71337364,0.70944098,0.70476485,0,0)" />
    <rect
       style="fill:none;stroke:#000000;stroke-width:1.00690877;stroke-miterlimit:4;stroke-dasharray:none;stroke-opacity:1"
       id="rect4382-3-93"
       width="33.29533"
       height="19.824013"
       x="-289.38666"
       y="321.25641"
       transform="matrix(0.70078388,-0.71337364,0.70944098,0.70476485,0,0)" />
    <rect
       style="fill:none;stroke:#000000;stroke-width:1.00690877;stroke-miterlimit:4;stroke-dasharray:none;stroke-opacity:1"
       id="rect4382-3-0"
       width="33.29533"
       height="19.824013"
       x="-336.03717"
       y="367.33765"
       transform="matrix(0.70078388,-0.71337364,0.70944098,0.70476485,0,0)" />
    <rect
       style="fill:none;stroke:#000000;stroke-width:1.00690877;stroke-miterlimit:4;stroke-dasharray:none;stroke-opacity:1"
       id="rect4382-3-6"
       width="33.29533"
       height="19.824013"
       x="-382.68765"
       y="413.41888"
       transform="matrix(0.70078388,-0.71337364,0.70944098,0.70476485,0,0)" />
    <rect
       style="fill:none;stroke:#000000;stroke-width:1.00690877;stroke-miterlimit:4;stroke-dasharray:none;stroke-opacity:1"
       id="rect4382-3-7"
       width="33.29533"
       height="19.824013"
       x="-429.33813"
       y="459.50009"
       transform="matrix(0.70078388,-0.71337364,0.70944098,0.70476485,0,0)" />
    <rect
       style="fill:none;stroke:#000000;stroke-width:1.00690877;stroke-miterlimit:4;stroke-dasharray:none;stroke-opacity:1"
       id="rect4382-3-20"
       width="33.29533"
       height="19.824013"
       x="-475.98865"
       y="505.58133"
       transform="matrix(0.70078388,-0.71337364,0.70944098,0.70476485,0,0)" />
    <rect
       style="fill:none;stroke:#000000;stroke-width:1.00690877;stroke-miterlimit:4;stroke-dasharray:none;stroke-opacity:1"
       id="rect4382-3-75"
       width="33.29533"
       height="19.824013"
       x="-522.63916"
       y="551.6626"
       transform="matrix(0.70078388,-0.71337364,0.70944098,0.70476485,0,0)" />
    <rect
       style="fill:none;stroke:#000000;stroke-width:1.00690877;stroke-miterlimit:4;stroke-dasharray:none;stroke-opacity:1"
       id="rect4382-3-3"
       width="33.29533"
       height="19.824013"
       x="-569.28961"
       y="597.74377"
       transform="matrix(0.70078388,-0.71337364,0.70944098,0.70476485,0,0)" />
    <rect
       style="fill:none;stroke:#000000;stroke-width:1.00690877;stroke-miterlimit:4;stroke-dasharray:none;stroke-opacity:1"
       id="rect4382-3-29"
       width="33.29533"
       height="19.824013"
       x="-615.94012"
       y="643.82501"
       transform="matrix(0.70078388,-0.71337364,0.70944098,0.70476485,0,0)" />
    <rect
       style="fill:none;stroke:#000000;stroke-width:1.00690877;stroke-miterlimit:4;stroke-dasharray:none;stroke-opacity:1"
       id="rect4382-3-94"
       width="33.29533"
       height="19.824013"
       x="-662.59064"
       y="689.90625"
       transform="matrix(0.70078388,-0.71337364,0.70944098,0.70476485,0,0)" />
    <rect
       style="fill:none;stroke:#000000;stroke-width:1.02726126;stroke-miterlimit:4;stroke-dasharray:none;stroke-opacity:1"
       id="rect4136-78-1-7"
       width="87.115593"
       height="1052.58"
       x="87.630241"
       y="-0.36971807" />
    <text
       xml:space="preserve"
       style="font-style:normal;font-weight:normal;font-size:40px;line-height:125%;font-family:sans-serif;letter-spacing:0px;word-spacing:0px;fill:#000000;fill-opacity:1;stroke:none;stroke-width:1px;stroke-linecap:butt;stroke-linejoin:miter;stroke-opacity:1"
       x="120.61662"
       y="63.001976"
       id="text4855-6-3-6"
       sodipodi:linespacing="125%"><tspan
         sodipodi:role="line"
         id="tspan4857-5-9-5"
         x="120.61662"
         y="63.001976">1</tspan></text>
    <rect
       style="fill:none;stroke:#000000;stroke-width:1.00690877;stroke-miterlimit:4;stroke-dasharray:none;stroke-opacity:1"
       id="rect4382-3-69"
       width="33.29533"
       height="19.824013"
       x="5.2631912"
       y="152.9458"
       transform="matrix(0.70078388,-0.71337364,0.70944098,0.70476485,0,0)" />
    <rect
       style="fill:none;stroke:#000000;stroke-width:1.00690877;stroke-miterlimit:4;stroke-dasharray:none;stroke-opacity:1"
       id="rect4382-3-5-3"
       width="33.29533"
       height="19.824013"
       x="-41.387287"
       y="199.02702"
       transform="matrix(0.70078388,-0.71337364,0.70944098,0.70476485,0,0)" />
    <rect
       style="fill:none;stroke:#000000;stroke-width:1.00690877;stroke-miterlimit:4;stroke-dasharray:none;stroke-opacity:1"
       id="rect4382-3-56-7"
       width="33.29533"
       height="19.824013"
       x="-88.037773"
       y="245.10823"
       transform="matrix(0.70078388,-0.71337364,0.70944098,0.70476485,0,0)" />
    <rect
       style="fill:none;stroke:#000000;stroke-width:1.00690877;stroke-miterlimit:4;stroke-dasharray:none;stroke-opacity:1"
       id="rect4382-3-9-4"
       width="33.29533"
       height="19.824013"
       x="-134.68829"
       y="291.18954"
       transform="matrix(0.70078388,-0.71337364,0.70944098,0.70476485,0,0)" />
    <rect
       style="fill:none;stroke:#000000;stroke-width:1.00690877;stroke-miterlimit:4;stroke-dasharray:none;stroke-opacity:1"
       id="rect4382-3-2-5"
       width="33.29533"
       height="19.824013"
       x="-181.33881"
       y="337.27078"
       transform="matrix(0.70078388,-0.71337364,0.70944098,0.70476485,0,0)" />
    <rect
       style="fill:none;stroke:#000000;stroke-width:1.00690877;stroke-miterlimit:4;stroke-dasharray:none;stroke-opacity:1"
       id="rect4382-3-93-2"
       width="33.29533"
       height="19.824013"
       x="-227.9893"
       y="383.35202"
       transform="matrix(0.70078388,-0.71337364,0.70944098,0.70476485,0,0)" />
    <rect
       style="fill:none;stroke:#000000;stroke-width:1.00690877;stroke-miterlimit:4;stroke-dasharray:none;stroke-opacity:1"
       id="rect4382-3-0-5"
       width="33.29533"
       height="19.824013"
       x="-274.63983"
       y="429.43326"
       transform="matrix(0.70078388,-0.71337364,0.70944098,0.70476485,0,0)" />
    <rect
       style="fill:none;stroke:#000000;stroke-width:1.00690877;stroke-miterlimit:4;stroke-dasharray:none;stroke-opacity:1"
       id="rect4382-3-6-4"
       width="33.29533"
       height="19.824013"
       x="-321.29031"
       y="475.5145"
       transform="matrix(0.70078388,-0.71337364,0.70944098,0.70476485,0,0)" />
    <rect
       style="fill:none;stroke:#000000;stroke-width:1.00690877;stroke-miterlimit:4;stroke-dasharray:none;stroke-opacity:1"
       id="rect4382-3-7-7"
       width="33.29533"
       height="19.824013"
       x="-367.9408"
       y="521.5957"
       transform="matrix(0.70078388,-0.71337364,0.70944098,0.70476485,0,0)" />
    <rect
       style="fill:none;stroke:#000000;stroke-width:1.00690877;stroke-miterlimit:4;stroke-dasharray:none;stroke-opacity:1"
       id="rect4382-3-20-4"
       width="33.29533"
       height="19.824013"
       x="-414.59131"
       y="567.67694"
       transform="matrix(0.70078388,-0.71337364,0.70944098,0.70476485,0,0)" />
    <rect
       style="fill:none;stroke:#000000;stroke-width:1.00690877;stroke-miterlimit:4;stroke-dasharray:none;stroke-opacity:1"
       id="rect4382-3-75-4"
       width="33.29533"
       height="19.824013"
       x="-461.24182"
       y="613.75818"
       transform="matrix(0.70078388,-0.71337364,0.70944098,0.70476485,0,0)" />
    <rect
       style="fill:none;stroke:#000000;stroke-width:1.00690877;stroke-miterlimit:4;stroke-dasharray:none;stroke-opacity:1"
       id="rect4382-3-3-3"
       width="33.29533"
       height="19.824013"
       x="-507.89227"
       y="659.83936"
       transform="matrix(0.70078388,-0.71337364,0.70944098,0.70476485,0,0)" />
    <rect
       style="fill:none;stroke:#000000;stroke-width:1.00690877;stroke-miterlimit:4;stroke-dasharray:none;stroke-opacity:1"
       id="rect4382-3-29-0"
       width="33.29533"
       height="19.824013"
       x="-554.54279"
       y="705.92059"
       transform="matrix(0.70078388,-0.71337364,0.70944098,0.70476485,0,0)" />
    <rect
       style="fill:none;stroke:#000000;stroke-width:1.00690877;stroke-miterlimit:4;stroke-dasharray:none;stroke-opacity:1"
       id="rect4382-3-94-7"
       width="33.29533"
       height="19.824013"
       x="-601.1933"
       y="752.00183"
       transform="matrix(0.70078388,-0.71337364,0.70944098,0.70476485,0,0)" />
    <rect
       style="fill:none;stroke:#000000;stroke-width:1.02726126;stroke-miterlimit:4;stroke-dasharray:none;stroke-opacity:1"
       id="rect4136-78-1-8"
       width="87.115593"
       height="1052.58"
       x="174.5853"
       y="-0.39525545" />
    <text
       xml:space="preserve"
       style="font-style:normal;font-weight:normal;font-size:40px;line-height:125%;font-family:sans-serif;letter-spacing:0px;word-spacing:0px;fill:#000000;fill-opacity:1;stroke:none;stroke-width:1px;stroke-linecap:butt;stroke-linejoin:miter;stroke-opacity:1"
       x="207.57166"
       y="62.976418"
       id="text4855-6-3-68"
       sodipodi:linespacing="125%"><tspan
         sodipodi:role="line"
         id="tspan4857-5-9-8"
         x="207.57166"
         y="62.976418">1</tspan></text>
    <rect
       style="fill:none;stroke:#000000;stroke-width:1.00690877;stroke-miterlimit:4;stroke-dasharray:none;stroke-opacity:1"
       id="rect4382-3-4"
       width="33.29533"
       height="19.824013"
       x="66.56514"
       y="214.96033"
       transform="matrix(0.70078388,-0.71337364,0.70944098,0.70476485,0,0)" />
    <rect
       style="fill:none;stroke:#000000;stroke-width:1.00690877;stroke-miterlimit:4;stroke-dasharray:none;stroke-opacity:1"
       id="rect4382-3-5-31"
       width="33.29533"
       height="19.824013"
       x="19.914656"
       y="261.04153"
       transform="matrix(0.70078388,-0.71337364,0.70944098,0.70476485,0,0)" />
    <rect
       style="fill:none;stroke:#000000;stroke-width:1.00690877;stroke-miterlimit:4;stroke-dasharray:none;stroke-opacity:1"
       id="rect4382-3-56-4"
       width="33.29533"
       height="19.824013"
       x="-26.735826"
       y="307.12274"
       transform="matrix(0.70078388,-0.71337364,0.70944098,0.70476485,0,0)" />
    <rect
       style="fill:none;stroke:#000000;stroke-width:1.00690877;stroke-miterlimit:4;stroke-dasharray:none;stroke-opacity:1"
       id="rect4382-3-9-9"
       width="33.29533"
       height="19.824013"
       x="-73.386353"
       y="353.20398"
       transform="matrix(0.70078388,-0.71337364,0.70944098,0.70476485,0,0)" />
    <rect
       style="fill:none;stroke:#000000;stroke-width:1.00690877;stroke-miterlimit:4;stroke-dasharray:none;stroke-opacity:1"
       id="rect4382-3-2-2"
       width="33.29533"
       height="19.824013"
       x="-120.03685"
       y="399.28525"
       transform="matrix(0.70078388,-0.71337364,0.70944098,0.70476485,0,0)" />
    <rect
       style="fill:none;stroke:#000000;stroke-width:1.00690877;stroke-miterlimit:4;stroke-dasharray:none;stroke-opacity:1"
       id="rect4382-3-93-0"
       width="33.29533"
       height="19.824013"
       x="-166.68733"
       y="445.36649"
       transform="matrix(0.70078388,-0.71337364,0.70944098,0.70476485,0,0)" />
    <rect
       style="fill:none;stroke:#000000;stroke-width:1.00690877;stroke-miterlimit:4;stroke-dasharray:none;stroke-opacity:1"
       id="rect4382-3-0-6"
       width="33.29533"
       height="19.824013"
       x="-213.33784"
       y="491.44772"
       transform="matrix(0.70078388,-0.71337364,0.70944098,0.70476485,0,0)" />
    <rect
       style="fill:none;stroke:#000000;stroke-width:1.00690877;stroke-miterlimit:4;stroke-dasharray:none;stroke-opacity:1"
       id="rect4382-3-6-8"
       width="33.29533"
       height="19.824013"
       x="-259.98831"
       y="537.52899"
       transform="matrix(0.70078388,-0.71337364,0.70944098,0.70476485,0,0)" />
    <rect
       style="fill:none;stroke:#000000;stroke-width:1.00690877;stroke-miterlimit:4;stroke-dasharray:none;stroke-opacity:1"
       id="rect4382-3-7-9"
       width="33.29533"
       height="19.824013"
       x="-306.63879"
       y="583.61017"
       transform="matrix(0.70078388,-0.71337364,0.70944098,0.70476485,0,0)" />
    <rect
       style="fill:none;stroke:#000000;stroke-width:1.00690877;stroke-miterlimit:4;stroke-dasharray:none;stroke-opacity:1"
       id="rect4382-3-20-2"
       width="33.29533"
       height="19.824013"
       x="-353.28931"
       y="629.69141"
       transform="matrix(0.70078388,-0.71337364,0.70944098,0.70476485,0,0)" />
    <rect
       style="fill:none;stroke:#000000;stroke-width:1.00690877;stroke-miterlimit:4;stroke-dasharray:none;stroke-opacity:1"
       id="rect4382-3-75-6"
       width="33.29533"
       height="19.824013"
       x="-399.93982"
       y="675.77271"
       transform="matrix(0.70078388,-0.71337364,0.70944098,0.70476485,0,0)" />
    <rect
       style="fill:none;stroke:#000000;stroke-width:1.00690877;stroke-miterlimit:4;stroke-dasharray:none;stroke-opacity:1"
       id="rect4382-3-3-6"
       width="33.29533"
       height="19.824013"
       x="-446.59027"
       y="721.85388"
       transform="matrix(0.70078388,-0.71337364,0.70944098,0.70476485,0,0)" />
    <rect
       style="fill:none;stroke:#000000;stroke-width:1.00690877;stroke-miterlimit:4;stroke-dasharray:none;stroke-opacity:1"
       id="rect4382-3-29-4"
       width="33.29533"
       height="19.824013"
       x="-493.24078"
       y="767.93512"
       transform="matrix(0.70078388,-0.71337364,0.70944098,0.70476485,0,0)" />
    <rect
       style="fill:none;stroke:#000000;stroke-width:1.00690877;stroke-miterlimit:4;stroke-dasharray:none;stroke-opacity:1"
       id="rect4382-3-94-9"
       width="33.29533"
       height="19.824013"
       x="-539.8913"
       y="814.01636"
       transform="matrix(0.70078388,-0.71337364,0.70944098,0.70476485,0,0)" />
    <rect
       style="fill:none;stroke:#000000;stroke-width:1.02726126;stroke-miterlimit:4;stroke-dasharray:none;stroke-opacity:1"
       id="rect4136-78-1-7-5"
       width="87.115593"
       height="1052.58"
       x="261.66473"
       y="-0.43175447" />
    <text
       xml:space="preserve"
       style="font-style:normal;font-weight:normal;font-size:40px;line-height:125%;font-family:sans-serif;letter-spacing:0px;word-spacing:0px;fill:#000000;fill-opacity:1;stroke:none;stroke-width:1px;stroke-linecap:butt;stroke-linejoin:miter;stroke-opacity:1"
       x="294.65109"
       y="62.939949"
       id="text4855-6-3-6-0"
       sodipodi:linespacing="125%"><tspan
         sodipodi:role="line"
         id="tspan4857-5-9-5-4"
         x="294.65109"
         y="62.939949">1</tspan></text>
    <rect
       style="fill:none;stroke:#000000;stroke-width:1.00690877;stroke-miterlimit:4;stroke-dasharray:none;stroke-opacity:1"
       id="rect4382-3-69-8"
       width="33.29533"
       height="19.824013"
       x="127.9625"
       y="277.05588"
       transform="matrix(0.70078388,-0.71337364,0.70944098,0.70476485,0,0)" />
    <rect
       style="fill:none;stroke:#000000;stroke-width:1.00690877;stroke-miterlimit:4;stroke-dasharray:none;stroke-opacity:1"
       id="rect4382-3-5-3-7"
       width="33.29533"
       height="19.824013"
       x="81.312027"
       y="323.13708"
       transform="matrix(0.70078388,-0.71337364,0.70944098,0.70476485,0,0)" />
    <rect
       style="fill:none;stroke:#000000;stroke-width:1.00690877;stroke-miterlimit:4;stroke-dasharray:none;stroke-opacity:1"
       id="rect4382-3-56-7-1"
       width="33.29533"
       height="19.824013"
       x="34.661545"
       y="369.21829"
       transform="matrix(0.70078388,-0.71337364,0.70944098,0.70476485,0,0)" />
    <rect
       style="fill:none;stroke:#000000;stroke-width:1.00690877;stroke-miterlimit:4;stroke-dasharray:none;stroke-opacity:1"
       id="rect4382-3-9-4-7"
       width="33.29533"
       height="19.824013"
       x="-11.988968"
       y="415.29962"
       transform="matrix(0.70078388,-0.71337364,0.70944098,0.70476485,0,0)" />
    <rect
       style="fill:none;stroke:#000000;stroke-width:1.00690877;stroke-miterlimit:4;stroke-dasharray:none;stroke-opacity:1"
       id="rect4382-3-2-5-2"
       width="33.29533"
       height="19.824013"
       x="-58.639496"
       y="461.38086"
       transform="matrix(0.70078388,-0.71337364,0.70944098,0.70476485,0,0)" />
    <rect
       style="fill:none;stroke:#000000;stroke-width:1.00690877;stroke-miterlimit:4;stroke-dasharray:none;stroke-opacity:1"
       id="rect4382-3-93-2-7"
       width="33.29533"
       height="19.824013"
       x="-105.28999"
       y="507.46213"
       transform="matrix(0.70078388,-0.71337364,0.70944098,0.70476485,0,0)" />
    <rect
       style="fill:none;stroke:#000000;stroke-width:1.00690877;stroke-miterlimit:4;stroke-dasharray:none;stroke-opacity:1"
       id="rect4382-3-0-5-2"
       width="33.29533"
       height="19.824013"
       x="-151.94052"
       y="553.54333"
       transform="matrix(0.70078388,-0.71337364,0.70944098,0.70476485,0,0)" />
    <rect
       style="fill:none;stroke:#000000;stroke-width:1.00690877;stroke-miterlimit:4;stroke-dasharray:none;stroke-opacity:1"
       id="rect4382-3-6-4-2"
       width="33.29533"
       height="19.824013"
       x="-198.59099"
       y="599.62457"
       transform="matrix(0.70078388,-0.71337364,0.70944098,0.70476485,0,0)" />
    <rect
       style="fill:none;stroke:#000000;stroke-width:1.00690877;stroke-miterlimit:4;stroke-dasharray:none;stroke-opacity:1"
       id="rect4382-3-7-7-6"
       width="33.29533"
       height="19.824013"
       x="-245.24147"
       y="645.70581"
       transform="matrix(0.70078388,-0.71337364,0.70944098,0.70476485,0,0)" />
    <rect
       style="fill:none;stroke:#000000;stroke-width:1.00690877;stroke-miterlimit:4;stroke-dasharray:none;stroke-opacity:1"
       id="rect4382-3-20-4-1"
       width="33.29533"
       height="19.824013"
       x="-291.89197"
       y="691.78705"
       transform="matrix(0.70078388,-0.71337364,0.70944098,0.70476485,0,0)" />
    <rect
       style="fill:none;stroke:#000000;stroke-width:1.00690877;stroke-miterlimit:4;stroke-dasharray:none;stroke-opacity:1"
       id="rect4382-3-75-4-0"
       width="33.29533"
       height="19.824013"
       x="-338.54248"
       y="737.86829"
       transform="matrix(0.70078388,-0.71337364,0.70944098,0.70476485,0,0)" />
    <rect
       style="fill:none;stroke:#000000;stroke-width:1.00690877;stroke-miterlimit:4;stroke-dasharray:none;stroke-opacity:1"
       id="rect4382-3-3-3-6"
       width="33.29533"
       height="19.824013"
       x="-385.19293"
       y="783.94946"
       transform="matrix(0.70078388,-0.71337364,0.70944098,0.70476485,0,0)" />
    <rect
       style="fill:none;stroke:#000000;stroke-width:1.00690877;stroke-miterlimit:4;stroke-dasharray:none;stroke-opacity:1"
       id="rect4382-3-29-0-1"
       width="33.29533"
       height="19.824013"
       x="-431.84344"
       y="830.0307"
       transform="matrix(0.70078388,-0.71337364,0.70944098,0.70476485,0,0)" />
    <rect
       style="fill:none;stroke:#000000;stroke-width:1.00690877;stroke-miterlimit:4;stroke-dasharray:none;stroke-opacity:1"
       id="rect4382-3-94-7-5"
       width="33.29533"
       height="19.824013"
       x="-478.49396"
       y="876.11194"
       transform="matrix(0.70078388,-0.71337364,0.70944098,0.70476485,0,0)" />
    <rect
       style="fill:none;stroke:#000000;stroke-width:1.02726126;stroke-miterlimit:4;stroke-dasharray:none;stroke-opacity:1"
       id="rect4136-78-1-8-9"
       width="87.115593"
       height="1052.58"
       x="348.65701"
       y="-0.43891135" />
    <text
       xml:space="preserve"
       style="font-style:normal;font-weight:normal;font-size:40px;line-height:125%;font-family:sans-serif;letter-spacing:0px;word-spacing:0px;fill:#000000;fill-opacity:1;stroke:none;stroke-width:1px;stroke-linecap:butt;stroke-linejoin:miter;stroke-opacity:1"
       x="381.64337"
       y="62.932762"
       id="text4855-6-3-68-4"
       sodipodi:linespacing="125%"><tspan
         sodipodi:role="line"
         id="tspan4857-5-9-8-9"
         x="381.64337"
         y="62.932762">1</tspan></text>
    <rect
       style="fill:none;stroke:#000000;stroke-width:1.00690877;stroke-miterlimit:4;stroke-dasharray:none;stroke-opacity:1"
       id="rect4382-3-4-0"
       width="33.29533"
       height="19.824013"
       x="189.27768"
       y="339.10986"
       transform="matrix(0.70078388,-0.71337364,0.70944098,0.70476485,0,0)" />
    <rect
       style="fill:none;stroke:#000000;stroke-width:1.00690877;stroke-miterlimit:4;stroke-dasharray:none;stroke-opacity:1"
       id="rect4382-3-5-31-9"
       width="33.29533"
       height="19.824013"
       x="142.6272"
       y="385.19107"
       transform="matrix(0.70078388,-0.71337364,0.70944098,0.70476485,0,0)" />
    <rect
       style="fill:none;stroke:#000000;stroke-width:1.00690877;stroke-miterlimit:4;stroke-dasharray:none;stroke-opacity:1"
       id="rect4382-3-56-4-1"
       width="33.29533"
       height="19.824013"
       x="95.976707"
       y="431.27228"
       transform="matrix(0.70078388,-0.71337364,0.70944098,0.70476485,0,0)" />
    <rect
       style="fill:none;stroke:#000000;stroke-width:1.00690877;stroke-miterlimit:4;stroke-dasharray:none;stroke-opacity:1"
       id="rect4382-3-9-9-7"
       width="33.29533"
       height="19.824013"
       x="49.326183"
       y="477.35352"
       transform="matrix(0.70078388,-0.71337364,0.70944098,0.70476485,0,0)" />
    <rect
       style="fill:none;stroke:#000000;stroke-width:1.00690877;stroke-miterlimit:4;stroke-dasharray:none;stroke-opacity:1"
       id="rect4382-3-2-2-7"
       width="33.29533"
       height="19.824013"
       x="2.6756866"
       y="523.43481"
       transform="matrix(0.70078388,-0.71337364,0.70944098,0.70476485,0,0)" />
    <rect
       style="fill:none;stroke:#000000;stroke-width:1.00690877;stroke-miterlimit:4;stroke-dasharray:none;stroke-opacity:1"
       id="rect4382-3-93-0-1"
       width="33.29533"
       height="19.824013"
       x="-43.974796"
       y="569.51605"
       transform="matrix(0.70078388,-0.71337364,0.70944098,0.70476485,0,0)" />
    <rect
       style="fill:none;stroke:#000000;stroke-width:1.00690877;stroke-miterlimit:4;stroke-dasharray:none;stroke-opacity:1"
       id="rect4382-3-0-6-1"
       width="33.29533"
       height="19.824013"
       x="-90.625313"
       y="615.59729"
       transform="matrix(0.70078388,-0.71337364,0.70944098,0.70476485,0,0)" />
    <rect
       style="fill:none;stroke:#000000;stroke-width:1.00690877;stroke-miterlimit:4;stroke-dasharray:none;stroke-opacity:1"
       id="rect4382-3-6-8-5"
       width="33.29533"
       height="19.824013"
       x="-137.27576"
       y="661.67853"
       transform="matrix(0.70078388,-0.71337364,0.70944098,0.70476485,0,0)" />
    <rect
       style="fill:none;stroke:#000000;stroke-width:1.00690877;stroke-miterlimit:4;stroke-dasharray:none;stroke-opacity:1"
       id="rect4382-3-7-9-9"
       width="33.29533"
       height="19.824013"
       x="-183.92624"
       y="707.7597"
       transform="matrix(0.70078388,-0.71337364,0.70944098,0.70476485,0,0)" />
    <rect
       style="fill:none;stroke:#000000;stroke-width:1.00690877;stroke-miterlimit:4;stroke-dasharray:none;stroke-opacity:1"
       id="rect4382-3-20-2-7"
       width="33.29533"
       height="19.824013"
       x="-230.57675"
       y="753.84094"
       transform="matrix(0.70078388,-0.71337364,0.70944098,0.70476485,0,0)" />
    <rect
       style="fill:none;stroke:#000000;stroke-width:1.00690877;stroke-miterlimit:4;stroke-dasharray:none;stroke-opacity:1"
       id="rect4382-3-75-6-7"
       width="33.29533"
       height="19.824013"
       x="-277.22729"
       y="799.92224"
       transform="matrix(0.70078388,-0.71337364,0.70944098,0.70476485,0,0)" />
    <rect
       style="fill:none;stroke:#000000;stroke-width:1.00690877;stroke-miterlimit:4;stroke-dasharray:none;stroke-opacity:1"
       id="rect4382-3-3-6-6"
       width="33.29533"
       height="19.824013"
       x="-323.87775"
       y="846.00342"
       transform="matrix(0.70078388,-0.71337364,0.70944098,0.70476485,0,0)" />
    <rect
       style="fill:none;stroke:#000000;stroke-width:1.00690877;stroke-miterlimit:4;stroke-dasharray:none;stroke-opacity:1"
       id="rect4382-3-29-4-7"
       width="33.29533"
       height="19.824013"
       x="-370.52826"
       y="892.08466"
       transform="matrix(0.70078388,-0.71337364,0.70944098,0.70476485,0,0)" />
    <rect
       style="fill:none;stroke:#000000;stroke-width:1.00690877;stroke-miterlimit:4;stroke-dasharray:none;stroke-opacity:1"
       id="rect4382-3-94-9-3"
       width="33.29533"
       height="19.824013"
       x="-417.17877"
       y="938.16589"
       transform="matrix(0.70078388,-0.71337364,0.70944098,0.70476485,0,0)" />
    <rect
       style="fill:none;stroke:#000000;stroke-width:1.02726126;stroke-miterlimit:4;stroke-dasharray:none;stroke-opacity:1"
       id="rect4136-78-1-7-5-6"
       width="87.115593"
       height="1052.58"
       x="435.73645"
       y="-0.47541037" />
    <text
       xml:space="preserve"
       style="font-style:normal;font-weight:normal;font-size:40px;line-height:125%;font-family:sans-serif;letter-spacing:0px;word-spacing:0px;fill:#000000;fill-opacity:1;stroke:none;stroke-width:1px;stroke-linecap:butt;stroke-linejoin:miter;stroke-opacity:1"
       x="468.72281"
       y="62.896294"
       id="text4855-6-3-6-0-5"
       sodipodi:linespacing="125%"><tspan
         sodipodi:role="line"
         id="tspan4857-5-9-5-4-6"
         x="468.72281"
         y="62.896294">1</tspan></text>
    <rect
       style="fill:none;stroke:#000000;stroke-width:1.00690877;stroke-miterlimit:4;stroke-dasharray:none;stroke-opacity:1"
       id="rect4382-3-69-8-3"
       width="33.29533"
       height="19.824013"
       x="250.67506"
       y="401.20541"
       transform="matrix(0.70078388,-0.71337364,0.70944098,0.70476485,0,0)" />
    <rect
       style="fill:none;stroke:#000000;stroke-width:1.00690877;stroke-miterlimit:4;stroke-dasharray:none;stroke-opacity:1"
       id="rect4382-3-5-3-7-9"
       width="33.29533"
       height="19.824013"
       x="204.02457"
       y="447.28662"
       transform="matrix(0.70078388,-0.71337364,0.70944098,0.70476485,0,0)" />
    <rect
       style="fill:none;stroke:#000000;stroke-width:1.00690877;stroke-miterlimit:4;stroke-dasharray:none;stroke-opacity:1"
       id="rect4382-3-56-7-1-4"
       width="33.29533"
       height="19.824013"
       x="157.37408"
       y="493.36786"
       transform="matrix(0.70078388,-0.71337364,0.70944098,0.70476485,0,0)" />
    <rect
       style="fill:none;stroke:#000000;stroke-width:1.00690877;stroke-miterlimit:4;stroke-dasharray:none;stroke-opacity:1"
       id="rect4382-3-9-4-7-8"
       width="33.29533"
       height="19.824013"
       x="110.72356"
       y="539.44916"
       transform="matrix(0.70078388,-0.71337364,0.70944098,0.70476485,0,0)" />
    <rect
       style="fill:none;stroke:#000000;stroke-width:1.00690877;stroke-miterlimit:4;stroke-dasharray:none;stroke-opacity:1"
       id="rect4382-3-2-5-2-1"
       width="33.29533"
       height="19.824013"
       x="64.073036"
       y="585.5304"
       transform="matrix(0.70078388,-0.71337364,0.70944098,0.70476485,0,0)" />
    <rect
       style="fill:none;stroke:#000000;stroke-width:1.00690877;stroke-miterlimit:4;stroke-dasharray:none;stroke-opacity:1"
       id="rect4382-3-93-2-7-2"
       width="33.29533"
       height="19.824013"
       x="17.422543"
       y="631.61169"
       transform="matrix(0.70078388,-0.71337364,0.70944098,0.70476485,0,0)" />
    <rect
       style="fill:none;stroke:#000000;stroke-width:1.00690877;stroke-miterlimit:4;stroke-dasharray:none;stroke-opacity:1"
       id="rect4382-3-0-5-2-9"
       width="33.29533"
       height="19.824013"
       x="-29.22797"
       y="677.69287"
       transform="matrix(0.70078388,-0.71337364,0.70944098,0.70476485,0,0)" />
    <rect
       style="fill:none;stroke:#000000;stroke-width:1.00690877;stroke-miterlimit:4;stroke-dasharray:none;stroke-opacity:1"
       id="rect4382-3-6-4-2-3"
       width="33.29533"
       height="19.824013"
       x="-75.878456"
       y="723.77411"
       transform="matrix(0.70078388,-0.71337364,0.70944098,0.70476485,0,0)" />
    <rect
       style="fill:none;stroke:#000000;stroke-width:1.00690877;stroke-miterlimit:4;stroke-dasharray:none;stroke-opacity:1"
       id="rect4382-3-7-7-6-9"
       width="33.29533"
       height="19.824013"
       x="-122.52895"
       y="769.85535"
       transform="matrix(0.70078388,-0.71337364,0.70944098,0.70476485,0,0)" />
    <rect
       style="fill:none;stroke:#000000;stroke-width:1.00690877;stroke-miterlimit:4;stroke-dasharray:none;stroke-opacity:1"
       id="rect4382-3-20-4-1-0"
       width="33.29533"
       height="19.824013"
       x="-169.17941"
       y="815.93658"
       transform="matrix(0.70078388,-0.71337364,0.70944098,0.70476485,0,0)" />
    <rect
       style="fill:none;stroke:#000000;stroke-width:1.00690877;stroke-miterlimit:4;stroke-dasharray:none;stroke-opacity:1"
       id="rect4382-3-75-4-0-8"
       width="33.29533"
       height="19.824013"
       x="-215.82993"
       y="862.01782"
       transform="matrix(0.70078388,-0.71337364,0.70944098,0.70476485,0,0)" />
    <rect
       style="fill:none;stroke:#000000;stroke-width:1.00690877;stroke-miterlimit:4;stroke-dasharray:none;stroke-opacity:1"
       id="rect4382-3-3-3-6-8"
       width="33.29533"
       height="19.824013"
       x="-262.48038"
       y="908.099"
       transform="matrix(0.70078388,-0.71337364,0.70944098,0.70476485,0,0)" />
    <rect
       style="fill:none;stroke:#000000;stroke-width:1.00690877;stroke-miterlimit:4;stroke-dasharray:none;stroke-opacity:1"
       id="rect4382-3-29-0-1-5"
       width="33.29533"
       height="19.824013"
       x="-309.13092"
       y="954.18024"
       transform="matrix(0.70078388,-0.71337364,0.70944098,0.70476485,0,0)" />
    <rect
       style="fill:none;stroke:#000000;stroke-width:1.00690877;stroke-miterlimit:4;stroke-dasharray:none;stroke-opacity:1"
       id="rect4382-3-94-7-5-0"
       width="33.29533"
       height="19.824013"
       x="-355.78143"
       y="1000.2614"
       transform="matrix(0.70078388,-0.71337364,0.70944098,0.70476485,0,0)" />
  </g>
</svg>
