<?xml version="1.0" encoding="UTF-8" standalone="no"?>
<!-- Created with Inkscape (http://www.inkscape.org/) -->

<svg
   xmlns:dc="http://purl.org/dc/elements/1.1/"
   xmlns:cc="http://creativecommons.org/ns#"
   xmlns:rdf="http://www.w3.org/1999/02/22-rdf-syntax-ns#"
   xmlns:svg="http://www.w3.org/2000/svg"
   xmlns="http://www.w3.org/2000/svg"
   xmlns:sodipodi="http://sodipodi.sourceforge.net/DTD/sodipodi-0.dtd"
   xmlns:inkscape="http://www.inkscape.org/namespaces/inkscape"
   width="210mm"
   height="297mm"
   viewBox="0 0 744.09448819 1052.3622047"
   id="svg2"
   version="1.1"
   inkscape:version="0.91 r13725"
   sodipodi:docname="paper_dna_helix_backbones.svg">
  <defs
     id="defs4" />
  <sodipodi:namedview
     id="base"
     pagecolor="#ffffff"
     bordercolor="#666666"
     borderopacity="1.0"
     inkscape:pageopacity="0.0"
     inkscape:pageshadow="2"
     inkscape:zoom="0.70710678"
     inkscape:cx="341.11174"
     inkscape:cy="518.77402"
     inkscape:document-units="px"
     inkscape:current-layer="layer1"
     showgrid="false"
     inkscape:window-width="1600"
     inkscape:window-height="1151"
     inkscape:window-x="0"
     inkscape:window-y="0"
     inkscape:window-maximized="1"
     showguides="false" />
  <metadata
     id="metadata7">
    <rdf:RDF>
      <cc:Work
         rdf:about="">
        <dc:format>image/svg+xml</dc:format>
        <dc:type
           rdf:resource="http://purl.org/dc/dcmitype/StillImage" />
        <dc:title />
      </cc:Work>
    </rdf:RDF>
  </metadata>
  <g
     inkscape:label="Layer 1"
     inkscape:groupmode="layer"
     id="layer1">
    <rect
       style="fill:none;stroke:#000000;stroke-width:1.02726126;stroke-miterlimit:4;stroke-dasharray:none;stroke-opacity:1"
       id="rect4136"
       width="87.115593"
       height="1052.58"
       x="175.22357"
       y="1.0079232" />
    <rect
       style="fill:none;stroke:#000000;stroke-width:1.24541223;stroke-miterlimit:4;stroke-dasharray:none;stroke-opacity:1"
       id="rect4382"
       width="51.595646"
       height="19.570765"
       x="57.801983"
       y="216.00386"
       transform="matrix(0.70302279,-0.71116732,0.71116732,0.70302279,0,0)" />
    <rect
       style="fill:none;stroke:#000000;stroke-width:1.24541223;stroke-miterlimit:4;stroke-dasharray:none;stroke-opacity:1"
       id="rect4382-2"
       width="51.595646"
       height="19.570765"
       x="11.0839"
       y="262.18692"
       transform="matrix(0.70302279,-0.71116732,0.71116732,0.70302279,0,0)" />
    <rect
       style="fill:none;stroke:#000000;stroke-width:1.24541223;stroke-miterlimit:4;stroke-dasharray:none;stroke-opacity:1"
       id="rect4382-2-9"
       width="51.595646"
       height="19.570765"
       x="-35.634167"
       y="308.36996"
       transform="matrix(0.70302279,-0.71116732,0.71116732,0.70302279,0,0)" />
    <rect
       style="fill:none;stroke:#000000;stroke-width:1.24541223;stroke-miterlimit:4;stroke-dasharray:none;stroke-opacity:1"
       id="rect4382-2-3"
       width="51.595646"
       height="19.570765"
       x="-82.352203"
       y="354.55298"
       transform="matrix(0.70302279,-0.71116732,0.71116732,0.70302279,0,0)" />
    <rect
       style="fill:none;stroke:#000000;stroke-width:1.24541223;stroke-miterlimit:4;stroke-dasharray:none;stroke-opacity:1"
       id="rect4382-2-9-6"
       width="51.595646"
       height="19.570765"
       x="-129.07028"
       y="400.73596"
       transform="matrix(0.70302279,-0.71116732,0.71116732,0.70302279,0,0)" />
    <rect
       style="fill:none;stroke:#000000;stroke-width:1.24541223;stroke-miterlimit:4;stroke-dasharray:none;stroke-opacity:1"
       id="rect4382-2-2"
       width="51.595646"
       height="19.570765"
       x="-175.78833"
       y="446.91901"
       transform="matrix(0.70302279,-0.71116732,0.71116732,0.70302279,0,0)" />
    <rect
       style="fill:none;stroke:#000000;stroke-width:1.24541223;stroke-miterlimit:4;stroke-dasharray:none;stroke-opacity:1"
       id="rect4382-2-9-9"
       width="51.595646"
       height="19.570765"
       x="-222.50638"
       y="493.10202"
       transform="matrix(0.70302279,-0.71116732,0.71116732,0.70302279,0,0)" />
    <rect
       style="fill:none;stroke:#000000;stroke-width:1.24541223;stroke-miterlimit:4;stroke-dasharray:none;stroke-opacity:1"
       id="rect4382-2-3-3"
       width="51.595646"
       height="19.570765"
       x="-269.22449"
       y="539.28503"
       transform="matrix(0.70302279,-0.71116732,0.71116732,0.70302279,0,0)" />
    <rect
       style="fill:none;stroke:#000000;stroke-width:1.24541223;stroke-miterlimit:4;stroke-dasharray:none;stroke-opacity:1"
       id="rect4382-2-9-6-1"
       width="51.595646"
       height="19.570765"
       x="-315.9425"
       y="585.46808"
       transform="matrix(0.70302279,-0.71116732,0.71116732,0.70302279,0,0)" />
    <rect
       style="fill:none;stroke:#000000;stroke-width:1.24541223;stroke-miterlimit:4;stroke-dasharray:none;stroke-opacity:1"
       id="rect4382-2-4"
       width="51.595646"
       height="19.570765"
       x="-362.66058"
       y="631.65112"
       transform="matrix(0.70302279,-0.71116732,0.71116732,0.70302279,0,0)" />
    <rect
       style="fill:none;stroke:#000000;stroke-width:1.24541223;stroke-miterlimit:4;stroke-dasharray:none;stroke-opacity:1"
       id="rect4382-2-9-7"
       width="51.595646"
       height="19.570765"
       x="-409.3786"
       y="677.83417"
       transform="matrix(0.70302279,-0.71116732,0.71116732,0.70302279,0,0)" />
    <rect
       style="fill:none;stroke:#000000;stroke-width:1.24541223;stroke-miterlimit:4;stroke-dasharray:none;stroke-opacity:1"
       id="rect4382-2-3-8"
       width="51.595646"
       height="19.570765"
       x="-456.09668"
       y="724.01715"
       transform="matrix(0.70302279,-0.71116732,0.71116732,0.70302279,0,0)" />
    <rect
       style="fill:none;stroke:#000000;stroke-width:1.24541223;stroke-miterlimit:4;stroke-dasharray:none;stroke-opacity:1"
       id="rect4382-2-9-6-4"
       width="51.595646"
       height="19.570765"
       x="-502.8147"
       y="770.2002"
       transform="matrix(0.70302279,-0.71116732,0.71116732,0.70302279,0,0)" />
    <rect
       style="fill:none;stroke:#000000;stroke-width:1.24541223;stroke-miterlimit:4;stroke-dasharray:none;stroke-opacity:1"
       id="rect4382-2-2-5"
       width="51.595646"
       height="19.570765"
       x="-549.53278"
       y="816.38324"
       transform="matrix(0.70302279,-0.71116732,0.71116732,0.70302279,0,0)" />
    <rect
       style="fill:none;stroke:#000000;stroke-width:1.24541223;stroke-miterlimit:4;stroke-dasharray:none;stroke-opacity:1"
       id="rect4382-0-0"
       width="51.595646"
       height="19.570765"
       x="350.69327"
       y="589.88586"
       transform="matrix(0.64684379,-0.76262252,0.76262252,0.64684379,0,0)" />
    <rect
       style="fill:none;stroke:#000000;stroke-width:1.24541223;stroke-miterlimit:4;stroke-dasharray:none;stroke-opacity:1"
       id="rect4382-2-6-6"
       width="51.595646"
       height="19.570765"
       x="300.74036"
       y="632.25507"
       transform="matrix(0.64684379,-0.76262252,0.76262252,0.64684379,0,0)" />
    <rect
       style="fill:none;stroke:#000000;stroke-width:1.24541223;stroke-miterlimit:4;stroke-dasharray:none;stroke-opacity:1"
       id="rect4382-2-9-3-1"
       width="51.595646"
       height="19.570765"
       x="250.78749"
       y="674.62433"
       transform="matrix(0.64684379,-0.76262252,0.76262252,0.64684379,0,0)" />
    <rect
       style="fill:none;stroke:#000000;stroke-width:1.24541223;stroke-miterlimit:4;stroke-dasharray:none;stroke-opacity:1"
       id="rect4382-2-3-2-5"
       width="51.595646"
       height="19.570765"
       x="200.83461"
       y="716.99353"
       transform="matrix(0.64684379,-0.76262252,0.76262252,0.64684379,0,0)" />
    <rect
       style="fill:none;stroke:#000000;stroke-width:1.24541223;stroke-miterlimit:4;stroke-dasharray:none;stroke-opacity:1"
       id="rect4382-2-9-6-0-9"
       width="51.595646"
       height="19.570765"
       x="150.88171"
       y="759.36279"
       transform="matrix(0.64684379,-0.76262252,0.76262252,0.64684379,0,0)" />
    <rect
       style="fill:none;stroke:#000000;stroke-width:1.24541223;stroke-miterlimit:4;stroke-dasharray:none;stroke-opacity:1"
       id="rect4382-2-2-6-4"
       width="51.595646"
       height="19.570765"
       x="100.92884"
       y="801.73199"
       transform="matrix(0.64684379,-0.76262252,0.76262252,0.64684379,0,0)" />
    <rect
       style="fill:none;stroke:#000000;stroke-width:1.24541223;stroke-miterlimit:4;stroke-dasharray:none;stroke-opacity:1"
       id="rect4382-2-9-9-1-9"
       width="51.595646"
       height="19.570765"
       x="50.97596"
       y="844.1012"
       transform="matrix(0.64684379,-0.76262252,0.76262252,0.64684379,0,0)" />
    <rect
       style="fill:none;stroke:#000000;stroke-width:1.24541223;stroke-miterlimit:4;stroke-dasharray:none;stroke-opacity:1"
       id="rect4382-2-3-3-5-0"
       width="51.595646"
       height="19.570765"
       x="1.0230172"
       y="886.47046"
       transform="matrix(0.64684379,-0.76262252,0.76262252,0.64684379,0,0)" />
    <rect
       style="fill:none;stroke:#000000;stroke-width:1.24541223;stroke-miterlimit:4;stroke-dasharray:none;stroke-opacity:1"
       id="rect4382-2-9-6-1-5-9"
       width="51.595646"
       height="19.570765"
       x="-48.929802"
       y="928.83954"
       transform="matrix(0.64684379,-0.76262252,0.76262252,0.64684379,0,0)" />
    <rect
       style="fill:none;stroke:#000000;stroke-width:1.24541223;stroke-miterlimit:4;stroke-dasharray:none;stroke-opacity:1"
       id="rect4382-2-4-4-1"
       width="51.595646"
       height="19.570765"
       x="-98.882675"
       y="971.20874"
       transform="matrix(0.64684379,-0.76262252,0.76262252,0.64684379,0,0)" />
    <rect
       style="fill:none;stroke:#000000;stroke-width:1.24541223;stroke-miterlimit:4;stroke-dasharray:none;stroke-opacity:1"
       id="rect4382-2-9-7-7-77"
       width="51.595646"
       height="19.570765"
       x="-148.83556"
       y="1013.5779"
       transform="matrix(0.64684379,-0.76262252,0.76262252,0.64684379,0,0)" />
    <rect
       style="fill:none;stroke:#000000;stroke-width:1.24541223;stroke-miterlimit:4;stroke-dasharray:none;stroke-opacity:1"
       id="rect4382-2-3-8-6-1"
       width="51.595646"
       height="19.570765"
       x="-198.78838"
       y="1055.9473"
       transform="matrix(0.64684379,-0.76262252,0.76262252,0.64684379,0,0)" />
    <rect
       style="fill:none;stroke:#000000;stroke-width:1.24541223;stroke-miterlimit:4;stroke-dasharray:none;stroke-opacity:1"
       id="rect4382-2-9-6-4-5-1"
       width="51.595646"
       height="19.570765"
       x="-248.74123"
       y="1098.3164"
       transform="matrix(0.64684379,-0.76262252,0.76262252,0.64684379,0,0)" />
    <rect
       style="fill:none;stroke:#000000;stroke-width:1.24541223;stroke-miterlimit:4;stroke-dasharray:none;stroke-opacity:1"
       id="rect4382-2-2-5-6-5"
       width="51.595646"
       height="19.570765"
       x="-298.69412"
       y="1140.6855"
       transform="matrix(0.64684379,-0.76262252,0.76262252,0.64684379,0,0)" />
    <rect
       style="fill:none;stroke:#000000;stroke-width:1.24541223;stroke-miterlimit:4;stroke-dasharray:none;stroke-opacity:1"
       id="rect4382-0-4-7"
       width="51.595646"
       height="19.570765"
       x="381.02057"
       y="462.58075"
       transform="matrix(0.76224531,-0.64728826,0.64728826,0.76224531,0,0)" />
    <rect
       style="fill:none;stroke:#000000;stroke-width:1.24541223;stroke-miterlimit:4;stroke-dasharray:none;stroke-opacity:1"
       id="rect4382-2-6-9-6"
       width="51.595646"
       height="19.570765"
       x="338.66016"
       y="512.46429"
       transform="matrix(0.76224531,-0.64728826,0.64728826,0.76224531,0,0)" />
    <rect
       style="fill:none;stroke:#000000;stroke-width:1.24541223;stroke-miterlimit:4;stroke-dasharray:none;stroke-opacity:1"
       id="rect4382-2-9-3-5-7"
       width="51.595646"
       height="19.570765"
       x="296.29974"
       y="562.34778"
       transform="matrix(0.76224531,-0.64728826,0.64728826,0.76224531,0,0)" />
    <rect
       style="fill:none;stroke:#000000;stroke-width:1.24541223;stroke-miterlimit:4;stroke-dasharray:none;stroke-opacity:1"
       id="rect4382-2-3-2-0-3"
       width="51.595646"
       height="19.570765"
       x="253.93935"
       y="612.23126"
       transform="matrix(0.76224531,-0.64728826,0.64728826,0.76224531,0,0)" />
    <rect
       style="fill:none;stroke:#000000;stroke-width:1.24541223;stroke-miterlimit:4;stroke-dasharray:none;stroke-opacity:1"
       id="rect4382-2-9-6-0-4-6"
       width="51.595646"
       height="19.570765"
       x="211.57899"
       y="662.11469"
       transform="matrix(0.76224531,-0.64728826,0.64728826,0.76224531,0,0)" />
    <rect
       style="fill:none;stroke:#000000;stroke-width:1.24541223;stroke-miterlimit:4;stroke-dasharray:none;stroke-opacity:1"
       id="rect4382-2-2-6-8-5"
       width="51.595646"
       height="19.570765"
       x="169.21858"
       y="711.99823"
       transform="matrix(0.76224531,-0.64728826,0.64728826,0.76224531,0,0)" />
    <rect
       style="fill:none;stroke:#000000;stroke-width:1.24541223;stroke-miterlimit:4;stroke-dasharray:none;stroke-opacity:1"
       id="rect4382-2-9-9-1-7-6"
       width="51.595646"
       height="19.570765"
       x="126.85822"
       y="761.88165"
       transform="matrix(0.76224531,-0.64728826,0.64728826,0.76224531,0,0)" />
    <rect
       style="fill:none;stroke:#000000;stroke-width:1.24541223;stroke-miterlimit:4;stroke-dasharray:none;stroke-opacity:1"
       id="rect4382-2-3-3-5-1-3"
       width="51.595646"
       height="19.570765"
       x="84.497749"
       y="811.7652"
       transform="matrix(0.76224531,-0.64728826,0.64728826,0.76224531,0,0)" />
    <rect
       style="fill:none;stroke:#000000;stroke-width:1.24541223;stroke-miterlimit:4;stroke-dasharray:none;stroke-opacity:1"
       id="rect4382-2-9-6-1-5-7-9"
       width="51.595646"
       height="19.570765"
       x="42.13739"
       y="861.64874"
       transform="matrix(0.76224531,-0.64728826,0.64728826,0.76224531,0,0)" />
    <rect
       style="fill:none;stroke:#000000;stroke-width:1.24541223;stroke-miterlimit:4;stroke-dasharray:none;stroke-opacity:1"
       id="rect4382-2-4-4-2-4"
       width="51.595646"
       height="19.570765"
       x="-0.22302"
       y="911.53217"
       transform="matrix(0.76224531,-0.64728826,0.64728826,0.76224531,0,0)" />
    <rect
       style="fill:none;stroke:#000000;stroke-width:1.24541223;stroke-miterlimit:4;stroke-dasharray:none;stroke-opacity:1"
       id="rect4382-2-9-7-7-7-8"
       width="51.595646"
       height="19.570765"
       x="-42.583366"
       y="961.41559"
       transform="matrix(0.76224531,-0.64728826,0.64728826,0.76224531,0,0)" />
    <rect
       style="fill:none;stroke:#000000;stroke-width:1.24541223;stroke-miterlimit:4;stroke-dasharray:none;stroke-opacity:1"
       id="rect4382-2-3-8-6-2-1"
       width="51.595646"
       height="19.570765"
       x="-84.943703"
       y="1011.2991"
       transform="matrix(0.76224531,-0.64728826,0.64728826,0.76224531,0,0)" />
    <rect
       style="fill:none;stroke:#000000;stroke-width:1.24541223;stroke-miterlimit:4;stroke-dasharray:none;stroke-opacity:1"
       id="rect4382-2-9-6-4-5-2-2"
       width="51.595646"
       height="19.570765"
       x="-127.30405"
       y="1061.1826"
       transform="matrix(0.76224531,-0.64728826,0.64728826,0.76224531,0,0)" />
    <rect
       style="fill:none;stroke:#000000;stroke-width:1.24541223;stroke-miterlimit:4;stroke-dasharray:none;stroke-opacity:1"
       id="rect4382-2-2-5-6-6-9"
       width="51.595646"
       height="19.570765"
       x="-169.66446"
       y="1111.0663"
       transform="matrix(0.76224531,-0.64728826,0.64728826,0.76224531,0,0)" />
    <text
       xml:space="preserve"
       style="font-style:normal;font-weight:normal;font-size:40px;line-height:125%;font-family:sans-serif;letter-spacing:0px;word-spacing:0px;fill:#000000;fill-opacity:1;stroke:none;stroke-width:1px;stroke-linecap:butt;stroke-linejoin:miter;stroke-opacity:1"
       x="208.20995"
       y="63.422863"
       id="text4855"
       sodipodi:linespacing="125%"><tspan
         sodipodi:role="line"
         id="tspan4857"
         x="208.20995"
         y="63.422863">1</tspan></text>
    <text
       xml:space="preserve"
       style="font-style:normal;font-weight:normal;font-size:40px;line-height:125%;font-family:sans-serif;letter-spacing:0px;word-spacing:0px;fill:#000000;fill-opacity:1;stroke:none;stroke-width:1px;stroke-linecap:butt;stroke-linejoin:miter;stroke-opacity:1"
       x="599.40558"
       y="57.337082"
       id="text4867"
       sodipodi:linespacing="125%"><tspan
         sodipodi:role="line"
         id="tspan4869"
         x="599.40558"
         y="57.337082">4</tspan></text>
    <text
       xml:space="preserve"
       style="font-style:normal;font-weight:normal;font-size:40px;line-height:125%;font-family:sans-serif;letter-spacing:0px;word-spacing:0px;fill:#000000;fill-opacity:1;stroke:none;stroke-width:1px;stroke-linecap:butt;stroke-linejoin:miter;stroke-opacity:1"
       x="683.10229"
       y="60.569309"
       id="text4875"
       sodipodi:linespacing="125%"><tspan
         sodipodi:role="line"
         id="tspan4877"
         x="683.10229"
         y="60.569309">6</tspan></text>
    <rect
       style="fill:none;stroke:#000000;stroke-width:1.02726126;stroke-miterlimit:4;stroke-dasharray:none;stroke-opacity:1"
       id="rect4136-3"
       width="87.115593"
       height="1052.58"
       x="570.41339"
       y="-0.33323085" />
    <rect
       style="fill:none;stroke:#000000;stroke-width:1.02726126;stroke-miterlimit:4;stroke-dasharray:none;stroke-opacity:1"
       id="rect4136-6"
       width="87.115593"
       height="1052.58"
       x="657.99084"
       y="-0.10101402" />
    <rect
       style="fill:none;stroke:#000000;stroke-width:1.02726126;stroke-miterlimit:4;stroke-dasharray:none;stroke-opacity:1"
       id="rect4136-7"
       width="87.115593"
       height="1052.58"
       x="262.63721"
       y="1.0454365" />
    <rect
       style="fill:none;stroke:#000000;stroke-width:1.24541223;stroke-miterlimit:4;stroke-dasharray:none;stroke-opacity:1"
       id="rect4382-5"
       width="51.595646"
       height="19.570765"
       x="119.22908"
       y="278.19598"
       transform="matrix(0.70302279,-0.71116732,0.71116732,0.70302279,0,0)" />
    <rect
       style="fill:none;stroke:#000000;stroke-width:1.24541223;stroke-miterlimit:4;stroke-dasharray:none;stroke-opacity:1"
       id="rect4382-2-35"
       width="51.595646"
       height="19.570765"
       x="72.510994"
       y="324.37903"
       transform="matrix(0.70302279,-0.71116732,0.71116732,0.70302279,0,0)" />
    <rect
       style="fill:none;stroke:#000000;stroke-width:1.24541223;stroke-miterlimit:4;stroke-dasharray:none;stroke-opacity:1"
       id="rect4382-2-9-62"
       width="51.595646"
       height="19.570765"
       x="25.792931"
       y="370.56207"
       transform="matrix(0.70302279,-0.71116732,0.71116732,0.70302279,0,0)" />
    <rect
       style="fill:none;stroke:#000000;stroke-width:1.24541223;stroke-miterlimit:4;stroke-dasharray:none;stroke-opacity:1"
       id="rect4382-2-3-9"
       width="51.595646"
       height="19.570765"
       x="-20.925095"
       y="416.74506"
       transform="matrix(0.70302279,-0.71116732,0.71116732,0.70302279,0,0)" />
    <rect
       style="fill:none;stroke:#000000;stroke-width:1.24541223;stroke-miterlimit:4;stroke-dasharray:none;stroke-opacity:1"
       id="rect4382-2-9-6-12"
       width="51.595646"
       height="19.570765"
       x="-67.643173"
       y="462.92807"
       transform="matrix(0.70302279,-0.71116732,0.71116732,0.70302279,0,0)" />
    <rect
       style="fill:none;stroke:#000000;stroke-width:1.24541223;stroke-miterlimit:4;stroke-dasharray:none;stroke-opacity:1"
       id="rect4382-2-2-7"
       width="51.595646"
       height="19.570765"
       x="-114.36122"
       y="509.11111"
       transform="matrix(0.70302279,-0.71116732,0.71116732,0.70302279,0,0)" />
    <rect
       style="fill:none;stroke:#000000;stroke-width:1.24541223;stroke-miterlimit:4;stroke-dasharray:none;stroke-opacity:1"
       id="rect4382-2-9-9-0"
       width="51.595646"
       height="19.570765"
       x="-161.07928"
       y="555.29413"
       transform="matrix(0.70302279,-0.71116732,0.71116732,0.70302279,0,0)" />
    <rect
       style="fill:none;stroke:#000000;stroke-width:1.24541223;stroke-miterlimit:4;stroke-dasharray:none;stroke-opacity:1"
       id="rect4382-2-3-3-9"
       width="51.595646"
       height="19.570765"
       x="-207.79739"
       y="601.47717"
       transform="matrix(0.70302279,-0.71116732,0.71116732,0.70302279,0,0)" />
    <rect
       style="fill:none;stroke:#000000;stroke-width:1.24541223;stroke-miterlimit:4;stroke-dasharray:none;stroke-opacity:1"
       id="rect4382-2-9-6-1-3"
       width="51.595646"
       height="19.570765"
       x="-254.51541"
       y="647.66016"
       transform="matrix(0.70302279,-0.71116732,0.71116732,0.70302279,0,0)" />
    <rect
       style="fill:none;stroke:#000000;stroke-width:1.24541223;stroke-miterlimit:4;stroke-dasharray:none;stroke-opacity:1"
       id="rect4382-2-4-6"
       width="51.595646"
       height="19.570765"
       x="-301.23349"
       y="693.8432"
       transform="matrix(0.70302279,-0.71116732,0.71116732,0.70302279,0,0)" />
    <rect
       style="fill:none;stroke:#000000;stroke-width:1.24541223;stroke-miterlimit:4;stroke-dasharray:none;stroke-opacity:1"
       id="rect4382-2-9-7-0"
       width="51.595646"
       height="19.570765"
       x="-347.95154"
       y="740.02625"
       transform="matrix(0.70302279,-0.71116732,0.71116732,0.70302279,0,0)" />
    <rect
       style="fill:none;stroke:#000000;stroke-width:1.24541223;stroke-miterlimit:4;stroke-dasharray:none;stroke-opacity:1"
       id="rect4382-2-3-8-6"
       width="51.595646"
       height="19.570765"
       x="-394.66962"
       y="786.20923"
       transform="matrix(0.70302279,-0.71116732,0.71116732,0.70302279,0,0)" />
    <rect
       style="fill:none;stroke:#000000;stroke-width:1.24541223;stroke-miterlimit:4;stroke-dasharray:none;stroke-opacity:1"
       id="rect4382-2-9-6-4-2"
       width="51.595646"
       height="19.570765"
       x="-441.38763"
       y="832.39227"
       transform="matrix(0.70302279,-0.71116732,0.71116732,0.70302279,0,0)" />
    <rect
       style="fill:none;stroke:#000000;stroke-width:1.24541223;stroke-miterlimit:4;stroke-dasharray:none;stroke-opacity:1"
       id="rect4382-2-2-5-6"
       width="51.595646"
       height="19.570765"
       x="-488.10571"
       y="878.57532"
       transform="matrix(0.70302279,-0.71116732,0.71116732,0.70302279,0,0)" />
    <text
       xml:space="preserve"
       style="font-style:normal;font-weight:normal;font-size:40px;line-height:125%;font-family:sans-serif;letter-spacing:0px;word-spacing:0px;fill:#000000;fill-opacity:1;stroke:none;stroke-width:1px;stroke-linecap:butt;stroke-linejoin:miter;stroke-opacity:1"
       x="295.62357"
       y="63.460384"
       id="text4855-1"
       sodipodi:linespacing="125%"><tspan
         sodipodi:role="line"
         id="tspan4857-8"
         x="295.62357"
         y="63.460384">1</tspan></text>
    <rect
       style="fill:none;stroke:#000000;stroke-width:1.02726126;stroke-miterlimit:4;stroke-dasharray:none;stroke-opacity:1"
       id="rect4136-78"
       width="87.115593"
       height="1052.58"
       x="350.43448"
       y="1.0266782" />
    <rect
       style="fill:none;stroke:#000000;stroke-width:1.24541223;stroke-miterlimit:4;stroke-dasharray:none;stroke-opacity:1"
       id="rect4382-4"
       width="51.595646"
       height="19.570765"
       x="180.96591"
       y="340.62134"
       transform="matrix(0.70302279,-0.71116732,0.71116732,0.70302279,0,0)" />
    <rect
       style="fill:none;stroke:#000000;stroke-width:1.24541223;stroke-miterlimit:4;stroke-dasharray:none;stroke-opacity:1"
       id="rect4382-2-5"
       width="51.595646"
       height="19.570765"
       x="134.24782"
       y="386.80438"
       transform="matrix(0.70302279,-0.71116732,0.71116732,0.70302279,0,0)" />
    <rect
       style="fill:none;stroke:#000000;stroke-width:1.24541223;stroke-miterlimit:4;stroke-dasharray:none;stroke-opacity:1"
       id="rect4382-2-9-0"
       width="51.595646"
       height="19.570765"
       x="87.529755"
       y="432.9874"
       transform="matrix(0.70302279,-0.71116732,0.71116732,0.70302279,0,0)" />
    <rect
       style="fill:none;stroke:#000000;stroke-width:1.24541223;stroke-miterlimit:4;stroke-dasharray:none;stroke-opacity:1"
       id="rect4382-2-3-36"
       width="51.595646"
       height="19.570765"
       x="40.811718"
       y="479.17041"
       transform="matrix(0.70302279,-0.71116732,0.71116732,0.70302279,0,0)" />
    <rect
       style="fill:none;stroke:#000000;stroke-width:1.24541223;stroke-miterlimit:4;stroke-dasharray:none;stroke-opacity:1"
       id="rect4382-2-9-6-10"
       width="51.595646"
       height="19.570765"
       x="-5.9063635"
       y="525.35339"
       transform="matrix(0.70302279,-0.71116732,0.71116732,0.70302279,0,0)" />
    <rect
       style="fill:none;stroke:#000000;stroke-width:1.24541223;stroke-miterlimit:4;stroke-dasharray:none;stroke-opacity:1"
       id="rect4382-2-2-6"
       width="51.595646"
       height="19.570765"
       x="-52.624401"
       y="571.53644"
       transform="matrix(0.70302279,-0.71116732,0.71116732,0.70302279,0,0)" />
    <rect
       style="fill:none;stroke:#000000;stroke-width:1.24541223;stroke-miterlimit:4;stroke-dasharray:none;stroke-opacity:1"
       id="rect4382-2-9-9-3"
       width="51.595646"
       height="19.570765"
       x="-99.342445"
       y="617.71942"
       transform="matrix(0.70302279,-0.71116732,0.71116732,0.70302279,0,0)" />
    <rect
       style="fill:none;stroke:#000000;stroke-width:1.24541223;stroke-miterlimit:4;stroke-dasharray:none;stroke-opacity:1"
       id="rect4382-2-3-3-2"
       width="51.595646"
       height="19.570765"
       x="-146.06056"
       y="663.90247"
       transform="matrix(0.70302279,-0.71116732,0.71116732,0.70302279,0,0)" />
    <rect
       style="fill:none;stroke:#000000;stroke-width:1.24541223;stroke-miterlimit:4;stroke-dasharray:none;stroke-opacity:1"
       id="rect4382-2-9-6-1-0"
       width="51.595646"
       height="19.570765"
       x="-192.77859"
       y="710.08551"
       transform="matrix(0.70302279,-0.71116732,0.71116732,0.70302279,0,0)" />
    <rect
       style="fill:none;stroke:#000000;stroke-width:1.24541223;stroke-miterlimit:4;stroke-dasharray:none;stroke-opacity:1"
       id="rect4382-2-4-61"
       width="51.595646"
       height="19.570765"
       x="-239.49667"
       y="756.26855"
       transform="matrix(0.70302279,-0.71116732,0.71116732,0.70302279,0,0)" />
    <rect
       style="fill:none;stroke:#000000;stroke-width:1.24541223;stroke-miterlimit:4;stroke-dasharray:none;stroke-opacity:1"
       id="rect4382-2-9-7-5"
       width="51.595646"
       height="19.570765"
       x="-286.21472"
       y="802.4516"
       transform="matrix(0.70302279,-0.71116732,0.71116732,0.70302279,0,0)" />
    <rect
       style="fill:none;stroke:#000000;stroke-width:1.24541223;stroke-miterlimit:4;stroke-dasharray:none;stroke-opacity:1"
       id="rect4382-2-3-8-5"
       width="51.595646"
       height="19.570765"
       x="-332.9328"
       y="848.63458"
       transform="matrix(0.70302279,-0.71116732,0.71116732,0.70302279,0,0)" />
    <rect
       style="fill:none;stroke:#000000;stroke-width:1.24541223;stroke-miterlimit:4;stroke-dasharray:none;stroke-opacity:1"
       id="rect4382-2-9-6-4-4"
       width="51.595646"
       height="19.570765"
       x="-379.65082"
       y="894.81763"
       transform="matrix(0.70302279,-0.71116732,0.71116732,0.70302279,0,0)" />
    <rect
       style="fill:none;stroke:#000000;stroke-width:1.24541223;stroke-miterlimit:4;stroke-dasharray:none;stroke-opacity:1"
       id="rect4382-2-2-5-7"
       width="51.595646"
       height="19.570765"
       x="-426.3689"
       y="941.00067"
       transform="matrix(0.70302279,-0.71116732,0.71116732,0.70302279,0,0)" />
    <text
       xml:space="preserve"
       style="font-style:normal;font-weight:normal;font-size:40px;line-height:125%;font-family:sans-serif;letter-spacing:0px;word-spacing:0px;fill:#000000;fill-opacity:1;stroke:none;stroke-width:1px;stroke-linecap:butt;stroke-linejoin:miter;stroke-opacity:1"
       x="383.42087"
       y="63.441631"
       id="text4855-6"
       sodipodi:linespacing="125%"><tspan
         sodipodi:role="line"
         id="tspan4857-5"
         x="383.42087"
         y="63.441631">1</tspan></text>
    <rect
       style="fill:none;stroke:#000000;stroke-width:1.02726126;stroke-miterlimit:4;stroke-dasharray:none;stroke-opacity:1"
       id="rect4136-7-6"
       width="87.115593"
       height="1052.58"
       x="437.84808"
       y="1.0641996" />
    <rect
       style="fill:none;stroke:#000000;stroke-width:1.24541223;stroke-miterlimit:4;stroke-dasharray:none;stroke-opacity:1"
       id="rect4382-5-9"
       width="51.595646"
       height="19.570765"
       x="242.39301"
       y="402.81345"
       transform="matrix(0.70302279,-0.71116732,0.71116732,0.70302279,0,0)" />
    <rect
       style="fill:none;stroke:#000000;stroke-width:1.24541223;stroke-miterlimit:4;stroke-dasharray:none;stroke-opacity:1"
       id="rect4382-2-35-3"
       width="51.595646"
       height="19.570765"
       x="195.67491"
       y="448.99649"
       transform="matrix(0.70302279,-0.71116732,0.71116732,0.70302279,0,0)" />
    <rect
       style="fill:none;stroke:#000000;stroke-width:1.24541223;stroke-miterlimit:4;stroke-dasharray:none;stroke-opacity:1"
       id="rect4382-2-9-62-7"
       width="51.595646"
       height="19.570765"
       x="148.95686"
       y="495.17953"
       transform="matrix(0.70302279,-0.71116732,0.71116732,0.70302279,0,0)" />
    <rect
       style="fill:none;stroke:#000000;stroke-width:1.24541223;stroke-miterlimit:4;stroke-dasharray:none;stroke-opacity:1"
       id="rect4382-2-3-9-4"
       width="51.595646"
       height="19.570765"
       x="102.23883"
       y="541.36249"
       transform="matrix(0.70302279,-0.71116732,0.71116732,0.70302279,0,0)" />
    <rect
       style="fill:none;stroke:#000000;stroke-width:1.24541223;stroke-miterlimit:4;stroke-dasharray:none;stroke-opacity:1"
       id="rect4382-2-9-6-12-5"
       width="51.595646"
       height="19.570765"
       x="55.520756"
       y="587.54547"
       transform="matrix(0.70302279,-0.71116732,0.71116732,0.70302279,0,0)" />
    <rect
       style="fill:none;stroke:#000000;stroke-width:1.24541223;stroke-miterlimit:4;stroke-dasharray:none;stroke-opacity:1"
       id="rect4382-2-2-7-2"
       width="51.595646"
       height="19.570765"
       x="8.8026972"
       y="633.72852"
       transform="matrix(0.70302279,-0.71116732,0.71116732,0.70302279,0,0)" />
    <rect
       style="fill:none;stroke:#000000;stroke-width:1.24541223;stroke-miterlimit:4;stroke-dasharray:none;stroke-opacity:1"
       id="rect4382-2-9-9-0-5"
       width="51.595646"
       height="19.570765"
       x="-37.915356"
       y="679.91156"
       transform="matrix(0.70302279,-0.71116732,0.71116732,0.70302279,0,0)" />
    <rect
       style="fill:none;stroke:#000000;stroke-width:1.24541223;stroke-miterlimit:4;stroke-dasharray:none;stroke-opacity:1"
       id="rect4382-2-3-3-9-4"
       width="51.595646"
       height="19.570765"
       x="-84.633469"
       y="726.0946"
       transform="matrix(0.70302279,-0.71116732,0.71116732,0.70302279,0,0)" />
    <rect
       style="fill:none;stroke:#000000;stroke-width:1.24541223;stroke-miterlimit:4;stroke-dasharray:none;stroke-opacity:1"
       id="rect4382-2-9-6-1-3-7"
       width="51.595646"
       height="19.570765"
       x="-131.35149"
       y="772.27759"
       transform="matrix(0.70302279,-0.71116732,0.71116732,0.70302279,0,0)" />
    <rect
       style="fill:none;stroke:#000000;stroke-width:1.24541223;stroke-miterlimit:4;stroke-dasharray:none;stroke-opacity:1"
       id="rect4382-2-4-6-4"
       width="51.595646"
       height="19.570765"
       x="-178.06958"
       y="818.46063"
       transform="matrix(0.70302279,-0.71116732,0.71116732,0.70302279,0,0)" />
    <rect
       style="fill:none;stroke:#000000;stroke-width:1.24541223;stroke-miterlimit:4;stroke-dasharray:none;stroke-opacity:1"
       id="rect4382-2-9-7-0-4"
       width="51.595646"
       height="19.570765"
       x="-224.78763"
       y="864.64368"
       transform="matrix(0.70302279,-0.71116732,0.71116732,0.70302279,0,0)" />
    <rect
       style="fill:none;stroke:#000000;stroke-width:1.24541223;stroke-miterlimit:4;stroke-dasharray:none;stroke-opacity:1"
       id="rect4382-2-3-8-6-3"
       width="51.595646"
       height="19.570765"
       x="-271.50574"
       y="910.82666"
       transform="matrix(0.70302279,-0.71116732,0.71116732,0.70302279,0,0)" />
    <rect
       style="fill:none;stroke:#000000;stroke-width:1.24541223;stroke-miterlimit:4;stroke-dasharray:none;stroke-opacity:1"
       id="rect4382-2-9-6-4-2-0"
       width="51.595646"
       height="19.570765"
       x="-318.22375"
       y="957.0097"
       transform="matrix(0.70302279,-0.71116732,0.71116732,0.70302279,0,0)" />
    <rect
       style="fill:none;stroke:#000000;stroke-width:1.24541223;stroke-miterlimit:4;stroke-dasharray:none;stroke-opacity:1"
       id="rect4382-2-2-5-6-7"
       width="51.595646"
       height="19.570765"
       x="-364.94183"
       y="1003.1928"
       transform="matrix(0.70302279,-0.71116732,0.71116732,0.70302279,0,0)" />
    <text
       xml:space="preserve"
       style="font-style:normal;font-weight:normal;font-size:40px;line-height:125%;font-family:sans-serif;letter-spacing:0px;word-spacing:0px;fill:#000000;fill-opacity:1;stroke:none;stroke-width:1px;stroke-linecap:butt;stroke-linejoin:miter;stroke-opacity:1"
       x="470.83447"
       y="63.479145"
       id="text4855-1-8"
       sodipodi:linespacing="125%"><tspan
         sodipodi:role="line"
         id="tspan4857-8-6"
         x="470.83447"
         y="63.479145">1</tspan></text>
    <rect
       style="fill:none;stroke:#000000;stroke-width:1.02726126;stroke-miterlimit:4;stroke-dasharray:none;stroke-opacity:1"
       id="rect4136-78-1"
       width="87.115593"
       height="1052.58"
       x="0.55080462"
       y="0.62350357" />
    <rect
       style="fill:none;stroke:#000000;stroke-width:1.24541223;stroke-miterlimit:4;stroke-dasharray:none;stroke-opacity:1"
       id="rect4382-4-7"
       width="51.595646"
       height="19.570765"
       x="-64.723587"
       y="91.512032"
       transform="matrix(0.70302279,-0.71116732,0.71116732,0.70302279,0,0)" />
    <rect
       style="fill:none;stroke:#000000;stroke-width:1.24541223;stroke-miterlimit:4;stroke-dasharray:none;stroke-opacity:1"
       id="rect4382-2-5-7"
       width="51.595646"
       height="19.570765"
       x="-111.44167"
       y="137.69507"
       transform="matrix(0.70302279,-0.71116732,0.71116732,0.70302279,0,0)" />
    <rect
       style="fill:none;stroke:#000000;stroke-width:1.24541223;stroke-miterlimit:4;stroke-dasharray:none;stroke-opacity:1"
       id="rect4382-2-9-0-1"
       width="51.595646"
       height="19.570765"
       x="-158.15973"
       y="183.8781"
       transform="matrix(0.70302279,-0.71116732,0.71116732,0.70302279,0,0)" />
    <rect
       style="fill:none;stroke:#000000;stroke-width:1.24541223;stroke-miterlimit:4;stroke-dasharray:none;stroke-opacity:1"
       id="rect4382-2-3-36-1"
       width="51.595646"
       height="19.570765"
       x="-204.87775"
       y="230.06111"
       transform="matrix(0.70302279,-0.71116732,0.71116732,0.70302279,0,0)" />
    <rect
       style="fill:none;stroke:#000000;stroke-width:1.24541223;stroke-miterlimit:4;stroke-dasharray:none;stroke-opacity:1"
       id="rect4382-2-9-6-10-5"
       width="51.595646"
       height="19.570765"
       x="-251.59586"
       y="276.24411"
       transform="matrix(0.70302279,-0.71116732,0.71116732,0.70302279,0,0)" />
    <rect
       style="fill:none;stroke:#000000;stroke-width:1.24541223;stroke-miterlimit:4;stroke-dasharray:none;stroke-opacity:1"
       id="rect4382-2-2-6-9"
       width="51.595646"
       height="19.570765"
       x="-298.31387"
       y="322.42715"
       transform="matrix(0.70302279,-0.71116732,0.71116732,0.70302279,0,0)" />
    <rect
       style="fill:none;stroke:#000000;stroke-width:1.24541223;stroke-miterlimit:4;stroke-dasharray:none;stroke-opacity:1"
       id="rect4382-2-9-9-3-7"
       width="51.595646"
       height="19.570765"
       x="-345.03192"
       y="368.61011"
       transform="matrix(0.70302279,-0.71116732,0.71116732,0.70302279,0,0)" />
    <rect
       style="fill:none;stroke:#000000;stroke-width:1.24541223;stroke-miterlimit:4;stroke-dasharray:none;stroke-opacity:1"
       id="rect4382-2-3-3-2-7"
       width="51.595646"
       height="19.570765"
       x="-391.75006"
       y="414.79318"
       transform="matrix(0.70302279,-0.71116732,0.71116732,0.70302279,0,0)" />
    <rect
       style="fill:none;stroke:#000000;stroke-width:1.24541223;stroke-miterlimit:4;stroke-dasharray:none;stroke-opacity:1"
       id="rect4382-2-9-6-1-0-6"
       width="51.595646"
       height="19.570765"
       x="-438.46808"
       y="460.97623"
       transform="matrix(0.70302279,-0.71116732,0.71116732,0.70302279,0,0)" />
    <rect
       style="fill:none;stroke:#000000;stroke-width:1.24541223;stroke-miterlimit:4;stroke-dasharray:none;stroke-opacity:1"
       id="rect4382-2-4-61-7"
       width="51.595646"
       height="19.570765"
       x="-485.18616"
       y="507.15927"
       transform="matrix(0.70302279,-0.71116732,0.71116732,0.70302279,0,0)" />
    <rect
       style="fill:none;stroke:#000000;stroke-width:1.24541223;stroke-miterlimit:4;stroke-dasharray:none;stroke-opacity:1"
       id="rect4382-2-9-7-5-3"
       width="51.595646"
       height="19.570765"
       x="-531.90417"
       y="553.34229"
       transform="matrix(0.70302279,-0.71116732,0.71116732,0.70302279,0,0)" />
    <rect
       style="fill:none;stroke:#000000;stroke-width:1.24541223;stroke-miterlimit:4;stroke-dasharray:none;stroke-opacity:1"
       id="rect4382-2-3-8-5-6"
       width="51.595646"
       height="19.570765"
       x="-578.62225"
       y="599.52527"
       transform="matrix(0.70302279,-0.71116732,0.71116732,0.70302279,0,0)" />
    <rect
       style="fill:none;stroke:#000000;stroke-width:1.24541223;stroke-miterlimit:4;stroke-dasharray:none;stroke-opacity:1"
       id="rect4382-2-9-6-4-4-5"
       width="51.595646"
       height="19.570765"
       x="-625.34027"
       y="645.70831"
       transform="matrix(0.70302279,-0.71116732,0.71116732,0.70302279,0,0)" />
    <rect
       style="fill:none;stroke:#000000;stroke-width:1.24541223;stroke-miterlimit:4;stroke-dasharray:none;stroke-opacity:1"
       id="rect4382-2-2-5-7-6"
       width="51.595646"
       height="19.570765"
       x="-672.05841"
       y="691.89136"
       transform="matrix(0.70302279,-0.71116732,0.71116732,0.70302279,0,0)" />
    <text
       xml:space="preserve"
       style="font-style:normal;font-weight:normal;font-size:40px;line-height:125%;font-family:sans-serif;letter-spacing:0px;word-spacing:0px;fill:#000000;fill-opacity:1;stroke:none;stroke-width:1px;stroke-linecap:butt;stroke-linejoin:miter;stroke-opacity:1"
       x="33.537178"
       y="63.038456"
       id="text4855-6-3"
       sodipodi:linespacing="125%"><tspan
         sodipodi:role="line"
         id="tspan4857-5-9"
         x="33.537178"
         y="63.038456">1</tspan></text>
    <rect
       style="fill:none;stroke:#000000;stroke-width:1.02726126;stroke-miterlimit:4;stroke-dasharray:none;stroke-opacity:1"
       id="rect4136-7-6-4"
       width="87.115593"
       height="1052.58"
       x="87.964409"
       y="0.66102493" />
    <rect
       style="fill:none;stroke:#000000;stroke-width:1.24541223;stroke-miterlimit:4;stroke-dasharray:none;stroke-opacity:1"
       id="rect4382-5-9-8"
       width="51.595646"
       height="19.570765"
       x="-3.2964849"
       y="153.70413"
       transform="matrix(0.70302279,-0.71116732,0.71116732,0.70302279,0,0)" />
    <rect
       style="fill:none;stroke:#000000;stroke-width:1.24541223;stroke-miterlimit:4;stroke-dasharray:none;stroke-opacity:1"
       id="rect4382-2-35-3-1"
       width="51.595646"
       height="19.570765"
       x="-50.014584"
       y="199.88719"
       transform="matrix(0.70302279,-0.71116732,0.71116732,0.70302279,0,0)" />
    <rect
       style="fill:none;stroke:#000000;stroke-width:1.24541223;stroke-miterlimit:4;stroke-dasharray:none;stroke-opacity:1"
       id="rect4382-2-9-62-7-2"
       width="51.595646"
       height="19.570765"
       x="-96.732635"
       y="246.07022"
       transform="matrix(0.70302279,-0.71116732,0.71116732,0.70302279,0,0)" />
    <rect
       style="fill:none;stroke:#000000;stroke-width:1.24541223;stroke-miterlimit:4;stroke-dasharray:none;stroke-opacity:1"
       id="rect4382-2-3-9-4-9"
       width="51.595646"
       height="19.570765"
       x="-143.45067"
       y="292.2532"
       transform="matrix(0.70302279,-0.71116732,0.71116732,0.70302279,0,0)" />
    <rect
       style="fill:none;stroke:#000000;stroke-width:1.24541223;stroke-miterlimit:4;stroke-dasharray:none;stroke-opacity:1"
       id="rect4382-2-9-6-12-5-3"
       width="51.595646"
       height="19.570765"
       x="-190.16873"
       y="338.43622"
       transform="matrix(0.70302279,-0.71116732,0.71116732,0.70302279,0,0)" />
    <rect
       style="fill:none;stroke:#000000;stroke-width:1.24541223;stroke-miterlimit:4;stroke-dasharray:none;stroke-opacity:1"
       id="rect4382-2-2-7-2-9"
       width="51.595646"
       height="19.570765"
       x="-236.88678"
       y="384.61923"
       transform="matrix(0.70302279,-0.71116732,0.71116732,0.70302279,0,0)" />
    <rect
       style="fill:none;stroke:#000000;stroke-width:1.24541223;stroke-miterlimit:4;stroke-dasharray:none;stroke-opacity:1"
       id="rect4382-2-9-9-0-5-0"
       width="51.595646"
       height="19.570765"
       x="-283.60483"
       y="430.80228"
       transform="matrix(0.70302279,-0.71116732,0.71116732,0.70302279,0,0)" />
    <rect
       style="fill:none;stroke:#000000;stroke-width:1.24541223;stroke-miterlimit:4;stroke-dasharray:none;stroke-opacity:1"
       id="rect4382-2-3-3-9-4-8"
       width="51.595646"
       height="19.570765"
       x="-330.32294"
       y="476.98532"
       transform="matrix(0.70302279,-0.71116732,0.71116732,0.70302279,0,0)" />
    <rect
       style="fill:none;stroke:#000000;stroke-width:1.24541223;stroke-miterlimit:4;stroke-dasharray:none;stroke-opacity:1"
       id="rect4382-2-9-6-1-3-7-8"
       width="51.595646"
       height="19.570765"
       x="-377.04095"
       y="523.16827"
       transform="matrix(0.70302279,-0.71116732,0.71116732,0.70302279,0,0)" />
    <rect
       style="fill:none;stroke:#000000;stroke-width:1.24541223;stroke-miterlimit:4;stroke-dasharray:none;stroke-opacity:1"
       id="rect4382-2-4-6-4-5"
       width="51.595646"
       height="19.570765"
       x="-423.75903"
       y="569.35132"
       transform="matrix(0.70302279,-0.71116732,0.71116732,0.70302279,0,0)" />
    <rect
       style="fill:none;stroke:#000000;stroke-width:1.24541223;stroke-miterlimit:4;stroke-dasharray:none;stroke-opacity:1"
       id="rect4382-2-9-7-0-4-0"
       width="51.595646"
       height="19.570765"
       x="-470.47711"
       y="615.53436"
       transform="matrix(0.70302279,-0.71116732,0.71116732,0.70302279,0,0)" />
    <rect
       style="fill:none;stroke:#000000;stroke-width:1.24541223;stroke-miterlimit:4;stroke-dasharray:none;stroke-opacity:1"
       id="rect4382-2-3-8-6-3-9"
       width="51.595646"
       height="19.570765"
       x="-517.19519"
       y="661.71735"
       transform="matrix(0.70302279,-0.71116732,0.71116732,0.70302279,0,0)" />
    <rect
       style="fill:none;stroke:#000000;stroke-width:1.24541223;stroke-miterlimit:4;stroke-dasharray:none;stroke-opacity:1"
       id="rect4382-2-9-6-4-2-0-6"
       width="51.595646"
       height="19.570765"
       x="-563.91321"
       y="707.90039"
       transform="matrix(0.70302279,-0.71116732,0.71116732,0.70302279,0,0)" />
    <rect
       style="fill:none;stroke:#000000;stroke-width:1.24541223;stroke-miterlimit:4;stroke-dasharray:none;stroke-opacity:1"
       id="rect4382-2-2-5-6-7-3"
       width="51.595646"
       height="19.570765"
       x="-610.63129"
       y="754.08337"
       transform="matrix(0.70302279,-0.71116732,0.71116732,0.70302279,0,0)" />
    <text
       xml:space="preserve"
       style="font-style:normal;font-weight:normal;font-size:40px;line-height:125%;font-family:sans-serif;letter-spacing:0px;word-spacing:0px;fill:#000000;fill-opacity:1;stroke:none;stroke-width:1px;stroke-linecap:butt;stroke-linejoin:miter;stroke-opacity:1"
       x="120.9508"
       y="63.07597"
       id="text4855-1-8-8"
       sodipodi:linespacing="125%"><tspan
         sodipodi:role="line"
         id="tspan4857-8-6-5"
         x="120.9508"
         y="63.07597">1</tspan></text>
  </g>
</svg>
