<?xml version="1.0" encoding="UTF-8" standalone="no"?>
<!-- Created with Inkscape (http://www.inkscape.org/) -->

<svg
   xmlns:dc="http://purl.org/dc/elements/1.1/"
   xmlns:cc="http://creativecommons.org/ns#"
   xmlns:rdf="http://www.w3.org/1999/02/22-rdf-syntax-ns#"
   xmlns:svg="http://www.w3.org/2000/svg"
   xmlns="http://www.w3.org/2000/svg"
   xmlns:sodipodi="http://sodipodi.sourceforge.net/DTD/sodipodi-0.dtd"
   xmlns:inkscape="http://www.inkscape.org/namespaces/inkscape"
   width="210mm"
   height="297mm"
   viewBox="0 0 744.09448819 1052.3622047"
   id="svg2"
   version="1.1"
   inkscape:version="0.91 r13725"
   sodipodi:docname="paper_dna_helix_backbones.svg">
  <defs
     id="defs4" />
  <sodipodi:namedview
     id="base"
     pagecolor="#ffffff"
     bordercolor="#666666"
     borderopacity="1.0"
     inkscape:pageopacity="0.0"
     inkscape:pageshadow="2"
     inkscape:zoom="1"
     inkscape:cx="315.58589"
     inkscape:cy="819.99262"
     inkscape:document-units="px"
     inkscape:current-layer="layer1"
     showgrid="false"
     inkscape:window-width="1600"
     inkscape:window-height="1151"
     inkscape:window-x="0"
     inkscape:window-y="0"
     inkscape:window-maximized="1"
     showguides="false" />
  <metadata
     id="metadata7">
    <rdf:RDF>
      <cc:Work
         rdf:about="">
        <dc:format>image/svg+xml</dc:format>
        <dc:type
           rdf:resource="http://purl.org/dc/dcmitype/StillImage" />
        <dc:title></dc:title>
      </cc:Work>
    </rdf:RDF>
  </metadata>
  <g
     inkscape:label="Layer 1"
     inkscape:groupmode="layer"
     id="layer1">
    <rect
       style="fill:none;stroke:#000000;stroke-width:1.00779986;stroke-miterlimit:4;stroke-dasharray:none;stroke-opacity:1"
       id="rect4136"
       width="87.135063"
       height="1012.8494"
       x="20.003901"
       y="20.937532" />
    <rect
       style="fill:none;stroke:#000000;stroke-width:1.24541223;stroke-miterlimit:4;stroke-dasharray:none;stroke-opacity:1"
       id="rect4382"
       width="51.595646"
       height="19.570765"
       x="-50.559837"
       y="104.87795"
       transform="matrix(0.70302279,-0.71116732,0.71116732,0.70302279,0,0)" />
    <rect
       style="fill:none;stroke:#000000;stroke-width:1.24541223;stroke-miterlimit:4;stroke-dasharray:none;stroke-opacity:1"
       id="rect4382-2"
       width="51.595646"
       height="19.570765"
       x="-97.277916"
       y="151.061"
       transform="matrix(0.70302279,-0.71116732,0.71116732,0.70302279,0,0)" />
    <rect
       style="fill:none;stroke:#000000;stroke-width:1.24541223;stroke-miterlimit:4;stroke-dasharray:none;stroke-opacity:1"
       id="rect4382-2-9"
       width="51.595646"
       height="19.570765"
       x="-143.99599"
       y="197.24403"
       transform="matrix(0.70302279,-0.71116732,0.71116732,0.70302279,0,0)" />
    <rect
       style="fill:none;stroke:#000000;stroke-width:1.24541223;stroke-miterlimit:4;stroke-dasharray:none;stroke-opacity:1"
       id="rect4382-2-3"
       width="51.595646"
       height="19.570765"
       x="-190.71402"
       y="243.42705"
       transform="matrix(0.70302279,-0.71116732,0.71116732,0.70302279,0,0)" />
    <rect
       style="fill:none;stroke:#000000;stroke-width:1.24541223;stroke-miterlimit:4;stroke-dasharray:none;stroke-opacity:1"
       id="rect4382-2-9-6"
       width="51.595646"
       height="19.570765"
       x="-237.4321"
       y="289.61005"
       transform="matrix(0.70302279,-0.71116732,0.71116732,0.70302279,0,0)" />
    <rect
       style="fill:none;stroke:#000000;stroke-width:1.24541223;stroke-miterlimit:4;stroke-dasharray:none;stroke-opacity:1"
       id="rect4382-2-2"
       width="51.595646"
       height="19.570765"
       x="-284.15015"
       y="335.79309"
       transform="matrix(0.70302279,-0.71116732,0.71116732,0.70302279,0,0)" />
    <rect
       style="fill:none;stroke:#000000;stroke-width:1.24541223;stroke-miterlimit:4;stroke-dasharray:none;stroke-opacity:1"
       id="rect4382-2-9-9"
       width="51.595646"
       height="19.570765"
       x="-330.86819"
       y="381.9761"
       transform="matrix(0.70302279,-0.71116732,0.71116732,0.70302279,0,0)" />
    <rect
       style="fill:none;stroke:#000000;stroke-width:1.24541223;stroke-miterlimit:4;stroke-dasharray:none;stroke-opacity:1"
       id="rect4382-2-3-3"
       width="51.595646"
       height="19.570765"
       x="-377.5863"
       y="428.15915"
       transform="matrix(0.70302279,-0.71116732,0.71116732,0.70302279,0,0)" />
    <rect
       style="fill:none;stroke:#000000;stroke-width:1.24541223;stroke-miterlimit:4;stroke-dasharray:none;stroke-opacity:1"
       id="rect4382-2-9-6-1"
       width="51.595646"
       height="19.570765"
       x="-424.30432"
       y="474.34216"
       transform="matrix(0.70302279,-0.71116732,0.71116732,0.70302279,0,0)" />
    <rect
       style="fill:none;stroke:#000000;stroke-width:1.24541223;stroke-miterlimit:4;stroke-dasharray:none;stroke-opacity:1"
       id="rect4382-2-4"
       width="51.595646"
       height="19.570765"
       x="-471.0224"
       y="520.52521"
       transform="matrix(0.70302279,-0.71116732,0.71116732,0.70302279,0,0)" />
    <rect
       style="fill:none;stroke:#000000;stroke-width:1.24541223;stroke-miterlimit:4;stroke-dasharray:none;stroke-opacity:1"
       id="rect4382-2-9-7"
       width="51.595646"
       height="19.570765"
       x="-517.74042"
       y="566.70825"
       transform="matrix(0.70302279,-0.71116732,0.71116732,0.70302279,0,0)" />
    <rect
       style="fill:none;stroke:#000000;stroke-width:1.24541223;stroke-miterlimit:4;stroke-dasharray:none;stroke-opacity:1"
       id="rect4382-2-3-8"
       width="51.595646"
       height="19.570765"
       x="-564.4585"
       y="612.89124"
       transform="matrix(0.70302279,-0.71116732,0.71116732,0.70302279,0,0)" />
    <rect
       style="fill:none;stroke:#000000;stroke-width:1.24541223;stroke-miterlimit:4;stroke-dasharray:none;stroke-opacity:1"
       id="rect4382-2-9-6-4"
       width="51.595646"
       height="19.570765"
       x="-611.17651"
       y="659.07428"
       transform="matrix(0.70302279,-0.71116732,0.71116732,0.70302279,0,0)" />
    <rect
       style="fill:none;stroke:#000000;stroke-width:1.24541223;stroke-miterlimit:4;stroke-dasharray:none;stroke-opacity:1"
       id="rect4382-2-2-5"
       width="51.595646"
       height="19.570765"
       x="-657.89459"
       y="705.25732"
       transform="matrix(0.70302279,-0.71116732,0.71116732,0.70302279,0,0)" />
    <rect
       style="fill:none;stroke:#000000;stroke-width:1.00779986;stroke-miterlimit:4;stroke-dasharray:none;stroke-opacity:1"
       id="rect4136-1"
       width="87.135063"
       height="1012.8494"
       x="127.86105"
       y="20.223209" />
    <rect
       style="fill:none;stroke:#000000;stroke-width:1.24541223;stroke-miterlimit:4;stroke-dasharray:none;stroke-opacity:1"
       id="rect4382-0"
       width="51.595646"
       height="19.570765"
       x="-216.05675"
       y="-63.552345"
       transform="matrix(-0.70302279,-0.71116732,-0.71116732,0.70302279,0,0)" />
    <rect
       style="fill:none;stroke:#000000;stroke-width:1.24541223;stroke-miterlimit:4;stroke-dasharray:none;stroke-opacity:1"
       id="rect4382-2-6"
       width="51.595646"
       height="19.570765"
       x="-262.77484"
       y="-17.369286"
       transform="matrix(-0.70302279,-0.71116732,-0.71116732,0.70302279,0,0)" />
    <rect
       style="fill:none;stroke:#000000;stroke-width:1.24541223;stroke-miterlimit:4;stroke-dasharray:none;stroke-opacity:1"
       id="rect4382-2-9-3"
       width="51.595646"
       height="19.570765"
       x="-309.49292"
       y="28.813744"
       transform="matrix(-0.70302279,-0.71116732,-0.71116732,0.70302279,0,0)" />
    <rect
       style="fill:none;stroke:#000000;stroke-width:1.24541223;stroke-miterlimit:4;stroke-dasharray:none;stroke-opacity:1"
       id="rect4382-2-3-2"
       width="51.595646"
       height="19.570765"
       x="-356.21097"
       y="74.996758"
       transform="matrix(-0.70302279,-0.71116732,-0.71116732,0.70302279,0,0)" />
    <rect
       style="fill:none;stroke:#000000;stroke-width:1.24541223;stroke-miterlimit:4;stroke-dasharray:none;stroke-opacity:1"
       id="rect4382-2-9-6-0"
       width="51.595646"
       height="19.570765"
       x="-402.92902"
       y="121.17977"
       transform="matrix(-0.70302279,-0.71116732,-0.71116732,0.70302279,0,0)" />
    <rect
       style="fill:none;stroke:#000000;stroke-width:1.24541223;stroke-miterlimit:4;stroke-dasharray:none;stroke-opacity:1"
       id="rect4382-2-2-6"
       width="51.595646"
       height="19.570765"
       x="-449.64706"
       y="167.36282"
       transform="matrix(-0.70302279,-0.71116732,-0.71116732,0.70302279,0,0)" />
    <rect
       style="fill:none;stroke:#000000;stroke-width:1.24541223;stroke-miterlimit:4;stroke-dasharray:none;stroke-opacity:1"
       id="rect4382-2-9-9-1"
       width="51.595646"
       height="19.570765"
       x="-496.36511"
       y="213.54584"
       transform="matrix(-0.70302279,-0.71116732,-0.71116732,0.70302279,0,0)" />
    <rect
       style="fill:none;stroke:#000000;stroke-width:1.24541223;stroke-miterlimit:4;stroke-dasharray:none;stroke-opacity:1"
       id="rect4382-2-3-3-5"
       width="51.595646"
       height="19.570765"
       x="-543.08325"
       y="259.72888"
       transform="matrix(-0.70302279,-0.71116732,-0.71116732,0.70302279,0,0)" />
    <rect
       style="fill:none;stroke:#000000;stroke-width:1.24541223;stroke-miterlimit:4;stroke-dasharray:none;stroke-opacity:1"
       id="rect4382-2-9-6-1-5"
       width="51.595646"
       height="19.570765"
       x="-589.80121"
       y="305.91187"
       transform="matrix(-0.70302279,-0.71116732,-0.71116732,0.70302279,0,0)" />
    <rect
       style="fill:none;stroke:#000000;stroke-width:1.24541223;stroke-miterlimit:4;stroke-dasharray:none;stroke-opacity:1"
       id="rect4382-2-4-4"
       width="51.595646"
       height="19.570765"
       x="-636.51935"
       y="352.09491"
       transform="matrix(-0.70302279,-0.71116732,-0.71116732,0.70302279,0,0)" />
    <rect
       style="fill:none;stroke:#000000;stroke-width:1.24541223;stroke-miterlimit:4;stroke-dasharray:none;stroke-opacity:1"
       id="rect4382-2-9-7-7"
       width="51.595646"
       height="19.570765"
       x="-683.2373"
       y="398.27795"
       transform="matrix(-0.70302279,-0.71116732,-0.71116732,0.70302279,0,0)" />
    <rect
       style="fill:none;stroke:#000000;stroke-width:1.24541223;stroke-miterlimit:4;stroke-dasharray:none;stroke-opacity:1"
       id="rect4382-2-3-8-6"
       width="51.595646"
       height="19.570765"
       x="-729.95538"
       y="444.46094"
       transform="matrix(-0.70302279,-0.71116732,-0.71116732,0.70302279,0,0)" />
    <rect
       style="fill:none;stroke:#000000;stroke-width:1.24541223;stroke-miterlimit:4;stroke-dasharray:none;stroke-opacity:1"
       id="rect4382-2-9-6-4-5"
       width="51.595646"
       height="19.570765"
       x="-776.6734"
       y="490.64398"
       transform="matrix(-0.70302279,-0.71116732,-0.71116732,0.70302279,0,0)" />
    <rect
       style="fill:none;stroke:#000000;stroke-width:1.24541223;stroke-miterlimit:4;stroke-dasharray:none;stroke-opacity:1"
       id="rect4382-2-2-5-6"
       width="51.595646"
       height="19.570765"
       x="-823.39148"
       y="536.82703"
       transform="matrix(-0.70302279,-0.71116732,-0.71116732,0.70302279,0,0)" />
    <rect
       style="fill:none;stroke:#000000;stroke-width:1.24541223;stroke-miterlimit:4;stroke-dasharray:none;stroke-opacity:1"
       id="rect4382-0-4"
       width="51.595646"
       height="19.570765"
       x="131.44695"
       y="251.99117"
       transform="matrix(0.76224531,-0.64728826,0.64728826,0.76224531,0,0)" />
    <rect
       style="fill:none;stroke:#000000;stroke-width:1.24541223;stroke-miterlimit:4;stroke-dasharray:none;stroke-opacity:1"
       id="rect4382-2-6-9"
       width="51.595646"
       height="19.570765"
       x="89.086533"
       y="301.87469"
       transform="matrix(0.76224531,-0.64728826,0.64728826,0.76224531,0,0)" />
    <rect
       style="fill:none;stroke:#000000;stroke-width:1.24541223;stroke-miterlimit:4;stroke-dasharray:none;stroke-opacity:1"
       id="rect4382-2-9-3-5"
       width="51.595646"
       height="19.570765"
       x="46.726131"
       y="351.75821"
       transform="matrix(0.76224531,-0.64728826,0.64728826,0.76224531,0,0)" />
    <rect
       style="fill:none;stroke:#000000;stroke-width:1.24541223;stroke-miterlimit:4;stroke-dasharray:none;stroke-opacity:1"
       id="rect4382-2-3-2-0"
       width="51.595646"
       height="19.570765"
       x="4.3657541"
       y="401.64169"
       transform="matrix(0.76224531,-0.64728826,0.64728826,0.76224531,0,0)" />
    <rect
       style="fill:none;stroke:#000000;stroke-width:1.24541223;stroke-miterlimit:4;stroke-dasharray:none;stroke-opacity:1"
       id="rect4382-2-9-6-0-4"
       width="51.595646"
       height="19.570765"
       x="-37.994633"
       y="451.52521"
       transform="matrix(0.76224531,-0.64728826,0.64728826,0.76224531,0,0)" />
    <rect
       style="fill:none;stroke:#000000;stroke-width:1.24541223;stroke-miterlimit:4;stroke-dasharray:none;stroke-opacity:1"
       id="rect4382-2-2-6-8"
       width="51.595646"
       height="19.570765"
       x="-80.355026"
       y="501.40872"
       transform="matrix(0.76224531,-0.64728826,0.64728826,0.76224531,0,0)" />
    <rect
       style="fill:none;stroke:#000000;stroke-width:1.24541223;stroke-miterlimit:4;stroke-dasharray:none;stroke-opacity:1"
       id="rect4382-2-9-9-1-7"
       width="51.595646"
       height="19.570765"
       x="-122.71539"
       y="551.29218"
       transform="matrix(0.76224531,-0.64728826,0.64728826,0.76224531,0,0)" />
    <rect
       style="fill:none;stroke:#000000;stroke-width:1.24541223;stroke-miterlimit:4;stroke-dasharray:none;stroke-opacity:1"
       id="rect4382-2-3-3-5-1"
       width="51.595646"
       height="19.570765"
       x="-165.07581"
       y="601.17572"
       transform="matrix(0.76224531,-0.64728826,0.64728826,0.76224531,0,0)" />
    <rect
       style="fill:none;stroke:#000000;stroke-width:1.24541223;stroke-miterlimit:4;stroke-dasharray:none;stroke-opacity:1"
       id="rect4382-2-9-6-1-5-7"
       width="51.595646"
       height="19.570765"
       x="-207.43614"
       y="651.0592"
       transform="matrix(0.76224531,-0.64728826,0.64728826,0.76224531,0,0)" />
    <rect
       style="fill:none;stroke:#000000;stroke-width:1.24541223;stroke-miterlimit:4;stroke-dasharray:none;stroke-opacity:1"
       id="rect4382-2-4-4-2"
       width="51.595646"
       height="19.570765"
       x="-249.79657"
       y="700.94275"
       transform="matrix(0.76224531,-0.64728826,0.64728826,0.76224531,0,0)" />
    <rect
       style="fill:none;stroke:#000000;stroke-width:1.24541223;stroke-miterlimit:4;stroke-dasharray:none;stroke-opacity:1"
       id="rect4382-2-9-7-7-7"
       width="51.595646"
       height="19.570765"
       x="-292.15692"
       y="750.82617"
       transform="matrix(0.76224531,-0.64728826,0.64728826,0.76224531,0,0)" />
    <rect
       style="fill:none;stroke:#000000;stroke-width:1.24541223;stroke-miterlimit:4;stroke-dasharray:none;stroke-opacity:1"
       id="rect4382-2-3-8-6-2"
       width="51.595646"
       height="19.570765"
       x="-334.51727"
       y="800.70966"
       transform="matrix(0.76224531,-0.64728826,0.64728826,0.76224531,0,0)" />
    <rect
       style="fill:none;stroke:#000000;stroke-width:1.24541223;stroke-miterlimit:4;stroke-dasharray:none;stroke-opacity:1"
       id="rect4382-2-9-6-4-5-2"
       width="51.595646"
       height="19.570765"
       x="-376.87766"
       y="850.59314"
       transform="matrix(0.76224531,-0.64728826,0.64728826,0.76224531,0,0)" />
    <rect
       style="fill:none;stroke:#000000;stroke-width:1.24541223;stroke-miterlimit:4;stroke-dasharray:none;stroke-opacity:1"
       id="rect4382-2-2-5-6-6"
       width="51.595646"
       height="19.570765"
       x="-419.23807"
       y="900.47668"
       transform="matrix(0.76224531,-0.64728826,0.64728826,0.76224531,0,0)" />
    <rect
       style="fill:none;stroke:#000000;stroke-width:1.24541223;stroke-miterlimit:4;stroke-dasharray:none;stroke-opacity:1"
       id="rect4382-0-0"
       width="51.595646"
       height="19.570765"
       x="-511.25198"
       y="-425.11334"
       transform="matrix(-0.64684379,-0.76262252,-0.76262252,0.64684379,0,0)" />
    <rect
       style="fill:none;stroke:#000000;stroke-width:1.24541223;stroke-miterlimit:4;stroke-dasharray:none;stroke-opacity:1"
       id="rect4382-2-6-6"
       width="51.595646"
       height="19.570765"
       x="-561.2049"
       y="-382.74414"
       transform="matrix(-0.64684379,-0.76262252,-0.76262252,0.64684379,0,0)" />
    <rect
       style="fill:none;stroke:#000000;stroke-width:1.24541223;stroke-miterlimit:4;stroke-dasharray:none;stroke-opacity:1"
       id="rect4382-2-9-3-1"
       width="51.595646"
       height="19.570765"
       x="-611.15778"
       y="-340.37488"
       transform="matrix(-0.64684379,-0.76262252,-0.76262252,0.64684379,0,0)" />
    <rect
       style="fill:none;stroke:#000000;stroke-width:1.24541223;stroke-miterlimit:4;stroke-dasharray:none;stroke-opacity:1"
       id="rect4382-2-3-2-5"
       width="51.595646"
       height="19.570765"
       x="-661.11066"
       y="-298.00568"
       transform="matrix(-0.64684379,-0.76262252,-0.76262252,0.64684379,0,0)" />
    <rect
       style="fill:none;stroke:#000000;stroke-width:1.24541223;stroke-miterlimit:4;stroke-dasharray:none;stroke-opacity:1"
       id="rect4382-2-9-6-0-9"
       width="51.595646"
       height="19.570765"
       x="-711.06354"
       y="-255.63646"
       transform="matrix(-0.64684379,-0.76262252,-0.76262252,0.64684379,0,0)" />
    <rect
       style="fill:none;stroke:#000000;stroke-width:1.24541223;stroke-miterlimit:4;stroke-dasharray:none;stroke-opacity:1"
       id="rect4382-2-2-6-4"
       width="51.595646"
       height="19.570765"
       x="-761.01642"
       y="-213.26726"
       transform="matrix(-0.64684379,-0.76262252,-0.76262252,0.64684379,0,0)" />
    <rect
       style="fill:none;stroke:#000000;stroke-width:1.24541223;stroke-miterlimit:4;stroke-dasharray:none;stroke-opacity:1"
       id="rect4382-2-9-9-1-9"
       width="51.595646"
       height="19.570765"
       x="-810.9693"
       y="-170.89806"
       transform="matrix(-0.64684379,-0.76262252,-0.76262252,0.64684379,0,0)" />
    <rect
       style="fill:none;stroke:#000000;stroke-width:1.24541223;stroke-miterlimit:4;stroke-dasharray:none;stroke-opacity:1"
       id="rect4382-2-3-3-5-0"
       width="51.595646"
       height="19.570765"
       x="-860.92224"
       y="-128.52879"
       transform="matrix(-0.64684379,-0.76262252,-0.76262252,0.64684379,0,0)" />
    <rect
       style="fill:none;stroke:#000000;stroke-width:1.24541223;stroke-miterlimit:4;stroke-dasharray:none;stroke-opacity:1"
       id="rect4382-2-9-6-1-5-9"
       width="51.595646"
       height="19.570765"
       x="-910.87506"
       y="-86.15966"
       transform="matrix(-0.64684379,-0.76262252,-0.76262252,0.64684379,0,0)" />
    <rect
       style="fill:none;stroke:#000000;stroke-width:1.24541223;stroke-miterlimit:4;stroke-dasharray:none;stroke-opacity:1"
       id="rect4382-2-4-4-1"
       width="51.595646"
       height="19.570765"
       x="-960.82794"
       y="-43.790459"
       transform="matrix(-0.64684379,-0.76262252,-0.76262252,0.64684379,0,0)" />
    <rect
       style="fill:none;stroke:#000000;stroke-width:1.24541223;stroke-miterlimit:4;stroke-dasharray:none;stroke-opacity:1"
       id="rect4382-2-9-7-7-77"
       width="51.595646"
       height="19.570765"
       x="-1010.7808"
       y="-1.4213175"
       transform="matrix(-0.64684379,-0.76262252,-0.76262252,0.64684379,0,0)" />
    <rect
       style="fill:none;stroke:#000000;stroke-width:1.24541223;stroke-miterlimit:4;stroke-dasharray:none;stroke-opacity:1"
       id="rect4382-2-3-8-6-1"
       width="51.595646"
       height="19.570765"
       x="-1060.7336"
       y="40.947884"
       transform="matrix(-0.64684379,-0.76262252,-0.76262252,0.64684379,0,0)" />
    <rect
       style="fill:none;stroke:#000000;stroke-width:1.24541223;stroke-miterlimit:4;stroke-dasharray:none;stroke-opacity:1"
       id="rect4382-2-9-6-4-5-1"
       width="51.595646"
       height="19.570765"
       x="-1110.6865"
       y="83.317146"
       transform="matrix(-0.64684379,-0.76262252,-0.76262252,0.64684379,0,0)" />
    <rect
       style="fill:none;stroke:#000000;stroke-width:1.24541223;stroke-miterlimit:4;stroke-dasharray:none;stroke-opacity:1"
       id="rect4382-2-2-5-6-5"
       width="51.595646"
       height="19.570765"
       x="-1160.6394"
       y="125.68629"
       transform="matrix(-0.64684379,-0.76262252,-0.76262252,0.64684379,0,0)" />
    <rect
       style="fill:none;stroke:#000000;stroke-width:1.00779986;stroke-miterlimit:4;stroke-dasharray:none;stroke-opacity:1"
       id="rect4136-1-9"
       width="87.135063"
       height="1012.8494"
       x="243.57532"
       y="21.651768" />
    <rect
       style="fill:none;stroke:#000000;stroke-width:1.00779986;stroke-miterlimit:4;stroke-dasharray:none;stroke-opacity:1"
       id="rect4136-1-7"
       width="87.135063"
       height="1012.8494"
       x="587.86102"
       y="20.223219" />
    <rect
       style="fill:none;stroke:#000000;stroke-width:1.24541223;stroke-miterlimit:4;stroke-dasharray:none;stroke-opacity:1"
       id="rect4382-0-4-7"
       width="51.595646"
       height="19.570765"
       x="-391.26334"
       y="-191.88725"
       transform="matrix(-0.76224531,-0.64728826,-0.64728826,0.76224531,0,0)" />
    <rect
       style="fill:none;stroke:#000000;stroke-width:1.24541223;stroke-miterlimit:4;stroke-dasharray:none;stroke-opacity:1"
       id="rect4382-2-6-9-6"
       width="51.595646"
       height="19.570765"
       x="-433.62375"
       y="-142.00371"
       transform="matrix(-0.76224531,-0.64728826,-0.64728826,0.76224531,0,0)" />
    <rect
       style="fill:none;stroke:#000000;stroke-width:1.24541223;stroke-miterlimit:4;stroke-dasharray:none;stroke-opacity:1"
       id="rect4382-2-9-3-5-7"
       width="51.595646"
       height="19.570765"
       x="-475.98416"
       y="-92.120155"
       transform="matrix(-0.76224531,-0.64728826,-0.64728826,0.76224531,0,0)" />
    <rect
       style="fill:none;stroke:#000000;stroke-width:1.24541223;stroke-miterlimit:4;stroke-dasharray:none;stroke-opacity:1"
       id="rect4382-2-3-2-0-3"
       width="51.595646"
       height="19.570765"
       x="-518.34454"
       y="-42.236671"
       transform="matrix(-0.76224531,-0.64728826,-0.64728826,0.76224531,0,0)" />
    <rect
       style="fill:none;stroke:#000000;stroke-width:1.24541223;stroke-miterlimit:4;stroke-dasharray:none;stroke-opacity:1"
       id="rect4382-2-9-6-0-4-6"
       width="51.595646"
       height="19.570765"
       x="-560.7049"
       y="7.6467805"
       transform="matrix(-0.76224531,-0.64728826,-0.64728826,0.76224531,0,0)" />
    <rect
       style="fill:none;stroke:#000000;stroke-width:1.24541223;stroke-miterlimit:4;stroke-dasharray:none;stroke-opacity:1"
       id="rect4382-2-2-6-8-5"
       width="51.595646"
       height="19.570765"
       x="-603.06531"
       y="57.530327"
       transform="matrix(-0.76224531,-0.64728826,-0.64728826,0.76224531,0,0)" />
    <rect
       style="fill:none;stroke:#000000;stroke-width:1.24541223;stroke-miterlimit:4;stroke-dasharray:none;stroke-opacity:1"
       id="rect4382-2-9-9-1-7-6"
       width="51.595646"
       height="19.570765"
       x="-645.42566"
       y="107.41375"
       transform="matrix(-0.76224531,-0.64728826,-0.64728826,0.76224531,0,0)" />
    <rect
       style="fill:none;stroke:#000000;stroke-width:1.24541223;stroke-miterlimit:4;stroke-dasharray:none;stroke-opacity:1"
       id="rect4382-2-3-3-5-1-3"
       width="51.595646"
       height="19.570765"
       x="-687.78613"
       y="157.29729"
       transform="matrix(-0.76224531,-0.64728826,-0.64728826,0.76224531,0,0)" />
    <rect
       style="fill:none;stroke:#000000;stroke-width:1.24541223;stroke-miterlimit:4;stroke-dasharray:none;stroke-opacity:1"
       id="rect4382-2-9-6-1-5-7-9"
       width="51.595646"
       height="19.570765"
       x="-730.14648"
       y="207.18083"
       transform="matrix(-0.76224531,-0.64728826,-0.64728826,0.76224531,0,0)" />
    <rect
       style="fill:none;stroke:#000000;stroke-width:1.24541223;stroke-miterlimit:4;stroke-dasharray:none;stroke-opacity:1"
       id="rect4382-2-4-4-2-4"
       width="51.595646"
       height="19.570765"
       x="-772.5069"
       y="257.06427"
       transform="matrix(-0.76224531,-0.64728826,-0.64728826,0.76224531,0,0)" />
    <rect
       style="fill:none;stroke:#000000;stroke-width:1.24541223;stroke-miterlimit:4;stroke-dasharray:none;stroke-opacity:1"
       id="rect4382-2-9-7-7-7-8"
       width="51.595646"
       height="19.570765"
       x="-814.86725"
       y="306.94769"
       transform="matrix(-0.76224531,-0.64728826,-0.64728826,0.76224531,0,0)" />
    <rect
       style="fill:none;stroke:#000000;stroke-width:1.24541223;stroke-miterlimit:4;stroke-dasharray:none;stroke-opacity:1"
       id="rect4382-2-3-8-6-2-1"
       width="51.595646"
       height="19.570765"
       x="-857.2276"
       y="356.83124"
       transform="matrix(-0.76224531,-0.64728826,-0.64728826,0.76224531,0,0)" />
    <rect
       style="fill:none;stroke:#000000;stroke-width:1.24541223;stroke-miterlimit:4;stroke-dasharray:none;stroke-opacity:1"
       id="rect4382-2-9-6-4-5-2-2"
       width="51.595646"
       height="19.570765"
       x="-899.58795"
       y="406.71466"
       transform="matrix(-0.76224531,-0.64728826,-0.64728826,0.76224531,0,0)" />
    <rect
       style="fill:none;stroke:#000000;stroke-width:1.24541223;stroke-miterlimit:4;stroke-dasharray:none;stroke-opacity:1"
       id="rect4382-2-2-5-6-6-9"
       width="51.595646"
       height="19.570765"
       x="-941.94836"
       y="456.59821"
       transform="matrix(-0.76224531,-0.64728826,-0.64728826,0.76224531,0,0)" />
    <rect
       style="fill:none;stroke:#000000;stroke-width:1.00779986;stroke-miterlimit:4;stroke-dasharray:none;stroke-opacity:1"
       id="rect4136-1-9-3"
       width="87.135063"
       height="1012.8494"
       x="350.7182"
       y="21.651781" />
    <rect
       style="fill:none;stroke:#000000;stroke-width:1.24541223;stroke-miterlimit:4;stroke-dasharray:none;stroke-opacity:1"
       id="rect4382-0-0-9"
       width="51.595646"
       height="19.570765"
       x="237.1214"
       y="459.4201"
       transform="matrix(0.64684379,-0.76262252,0.76262252,0.64684379,0,0)" />
    <rect
       style="fill:none;stroke:#000000;stroke-width:1.24541223;stroke-miterlimit:4;stroke-dasharray:none;stroke-opacity:1"
       id="rect4382-2-6-6-0"
       width="51.595646"
       height="19.570765"
       x="187.16852"
       y="501.78931"
       transform="matrix(0.64684379,-0.76262252,0.76262252,0.64684379,0,0)" />
    <rect
       style="fill:none;stroke:#000000;stroke-width:1.24541223;stroke-miterlimit:4;stroke-dasharray:none;stroke-opacity:1"
       id="rect4382-2-9-3-1-8"
       width="51.595646"
       height="19.570765"
       x="137.21562"
       y="544.15857"
       transform="matrix(0.64684379,-0.76262252,0.76262252,0.64684379,0,0)" />
    <rect
       style="fill:none;stroke:#000000;stroke-width:1.24541223;stroke-miterlimit:4;stroke-dasharray:none;stroke-opacity:1"
       id="rect4382-2-3-2-5-8"
       width="51.595646"
       height="19.570765"
       x="87.262711"
       y="586.52777"
       transform="matrix(0.64684379,-0.76262252,0.76262252,0.64684379,0,0)" />
    <rect
       style="fill:none;stroke:#000000;stroke-width:1.24541223;stroke-miterlimit:4;stroke-dasharray:none;stroke-opacity:1"
       id="rect4382-2-9-6-0-9-5"
       width="51.595646"
       height="19.570765"
       x="37.309864"
       y="628.89691"
       transform="matrix(0.64684379,-0.76262252,0.76262252,0.64684379,0,0)" />
    <rect
       style="fill:none;stroke:#000000;stroke-width:1.24541223;stroke-miterlimit:4;stroke-dasharray:none;stroke-opacity:1"
       id="rect4382-2-2-6-4-0"
       width="51.595646"
       height="19.570765"
       x="-12.643018"
       y="671.26617"
       transform="matrix(0.64684379,-0.76262252,0.76262252,0.64684379,0,0)" />
    <rect
       style="fill:none;stroke:#000000;stroke-width:1.24541223;stroke-miterlimit:4;stroke-dasharray:none;stroke-opacity:1"
       id="rect4382-2-9-9-1-9-9"
       width="51.595646"
       height="19.570765"
       x="-62.595928"
       y="713.63531"
       transform="matrix(0.64684379,-0.76262252,0.76262252,0.64684379,0,0)" />
    <rect
       style="fill:none;stroke:#000000;stroke-width:1.24541223;stroke-miterlimit:4;stroke-dasharray:none;stroke-opacity:1"
       id="rect4382-2-3-3-5-0-6"
       width="51.595646"
       height="19.570765"
       x="-112.54884"
       y="756.00458"
       transform="matrix(0.64684379,-0.76262252,0.76262252,0.64684379,0,0)" />
    <rect
       style="fill:none;stroke:#000000;stroke-width:1.24541223;stroke-miterlimit:4;stroke-dasharray:none;stroke-opacity:1"
       id="rect4382-2-9-6-1-5-9-3"
       width="51.595646"
       height="19.570765"
       x="-162.50166"
       y="798.37372"
       transform="matrix(0.64684379,-0.76262252,0.76262252,0.64684379,0,0)" />
    <rect
       style="fill:none;stroke:#000000;stroke-width:1.24541223;stroke-miterlimit:4;stroke-dasharray:none;stroke-opacity:1"
       id="rect4382-2-4-4-1-8"
       width="51.595646"
       height="19.570765"
       x="-212.45461"
       y="840.74298"
       transform="matrix(0.64684379,-0.76262252,0.76262252,0.64684379,0,0)" />
    <rect
       style="fill:none;stroke:#000000;stroke-width:1.24541223;stroke-miterlimit:4;stroke-dasharray:none;stroke-opacity:1"
       id="rect4382-2-9-7-7-77-5"
       width="51.595646"
       height="19.570765"
       x="-262.40735"
       y="883.11212"
       transform="matrix(0.64684379,-0.76262252,0.76262252,0.64684379,0,0)" />
    <rect
       style="fill:none;stroke:#000000;stroke-width:1.24541223;stroke-miterlimit:4;stroke-dasharray:none;stroke-opacity:1"
       id="rect4382-2-3-8-6-1-6"
       width="51.595646"
       height="19.570765"
       x="-312.36017"
       y="925.48138"
       transform="matrix(0.64684379,-0.76262252,0.76262252,0.64684379,0,0)" />
    <rect
       style="fill:none;stroke:#000000;stroke-width:1.24541223;stroke-miterlimit:4;stroke-dasharray:none;stroke-opacity:1"
       id="rect4382-2-9-6-4-5-1-1"
       width="51.595646"
       height="19.570765"
       x="-362.31311"
       y="967.85065"
       transform="matrix(0.64684379,-0.76262252,0.76262252,0.64684379,0,0)" />
    <rect
       style="fill:none;stroke:#000000;stroke-width:1.24541223;stroke-miterlimit:4;stroke-dasharray:none;stroke-opacity:1"
       id="rect4382-2-2-5-6-5-1"
       width="51.595646"
       height="19.570765"
       x="-412.26593"
       y="1010.2198"
       transform="matrix(0.64684379,-0.76262252,0.76262252,0.64684379,0,0)" />
    <rect
       style="fill:none;stroke:#000000;stroke-width:1.00779986;stroke-miterlimit:4;stroke-dasharray:none;stroke-opacity:1"
       id="rect4136-1-7-5"
       width="87.135063"
       height="1012.8494"
       x="485.00388"
       y="21.651768" />
    <text
       xml:space="preserve"
       style="font-style:normal;font-weight:normal;font-size:40px;line-height:125%;font-family:sans-serif;letter-spacing:0px;word-spacing:0px;fill:#000000;fill-opacity:1;stroke:none;stroke-width:1px;stroke-linecap:butt;stroke-linejoin:miter;stroke-opacity:1"
       x="53"
       y="62.362206"
       id="text4855"
       sodipodi:linespacing="125%"><tspan
         sodipodi:role="line"
         id="tspan4857"
         x="53"
         y="62.362206">1</tspan></text>
    <text
       xml:space="preserve"
       style="font-style:normal;font-weight:normal;font-size:40px;line-height:125%;font-family:sans-serif;letter-spacing:0px;word-spacing:0px;fill:#000000;fill-opacity:1;stroke:none;stroke-width:1px;stroke-linecap:butt;stroke-linejoin:miter;stroke-opacity:1"
       x="160"
       y="63.362206"
       id="text4859"
       sodipodi:linespacing="125%"><tspan
         sodipodi:role="line"
         id="tspan4861"
         x="160"
         y="63.362206">2</tspan></text>
    <text
       xml:space="preserve"
       style="font-style:normal;font-weight:normal;font-size:40px;line-height:125%;font-family:sans-serif;letter-spacing:0px;word-spacing:0px;fill:#000000;fill-opacity:1;stroke:none;stroke-width:1px;stroke-linecap:butt;stroke-linejoin:miter;stroke-opacity:1"
       x="268"
       y="59.362206"
       id="text4863"
       sodipodi:linespacing="125%"><tspan
         sodipodi:role="line"
         id="tspan4865"
         x="268"
         y="59.362206">3</tspan></text>
    <text
       xml:space="preserve"
       style="font-style:normal;font-weight:normal;font-size:40px;line-height:125%;font-family:sans-serif;letter-spacing:0px;word-spacing:0px;fill:#000000;fill-opacity:1;stroke:none;stroke-width:1px;stroke-linecap:butt;stroke-linejoin:miter;stroke-opacity:1"
       x="380"
       y="58.362206"
       id="text4867"
       sodipodi:linespacing="125%"><tspan
         sodipodi:role="line"
         id="tspan4869"
         x="380"
         y="58.362206">4</tspan></text>
    <text
       xml:space="preserve"
       style="font-style:normal;font-weight:normal;font-size:40px;line-height:125%;font-family:sans-serif;letter-spacing:0px;word-spacing:0px;fill:#000000;fill-opacity:1;stroke:none;stroke-width:1px;stroke-linecap:butt;stroke-linejoin:miter;stroke-opacity:1"
       x="517"
       y="60.362206"
       id="text4871"
       sodipodi:linespacing="125%"><tspan
         sodipodi:role="line"
         id="tspan4873"
         x="517"
         y="60.362206">5</tspan></text>
    <text
       xml:space="preserve"
       style="font-style:normal;font-weight:normal;font-size:40px;line-height:125%;font-family:sans-serif;letter-spacing:0px;word-spacing:0px;fill:#000000;fill-opacity:1;stroke:none;stroke-width:1px;stroke-linecap:butt;stroke-linejoin:miter;stroke-opacity:1"
       x="613"
       y="61.362206"
       id="text4875"
       sodipodi:linespacing="125%"><tspan
         sodipodi:role="line"
         id="tspan4877"
         x="613"
         y="61.362206">6</tspan></text>
  </g>
</svg>
